<?xml version="1.0" standalone="no"?>
<!DOCTYPE svg PUBLIC "-//W3C//DTD SVG 1.1//EN" "http://www.w3.org/Graphics/SVG/1.1/DTD/svg11.dtd" >
<svg xmlns="http://www.w3.org/2000/svg">
<metadata></metadata>
<defs>
<font id="homiziobold" horiz-adv-x="1227" >
<font-face units-per-em="2048" ascent="1638" descent="-410" />
<missing-glyph horiz-adv-x="561" />
<glyph unicode="AE" horiz-adv-x="1587" d="M-16 0l697 1434h822v-169h-541v-463h503v-162h-503v-478h572v-162h-742v422h-413q-14 -26 -27 -54.5t-27 -55.5l-27 -56l-27 -56l-25 -50l-25 -50l-25 -51l-23 -49h-189zM456 585h336v680h-12l-159 -335l-160 -334q-2 -5 -1.5 -4t-3.5 -7z" />
<glyph unicode="ae" horiz-adv-x="1826" d="M235 286q8 84 43.5 147.5t89.5 106.5t122 64.5t141 21.5q57 0 114 -13.5t110 -37.5v79q-5 52 -19.5 96t-38.5 76t-57 50t-75 18q-156 -2 -294 -128l-107 109q83 88 185.5 131t223.5 42q164 0 235 -82h-1q17 -19 32 -40l28 -42q62 84 149.5 124t202.5 40q193 0 301 -141 q102 -132 102 -361v-75h-701q5 -75 25 -138.5t56 -105.5q38 -48 93.5 -72.5t125.5 -24.5q74 0 146.5 30t147.5 90l80 -130q-99 -72 -196 -108t-196 -36q-125 0 -215 46t-150 138q-45 -50 -89 -85t-89 -57t-92.5 -32t-100.5 -10q-74 0 -135.5 23.5t-106.5 65.5 q-90 88 -90 221zM401 286q0 -70 44 -112q47 -44 129 -44q59 0 110 17t89 44q32 27 53.5 52.5t27.5 43.5v128q-55 35 -107.5 49t-105.5 14q-50 0 -94 -14t-76.5 -39.5t-51 -61t-18.5 -77.5zM1032 624h523q-13 130 -74 200t-166 70q-59 0 -107.5 -20.5t-86.5 -58.5 q-32 -35 -55 -82.5t-34 -108.5z" />
<glyph unicode="OE" horiz-adv-x="1755" d="M38 702q0 167 48.5 305.5t137.5 242.5q94 99 225 153t292 54q29 0 63 -2t68.5 -5t67.5 -8l59 -8h666v-163h-542v-467h502v-162h-502v-480h572v-162h-699q-36 -5 -74 -9.5t-73.5 -7.5t-67.5 -5t-56 -2q-326 0 -507 204q-180 205 -180 522zM210 713q0 -127 36 -234t99 -185 l-1 1q68 -76 163 -116t216 -40q56 0 112.5 6t118.5 17v1113q-57 10 -109 15t-110 5q-122 0 -217 -40.5t-166 -120.5h1q-143 -162 -143 -421z" />
<glyph unicode="oe" horiz-adv-x="1844" d="M52 506q0 129 34 227t103 170t158.5 108.5t200.5 36.5q78 0 145.5 -21t126.5 -62q78 -57 123 -139q65 106 159.5 164t219.5 58q96 0 171 -35.5t129 -104.5q49 -65 75.5 -156.5t26.5 -205.5v-75h-701q5 -74 25 -137t56 -106q80 -98 218 -98q73 0 155 35.5t170 104.5 l67 -144q-109 -75 -208.5 -112.5t-196.5 -37.5q-125 0 -218 57.5t-153 163.5q-127 -221 -400 -221q-114 0 -203 38.5t-156 113.5q-61 72 -94 168.5t-33 209.5zM217 504q0 -87 21 -154.5t66 -118.5q87 -101 237 -101q76 0 135 25.5t100 73.5v-1q41 50 62.5 121.5t21.5 162.5 q0 186 -81.5 284t-233.5 98q-150 0 -240 -101q-45 -51 -66.5 -123t-21.5 -166zM1034 624h522q-13 130 -74 200t-166 70q-57 0 -107 -21.5t-88 -58.5q-30 -35 -53.5 -84t-33.5 -106z" />
<glyph unicode="&#xfb01;" horiz-adv-x="856" d="M0 871v153h170v127q0 165 86 254q88 90 216 90q68 0 184 -58l-71 -143q-31 23 -59.5 35t-57.5 12q-137 0 -137 -198v-119h472v-1024h-161v871h-311v-871h-161v871h-170z" />
<glyph unicode="&#xfb02;" horiz-adv-x="1117" d="M13 871v153h171v127q0 80 22 144.5t64 109.5q44 43 97.5 66.5t118.5 23.5q297 0 330 -221v-992q0 -78 22.5 -113t75.5 -35q23 0 60 15t92 47v-169q-48 -24 -88.5 -35t-73.5 -11q-248 0 -248 291v992q-14 35 -58 56t-116 21q-137 0 -137 -198v-119h251v-153h-251v-871 h-161v871h-171z" />
<glyph horiz-adv-x="2048" />
<glyph horiz-adv-x="2048" />
<glyph unicode="&#xd;" horiz-adv-x="199" />
<glyph unicode=" "  horiz-adv-x="561" />
<glyph unicode="&#x09;" horiz-adv-x="561" />
<glyph unicode="&#xa0;" horiz-adv-x="561" />
<glyph unicode="!" horiz-adv-x="220" d="M-5 96q0 51 32 81.5t80 30.5q24 0 45 -8t36 -23t24 -35.5t9 -45.5q0 -24 -9 -44.5t-24 -36t-36 -24t-45 -8.5t-44.5 8.5t-35.5 24t-23.5 36t-8.5 44.5zM19 1404h172l-8 -1030h-156z" />
<glyph unicode="&#x22;" horiz-adv-x="498" d="M43 1404h164l-9 -492h-147zM272 1404h165l-10 -492h-145z" />
<glyph unicode="#" horiz-adv-x="1136" d="M-9 483l37 149h256l10 42l8 39q3 11 5.5 22t4.5 22l9 41q4 18 9 38l5 18q2 7 5 22h-273l36 148h266q5 26 11 52l12 52l8 35q3 17 6 35q5 25 11.5 54t13.5 57l11 50l10 45h154l-85 -380h172q5 26 11 51.5t11 52.5l7 35l8 35l6 31q3 15 7 31q8 35 15.5 74.5t15.5 69.5h154 l-84 -380h257l-36 -148h-250q-3 -17 -7 -33l-8 -34q-3 -11 -5.5 -22t-4.5 -22q-5 -19 -8.5 -34t-6.5 -29l-6 -31q-4 -17 -8 -39h263l-35 -149h-259q-2 -7 -3 -14.5t-3 -15.5l-10 -50q-6 -27 -12 -52l-13 -58q-8 -31 -14 -62l-13 -62l-12 -55h-155l81 369h-167 q-5 -20 -9 -39.5t-9 -39.5l-12 -53l-13 -60l-14 -63q-5 -29 -12.5 -59.5t-12.5 -54.5h-154l80 369h-262zM439 632h166l9 39q4 19 9 36v-1l6 26l6 25q2 11 5 22l4 18q5 21 8 37l8 42h-166q-3 -13 -6.5 -26t-6.5 -26q-8 -32 -14 -59q-2 -11 -4.5 -21t-4.5 -21 q-5 -24 -8.5 -42.5t-10.5 -48.5z" />
<glyph unicode="$" horiz-adv-x="785" d="M3 90v186q170 -110 303 -122v492q-87 51 -146 97t-91 84q-66 87 -66 203q0 70 23 131t67 112q39 46 94 77t119 47v173h147v-166q130 -6 241 -52v-189q-63 38 -124.5 59.5t-116.5 25.5v-502q76 -42 134.5 -85.5t92.5 -84.5q36 -45 55.5 -97.5t19.5 -110.5 q0 -70 -23.5 -132.5t-65.5 -110.5q-37 -40 -95 -71t-118 -46v-201h-147v193q-37 3 -76.5 11t-79 19t-77 26.5t-70.5 33.5zM167 1041q0 -35 8 -65.5t27 -53.5q14 -20 41 -44t63 -47v404q-56 -18 -91 -58q-25 -26 -36.5 -60.5t-11.5 -75.5zM453 167q70 23 103.5 70.5 t33.5 113.5q0 33 -10 65t-27 57q-17 20 -40 42t-60 45v-393z" />
<glyph unicode="%" horiz-adv-x="1551" d="M39 1049q0 176 99 278q96 103 256 103q76 0 138.5 -26.5t108.5 -76.5q45 -51 68.5 -120t23.5 -157q0 -160 -95 -267t-254 -107q-79 0 -143 27.5t-110 79.5q-45 52 -68.5 118.5t-23.5 147.5zM199 1047q0 -107 51 -165q51 -57 136 -57q41 0 76.5 16.5t59.5 42.5 q51 65 51 168q0 112 -48.5 169t-132.5 57q-91 0 -142 -60.5t-51 -170.5zM227 -30l844 1432h178l-841 -1432h-181zM764 351q0 91 25.5 160t74.5 121q51 50 114 75.5t141 25.5t139.5 -26t109.5 -77q91 -105 91 -278q0 -158 -95 -267q-49 -54 -111.5 -81.5t-142.5 -27.5 q-78 0 -142.5 27t-112.5 79q-44 51 -67.5 118.5t-23.5 150.5zM925 349q0 -106 51 -166q50 -56 136 -56q45 0 79 15t57 42q52 66 52 170q0 112 -49 169t-134 57q-86 0 -139 -59q-53 -60 -53 -172z" />
<glyph unicode="&#x26;" horiz-adv-x="1343" d="M36 372q0 259 285 405q-61 78 -94 156.5t-33 147.5q0 143 102 244q104 101 263 101q147 0 234 -87q88 -88 88 -219q0 -70 -22 -129.5t-64 -109.5q-36 -42 -86.5 -80t-120.5 -72l66 -69l75 -75l88 -86l107 -101q87 151 93 380h166q-4 -140 -41.5 -262t-104.5 -231l82 -79 l87 -82l78 -72l59 -55l-249 3l-161 159q-96 -94 -206 -138.5t-240 -44.5q-106 0 -188 28.5t-142 82.5q-62 57 -91.5 127t-29.5 158zM202 378q0 -51 20.5 -97.5t54.5 -81.5q38 -33 94 -51t124 -18q94 0 173 33.5t154 105.5l-131 127l-108 105l-86 85l-68 72 q-106 -54 -166.5 -125.5t-60.5 -154.5zM359 1079q0 -96 117 -234q66 31 112 62.5t74 60.5q52 58 52 141q0 37 -11.5 67.5t-34.5 51.5q-49 44 -118 44q-89 0 -139 -56q-26 -27 -39 -61.5t-13 -75.5z" />
<glyph unicode="'" horiz-adv-x="233" d="M29 1404h164l-8 -492h-147z" />
<glyph unicode="(" horiz-adv-x="461" d="M-1 542q0 515 305 862h195q-339 -388 -339 -860q0 -445 329 -846h-189q-301 351 -301 844z" />
<glyph unicode=")" horiz-adv-x="462" d="M-53 1404h193q151 -175 227.5 -389.5t76.5 -472.5q0 -496 -300 -844h-187q326 399 326 846q0 470 -336 860z" />
<glyph unicode="*" horiz-adv-x="740" d="M-11 1053l46 156l254 -90q0 5 -0.5 8t-1.5 8q-1 8 -1 16.5t-1 16.5q-2 47 -5 100t-5 99q0 7 -0.5 18.5t-0.5 18.5h164l-13 -285l63 23l68 24l64 23l57 20l47 -156l-255 -65q5 -8 9.5 -13t10.5 -13q10 -12 21 -27l19 -27l29 -38l30 -41l30 -41l25 -34l-134 -91l-151 242 l-11 -18q-6 -9 -12 -17l-23 -36l-22 -35h1l-21 -33l-24 -37l-23 -35q-11 -18 -20 -31l-132 92l173 233q-6 2 -12 3.5t-12 3.5l-58 14l-60 15l-60 15z" />
<glyph unicode="+" horiz-adv-x="917" d="M-16 514v153h381v383h153v-383h382v-153h-382v-382h-153v382h-381z" />
<glyph unicode="," horiz-adv-x="283" d="M-29 -230l162 516h177l-190 -516h-149z" />
<glyph unicode="-" horiz-adv-x="708" d="M48 514v159h583v-159h-583z" />
<glyph unicode="." horiz-adv-x="278" d="M22 96q0 51 32 81.5t80 30.5q23 0 44 -8t36.5 -23t24.5 -35.5t9 -45.5q0 -24 -9 -44.5t-24.5 -36t-36.5 -24t-44 -8.5q-24 0 -44.5 8.5t-35.5 24t-23.5 36t-8.5 44.5z" />
<glyph unicode="/" horiz-adv-x="797" d="M-39 -221l673 1625h172l-680 -1625h-165z" />
<glyph unicode="0" horiz-adv-x="986" d="M35 673q0 374 118.5 563.5t338.5 189.5q422 0 422 -719q0 -174 -28.5 -308t-86.5 -226h1q-119 -197 -336 -197q-205 0 -320 188h1q-56 89 -83 216t-27 293zM200 685q0 -134 20.5 -242t55.5 -181v1q36 -63 87 -98t111 -35t110 37t85 99v-1q37 75 58 183.5t21 245.5 q0 578 -264 578q-134 0 -209 -146.5t-75 -440.5z" />
<glyph unicode="1" horiz-adv-x="524" d="M-29 1133v165l485 165v-1463h-161v1248l-32 -12l-33 -11l-96 -35l-94 -33l-36 -12q-21 -7 -33 -12z" />
<glyph unicode="2" horiz-adv-x="913" d="M29 0v144l372 396l81 90l72 83q32 39 56.5 71.5t37.5 53.5q57 90 57 200q0 112 -62 173t-177 61q-162 0 -369 -183v203q88 66 182.5 100t197.5 34q189 0 288 -103q104 -103 104 -273q0 -74 -17 -141t-52 -125q-16 -27 -44 -64t-65 -82l-83 -96l-96 -106l-70 -73l-65 -69 l-65 -68l-69 -73h620v-153h-834z" />
<glyph unicode="3" horiz-adv-x="855" d="M3 63v187q101 -60 181.5 -90t143.5 -30q72 0 128.5 17.5t95.5 53.5q79 73 79 187q0 130 -93.5 196t-268.5 66h-142v153h130q160 0 243 65.5t83 185.5q0 103 -58 160.5t-169 57.5q-115 0 -300 -117v183q90 45 167.5 66.5t145.5 21.5q85 0 154.5 -25t119.5 -71 q51 -48 78 -112t27 -141q0 -234 -177 -335q38 -15 70.5 -37.5t59.5 -51.5q46 -49 70 -112t24 -140q0 -194 -132 -310q-66 -57 -149.5 -86t-187.5 -29q-158 0 -323 87z" />
<glyph unicode="4" horiz-adv-x="982" d="M-16 377v118l630 909h143v-875h176v-152h-176v-377h-161v377h-612zM193 529h403v580l-44 -64l-44 -64l-158 -227z" />
<glyph unicode="5" horiz-adv-x="823" d="M25 41v187q175 -98 292 -98q148 0 228 79t80 213q0 285 -331 285q-70 -1 -127.5 -17.5t-105.5 -52.5v767h674v-154h-513v-393q36 2 61.5 3t42.5 1q115 0 202 -29t145.5 -84.5t88 -135t29.5 -179.5q0 -202 -127 -329q-63 -63 -151.5 -95.5t-203.5 -32.5q-76 0 -147 16 t-137 49z" />
<glyph unicode="6" horiz-adv-x="945" d="M31 621q0 181 35.5 324.5t105.5 253.5q149 227 412 227q60 0 117.5 -11.5t114.5 -32.5v-177q-73 34 -130 50.5t-104 16.5q-87 0 -157.5 -43.5t-121.5 -124.5h1q-41 -66 -67 -147.5t-36 -176.5q54 62 126.5 94t164.5 32q88 0 162.5 -33.5t128.5 -97.5q53 -63 80.5 -142 t27.5 -174q0 -106 -29.5 -191.5t-91.5 -153.5q-126 -138 -312 -138q-207 0 -318 171q-109 166 -109 474zM205 473q0 -68 19.5 -131t54.5 -114q35 -42 84 -70t101 -28q113 0 185 86q40 45 58 100.5t18 124.5q0 142 -70 230v-1q-34 39 -79.5 60.5t-103.5 21.5q-26 0 -52 -6.5 t-50.5 -18t-47 -27t-40.5 -33.5q-34 -43 -55.5 -94t-21.5 -100z" />
<glyph unicode="7" horiz-adv-x="888" d="M-14 1250v154h876v-70l-543 -1334h-176l515 1250h-672z" />
<glyph unicode="8" horiz-adv-x="951" d="M31 351q0 125 62 218t193 162q-106 63 -158 145.5t-52 189.5q0 155 112 257q110 103 287 103q162 0 263 -95q103 -94 103 -243q0 -222 -219 -349q262 -126 262 -375q0 -175 -119 -281q-61 -52 -143.5 -79.5t-191.5 -27.5q-91 0 -162.5 26.5t-126.5 77.5 q-110 106 -110 271zM195 354q0 -95 69 -161v1q36 -31 85.5 -47.5t109.5 -16.5t109 16.5t85 47.5v-1q31 34 49 74t18 85q0 106 -67 175.5t-203 118.5q-139 -57 -197 -124q-58 -62 -58 -168zM241 1079q0 -168 213 -263q222 94 222 261q0 93 -58 144q-57 51 -156 51 q-45 0 -85.5 -14.5t-72.5 -41.5q-28 -26 -45.5 -62.5t-17.5 -74.5z" />
<glyph unicode="9" horiz-adv-x="946" d="M18 949q0 109 30.5 193.5t93.5 151.5q126 132 315 132q97 0 176 -43.5t134 -124.5t83.5 -199t28.5 -271q0 -191 -36 -340.5t-105 -255.5q-72 -103 -178 -159.5t-241 -56.5q-49 0 -106 11.5t-124 37.5v176q154 -71 232 -71q169 0 268.5 124t120.5 369q-53 -61 -124 -89.5 t-164 -28.5q-90 0 -164 31t-128 95h1q-113 126 -113 318zM184 968q0 -148 72 -229t187 -81q105 0 183 78q77 80 77 187q0 161 -76 256q-71 93 -182 93q-114 0 -186 -85q-75 -85 -75 -219z" />
<glyph unicode=":" horiz-adv-x="253" d="M10 96q0 51 32.5 81.5t80.5 30.5q24 0 45 -8t36 -23t24 -35.5t9 -45.5q0 -24 -9 -44.5t-24 -36t-36 -24t-45 -8.5t-44.5 8.5t-36 24t-24 36t-8.5 44.5zM10 930q0 24 8.5 44.5t24 35t36 23t44.5 8.5t45 -8.5t36 -23t24 -35t9 -44.5t-9 -45t-24 -36t-36 -24t-45 -9t-44.5 9 t-36 24t-24 36t-8.5 45z" />
<glyph unicode=";" horiz-adv-x="294" d="M-36 -230l162 516h178l-191 -516h-149zM80 930q0 48 30.5 79.5t81.5 31.5q23 0 43.5 -8.5t35.5 -23t24 -35t9 -44.5t-9 -45t-24 -36t-35.5 -24t-43.5 -9q-25 0 -45.5 9t-35.5 24t-23 36t-8 45z" />
<glyph unicode="&#x3c;" horiz-adv-x="910" d="M-22 552v61l848 476v-174l-589 -329l109 -54l111 -54l60 -30l61 -29l38 -20q20 -10 40 -19l86 -42l84 -42v-175z" />
<glyph unicode="=" horiz-adv-x="1001" d="M56 334v155h915v-155h-915zM56 694v154h915v-154h-915z" />
<glyph unicode="&#x3e;" horiz-adv-x="909" d="M50 121v175l587 290q-10 5 -20 11l-21 12l-116 64l-116 65q-22 11 -43 23l-137 78l-134 76v174l846 -476v-61z" />
<glyph unicode="?" horiz-adv-x="754" d="M-31 1215q130 205 403 211q77 0 143 -22t114 -64.5t75.5 -104t27.5 -139.5q0 -59 -16 -107t-41.5 -88.5t-57.5 -75t-65 -66.5l-75 -73q-29 -30 -45.5 -53t-22.5 -44t-6 -47q0 -37 11 -84.5t25 -88.5h-154q-7 17 -13.5 38t-11 44t-7 46t-2.5 44q0 48 13 88.5t35.5 76 t53.5 68t68 64.5v-1q27 24 53 51t47 58t33.5 66t12.5 76q0 42 -14.5 75t-40 56.5t-62 35.5t-79.5 12q-79 0 -150 -33.5t-118 -94.5zM233 96q0 51 31.5 81.5t79.5 30.5q49 0 82 -30.5t33 -81.5q0 -24 -9 -44.5t-24.5 -36t-36.5 -24t-45 -8.5t-44 8.5t-35 24t-23.5 36 t-8.5 44.5z" />
<glyph unicode="@" horiz-adv-x="1701" d="M45 608q0 347 230 583q229 235 572 235q171 0 307 -51t240 -151q208 -202 208 -511q0 -116 -27.5 -212t-80.5 -170q-54 -76 -125.5 -116t-153.5 -40q-89 0 -149.5 36t-87.5 108q-94 -144 -258 -144q-74 0 -132.5 26t-102.5 80q-84 102 -84 272q0 222 114 374 q117 156 308 156q42 0 79 -11.5t69 -33.5q6 -5 12 -9t11 -9q1 12 3 24t5 25h156l-51 -583q2 -73 28.5 -115.5t74.5 -42.5q97 0 158 98q35 51 52 121t17 156q0 261 -156 416q-156 153 -443 153q-65 0 -128 -14t-121 -39.5t-109.5 -60t-94.5 -76.5h1q-82 -96 -129 -217 t-47 -257q0 -289 166 -459q167 -170 455 -170q112 0 212 23t192 68l94 -117q-140 -63 -266.5 -95.5t-241.5 -32.5q-350 0 -563 218q-213 221 -213 565zM566 561q0 -109 43 -171t121 -62q51 0 92.5 28.5t73.5 80.5q32 60 51 139.5t19 169.5q0 91 -39 137t-108 46 q-114 0 -181 -96q-72 -101 -72 -272z" />
<glyph unicode="A" d="M-13 0l541 1434h141l535 -1434h-184l-155 422h-537l-39 -104l-41 -108l-40 -108l-37 -102h-184zM388 585h416l-209 570l-33 -90v1l-38 -103l-37 -102l-35 -97l-34 -96l-14 -40zM586 1177l18 -1q-2 -3 -3 -6.5t-3 -6.5v1l-3 -9l-2 6v-1q-1 2 -1 2.5t-1 2.5q-2 3 -5 12z " />
<glyph unicode="B" horiz-adv-x="947" d="M51 0v1434h394q173 0 281 -97q108 -99 108 -255q0 -103 -41.5 -184.5t-120.5 -132.5q40 -14 72.5 -36t61.5 -52q46 -50 69.5 -111.5t23.5 -139.5q0 -185 -122 -307q-122 -119 -324 -119h-402zM220 162h214q143 0 217 66t74 190q0 243 -343 243h-162v-499zM220 824h151 q68 0 120.5 15.5t91.5 50.5q76 62 76 175q0 206 -250 206h-189v-447z" />
<glyph unicode="C" horiz-adv-x="1193" d="M27 689q0 346 202 557q201 211 511 211q227 -4 424 -171l-132 -119q-69 65 -143 96.5t-151 31.5q-55 0 -109 -12t-104 -34t-94.5 -51.5t-81.5 -64.5q-71 -81 -109.5 -190.5t-38.5 -243.5q0 -125 37.5 -230.5t102.5 -180.5q70 -69 162.5 -109t198.5 -40q78 0 151.5 31.5 t142.5 96.5l132 -119q-196 -168 -434 -172q-295 0 -482 199q-92 100 -138.5 227t-46.5 287z" />
<glyph unicode="D" horiz-adv-x="1220" d="M54 0v1434h378q358 0 543 -178t185 -520q0 -326 -200 -532q-200 -204 -547 -204h-359zM224 162h176q136 0 248.5 39.5t187.5 105.5q69 72 109.5 181t40.5 245q0 538 -569 538h-193v-1109z" />
<glyph unicode="E" horiz-adv-x="785" d="M47 0v1434h711v-163h-540v-467h502v-162h-502v-480h572v-162h-743z" />
<glyph unicode="F" horiz-adv-x="748" d="M46 0v1434h711v-163h-540v-477h502v-162h-502v-632h-171z" />
<glyph unicode="G" horiz-adv-x="1223" d="M26 697q0 323 195 541q195 219 521 219q220 -4 413 -170l-132 -120q-137 128 -294 128q-238 0 -386 -163q-143 -163 -143 -421q0 -131 36 -238t99 -185q67 -66 162 -107.5t204 -41.5q82 0 151.5 15t131.5 48v388h-319v163h490v-643q-121 -67 -237.5 -100.5t-232.5 -33.5 q-149 0 -267.5 49.5t-210.5 152.5q-181 199 -181 519z" />
<glyph unicode="H" horiz-adv-x="1175" d="M50 0v1434h172v-620h699v620h171v-1434h-171v651h-699v-651h-172z" />
<glyph unicode="I" horiz-adv-x="259" d="M37 0v1434h171v-1434h-171z" />
<glyph unicode="J" horiz-adv-x="549" d="M-47 -191l67 159q29 -11 54 -17.5t47 -6.5q55 0 94.5 22t64.5 67.5t36.5 115t11.5 164.5v1121h171v-1123q0 -531 -380 -531q-30 0 -70.5 7t-95.5 22z" />
<glyph unicode="K" horiz-adv-x="997" d="M48 0v1434h171v-579q8 11 16 21l18 20l50 56l109 120l112 125l112 122l104 115h224l-629 -696l143 -158l146 -161l106 -117l107 -118l39 -44l44 -50l45 -48l39 -42h-236l-549 616v-616h-171z" />
<glyph unicode="L" horiz-adv-x="750" d="M44 0v1434h171v-1272h544v-162h-715z" />
<glyph unicode="M" horiz-adv-x="1490" d="M53 0v1434h148l522 -1127q1 -3 1.5 -7t1.5 -6v7l3 -6l4 8l3 9q1 2 1.5 4.5t2.5 6.5l510 1111h147v-1434h-167v1002l1 14l-234 -510l-231 -506h-77l-465 1015v-1015h-171zM725 303l1 -2z" />
<glyph unicode="N" horiz-adv-x="1235" d="M49 0v1434h130l802 -1087v1087h170v-1434h-123l-809 1095v-1095h-170z" />
<glyph unicode="O" horiz-adv-x="1447" d="M31 702q0 168 48.5 305.5t136.5 240.5q94 100 222.5 154.5t286.5 54.5q146 0 264.5 -49.5t206.5 -152.5h-1q182 -198 182 -517q0 -351 -185 -557q-187 -205 -494 -205q-304 0 -486 203q-181 206 -181 523zM204 713q0 -265 136 -420q136 -154 356 -154q117 0 209.5 39.5 t160.5 112.5h-1q67 78 102.5 186.5t35.5 245.5q0 136 -32.5 241.5t-100.5 180.5q-67 75 -156.5 112.5t-205.5 37.5q-112 0 -201 -40t-161 -119q-142 -159 -142 -423z" />
<glyph unicode="P" horiz-adv-x="884" d="M45 0v1434h366q226 0 347 -106.5t121 -312.5t-135 -338q-69 -66 -160.5 -100t-212.5 -34h-157v-543h-169zM214 707h155q166 0 251 77.5t85 219.5q0 267 -311 267h-180v-564z" />
<glyph unicode="Q" horiz-adv-x="1423" d="M18 702q0 168 48 305.5t136 240.5q94 100 222.5 154.5t286.5 54.5q146 0 263.5 -49.5t207.5 -152.5q91 -100 136.5 -228t45.5 -289q0 -172 -46.5 -311t-132.5 -239q-83 -89 -189 -142.5t-231 -65.5q4 -66 27.5 -92t73.5 -26q45 0 110 41l53 -146q-54 -25 -98 -38t-76 -13 q-237 0 -254 275q-125 12 -227.5 62.5t-183.5 143.5h1q-87 99 -130 226.5t-43 288.5zM190 713q0 -263 136 -420q68 -77 156 -115.5t201 -38.5q55 0 107 11t99 31t88.5 47.5t74.5 60.5q65 78 101 188.5t36 245.5q0 136 -32.5 241.5t-100.5 180.5q-67 75 -156 112.5t-206 37.5 q-218 0 -362 -159q-70 -79 -106 -184.5t-36 -238.5z" />
<glyph unicode="R" horiz-adv-x="968" d="M44 0v1434h415q194 0 310 -108q113 -107 113 -284q0 -81 -23 -148.5t-70 -121.5q-42 -47 -90.5 -77.5t-116.5 -49.5l22 -37l22 -39l48 -86l49 -88l64 -111l66 -115q11 -21 24 -43l25 -44l25 -44l22 -38h-194l-341 605h-199v-605h-171zM215 766h195q138 0 221 72v-1 q78 70 78 197q0 112 -71.5 174.5t-208.5 62.5h-214v-505z" />
<glyph unicode="S" horiz-adv-x="851" d="M-8 118l107 132q69 -56 133.5 -83t124.5 -27h5q136 0 208 55q73 56 73 156q0 42 -12 77.5t-34 61.5h1q-28 29 -87 71t-144 91q-214 128 -273 212q-63 91 -63 210q0 162 125 272v-1q126 112 323 112q94 -4 182 -40t170 -101l-106 -131q-69 56 -133.5 83t-124.5 27 q-123 0 -193 -61q-68 -60 -68 -149q0 -42 12 -78t33 -61h-1q14 -13 37.5 -31.5t54.5 -39.5l66 -44q35 -23 73 -45q91 -52 160.5 -106t103.5 -97q71 -89 71 -215q0 -173 -121 -282q-61 -55 -147 -82q-83 -26 -196 -26h-8h-1q-93 4 -181 39.5t-170 100.5z" />
<glyph unicode="T" horiz-adv-x="946" d="M-17 1271v163h953v-163h-390v-1271h-171v1271h-392z" />
<glyph unicode="U" horiz-adv-x="1125" d="M37 560v874h171v-861q0 -434 345 -434q333 0 333 421v874h170v-853q0 -605 -521 -605q-498 0 -498 584z" />
<glyph unicode="V" horiz-adv-x="1205" d="M-15 1434h186l405 -1126q2 2 2.5 5.5t1.5 5.5l106 275l107 282l108 282l105 276h183l-556 -1434h-121z" />
<glyph unicode="W" horiz-adv-x="1820" d="M13 1434h188l312 -1099l27 87l27 88l43 141l45 143l29 94l32 105l32 105l29 95l19 60l19 63l19 62l17 56h108l310 -1099l42 151l41 150l28 103l29 103l83 298l80 294h185l-420 -1434h-139l-300 1024l-55 -170l-54 -173l-10 -32l-10 -32h1l-83 -261l-81 -260l-15 -48 l-15 -48h-137z" />
<glyph unicode="X" horiz-adv-x="1126" d="M-3 0l451 722l-102 168l-105 175l-25 42l-34 57l-33 56q-16 27 -25 41l-26 42l-26 44q-11 20 -26 45l-25 42h204l314 -530q4 -6 9 -14l9 -17q5 8 9 15.5t9 14.5l157 265l156 266h201l-430 -709l168 -278l173 -284l50 -83l49 -80h-206l-323 536l1 -1q-6 8 -10 14.5 t-11 20.5q-3 -5 -6.5 -10t-6.5 -10q-2 -3 -3.5 -4.5t-2.5 -3.5t-2 -2l-60 -98l-60 -99q-11 -17 -21 -35l-21 -35l-39 -63l-38 -62l-46 -74l-45 -74h-202z" />
<glyph unicode="Y" horiz-adv-x="1042" d="M-27 1434h190l328 -677v1q3 -5 5.5 -10.5t6.5 -13.5l5 11q2 6 5 11l89 178l93 181v-1l29 58l30 61l54 104l49 97h188l-464 -891v-543h-169v543l-42 85l-43 86l-64 128l-63 130l-57 114l-59 120l-58 118z" />
<glyph unicode="Z" horiz-adv-x="1064" d="M-4 0v79l787 1192h-722v163h977v-76l-791 -1196h778v-162h-1029z" />
<glyph unicode="[" horiz-adv-x="390" d="M35 -302v1706h370v-154h-208v-1398h208v-154h-370z" />
<glyph unicode="\" horiz-adv-x="797" d="M-39 1404h172l673 -1625h-166z" />
<glyph unicode="]" horiz-adv-x="393" d="M-30 -148h208v1398h-208v154h370v-1706h-370v154z" />
<glyph unicode="^" horiz-adv-x="861" d="M-25 650l398 776h83l397 -776h-175l-263 523l-29 -57l-29 -59l-17 -34l-18 -34v1l-61 -122l-57 -111l-54 -107h-175z" />
<glyph unicode="_" horiz-adv-x="993" d="M46 -89h863v-159h-863v159z" />
<glyph unicode="`" horiz-adv-x="359" d="M-61 1480h191l271 -380h-176z" />
<glyph unicode="a" horiz-adv-x="875" d="M22 286q8 84 43.5 147.5t89.5 106.5t122.5 64.5t143.5 21.5q27 0 58 -9.5t61 -24.5t56.5 -34.5t44.5 -39.5v136q-5 52 -19.5 96t-39 76t-58 50t-75.5 18q-155 -2 -293 -128l-105 109q85 88 185 131q98 42 216 42h6q166 0 255 -101t89 -293v-654h-160v132 q-16 -26 -46.5 -54t-70 -50.5t-84.5 -37t-90 -14.5q-72 0 -133 23.5t-106 65.5q-90 88 -90 221zM187 286q0 -71 45 -112q44 -44 129 -44q58 0 109.5 17t88.5 44q30 26 53 51.5t29 42.5l-1 -3v129q-54 35 -108 51t-105 16q-50 0 -94 -14t-76.5 -39.5t-51 -61t-18.5 -77.5z " />
<glyph unicode="b" horiz-adv-x="979" d="M47 1480h161v-580q67 70 146.5 105.5t171.5 42.5q98 0 178 -37.5t136 -103.5q51 -66 80 -157.5t29 -203.5q0 -253 -124 -409q-130 -161 -337 -161q-83 0 -155 30.5t-125 84.5v-92l-160 7zM208 297q26 -35 54.5 -65t63 -52.5t76 -36t93.5 -13.5q60 0 114 32t92 78 q37 56 60.5 135t23.5 169q0 81 -20 147t-56 113q-34 41 -83.5 64t-105.5 26q-43 -6 -85.5 -19.5t-83 -36t-77 -53t-66.5 -69.5v-419z" />
<glyph unicode="c" horiz-adv-x="882" d="M21 495q0 118 38.5 220t105.5 177q72 75 165.5 115.5t204.5 40.5h6q149 0 306 -104l-93 -126q-125 76 -232 76q-75 0 -134 -27.5t-107 -81.5q-49 -56 -72 -126.5t-23 -158.5q0 -85 20.5 -152.5t65.5 -118.5q42 -49 96.5 -74t125.5 -25q128 0 256 92l92 -133 q-99 -55 -186 -84t-166 -29q-209 0 -343 146q-62 72 -94 164.5t-32 208.5z" />
<glyph unicode="d" horiz-adv-x="979" d="M-7 546q0 112 28.5 203.5t79.5 157.5q57 67 137 104t176 37q64 0 113.5 -11.5t88 -30.5t67.5 -44t52 -52v570h161l-1 -1474l-160 -7v94q-55 -59 -124 -88t-157 -29q-102 0 -187 41.5t-149 119.5q-58 77 -91.5 182t-33.5 227zM158 544q0 -90 23 -169t60 -135 q19 -23 42.5 -43t50 -35t55 -23.5t58.5 -8.5q52 0 93.5 13.5t76 36t63 52.5t55.5 65v419q-61 79 -143 122.5t-170 55.5q-55 -3 -105 -26t-83 -64q-36 -47 -56 -113t-20 -147z" />
<glyph unicode="e" horiz-adv-x="951" d="M26 518q0 110 32 204t94 169q65 74 151 115.5t186 41.5q193 0 301 -141q102 -132 102 -361v-75h-701q5 -75 25 -138.5t55 -105.5q38 -48 94 -72.5t126 -24.5q74 0 146.5 30t147.5 90l81 -131q-100 -72 -197 -107.5t-197 -35.5q-199 0 -324 146q-61 71 -91.5 168.5 t-30.5 227.5zM201 624h523q-11 128 -73 199t-166 71q-58 0 -107.5 -20.5t-87.5 -58.5q-32 -34 -54.5 -82.5t-34.5 -108.5z" />
<glyph unicode="f" horiz-adv-x="635" d="M-13 871v153h171v127q0 80 22 144.5t64 109.5q44 43 98.5 66.5t117.5 23.5q69 0 185 -57l-70 -144q-30 23 -60 35t-59 12q-137 0 -137 -198v-119h251v-153h-251v-871h-161v871h-171z" />
<glyph unicode="g" horiz-adv-x="996" d="M14 495q0 118 34 219t95 176q65 76 153 117t191 41q79 0 148 -28.5t121 -74.5v79h162v-916q0 -139 -32.5 -245t-95.5 -173q-63 -63 -163 -99t-226 -36q-73 0 -158 23.5t-187 74.5l110 130q112 -75 236 -75q354 0 354 377v10q-60 -66 -134.5 -92.5t-171.5 -26.5 q-193 0 -316 141q-59 69 -89.5 162.5t-30.5 215.5zM179 502q0 -178 80 -278q37 -46 87.5 -70t114.5 -24q189 1 295 175v430q-120 159 -267 159q-137 0 -221 -104q-89 -109 -89 -288z" />
<glyph unicode="h" horiz-adv-x="880" d="M45 0v1480h161v-551q58 63 129 91t163 28q85 0 151 -28t111 -82t68 -132.5t23 -179.5v-626h-161v606q0 150 -52 219t-163 69h-1q-150 0 -268 -201v-693h-161z" />
<glyph unicode="i" horiz-adv-x="204" d="M-12 1297q0 24 9 43.5t24 33.5t34.5 22t40.5 8q22 0 42 -7.5t35 -22t24 -34t9 -43.5q0 -47 -31.5 -78.5t-78.5 -31.5q-21 0 -40.5 8t-34.5 23t-24 35t-9 44zM17 0v1024h161v-1024h-161z" />
<glyph unicode="j" horiz-adv-x="580" d="M-28 -219q62 -35 108 -54t75 -19q202 0 202 341v975h161v-959q0 -510 -372 -510q-71 0 -174 47v179zM328 1297q0 24 9.5 43.5t24.5 33.5t34.5 22t40.5 8q22 0 42 -7.5t35 -22t24 -34t9 -43.5q0 -47 -31.5 -78.5t-78.5 -31.5q-21 0 -41 8t-35 23t-24 35t-9 44z" />
<glyph unicode="k" horiz-adv-x="792" d="M43 0v1480h162v-855l19 20l18 20q13 15 26 29l28 28l70 72l70 74l76 78l75 78h215l-488 -497l127 -127l137 -138l137 -138l124 -124h-230l-404 417v-417h-162z" />
<glyph unicode="l" horiz-adv-x="431" d="M36 272v1208h161v-1198q0 -78 22 -113t76 -35q43 0 152 62v-169q-50 -24 -90.5 -35t-72.5 -11q-248 0 -248 291z" />
<glyph unicode="m" horiz-adv-x="1515" d="M55 0v1024h161v-87q111 111 253 111h3q57 0 108 -18.5t93 -50.5q23 -22 44.5 -46t36.5 -51q23 32 47 56t53 45q48 32 98 48.5t104 16.5q350 0 350 -424v-624h-162v608q0 166 -49 228q-22 29 -58.5 43.5t-86.5 14.5q-92 0 -165 -85q-74 -86 -74 -216v-593h-161v615 q0 137 -51 206t-148 73q-34 -6 -67.5 -19.5t-64.5 -34t-57.5 -48.5t-45.5 -63v-729h-161z" />
<glyph unicode="n" horiz-adv-x="924" d="M45 0v1024h161v-88q117 112 287 112h3q172 0 263.5 -112t91.5 -321v-615h-161v589q0 72 -14.5 127.5t-41.5 93.5t-65 59t-85 25q-87 -12 -162 -53t-116 -112v-729h-161z" />
<glyph unicode="o" horiz-adv-x="1072" d="M29 506q0 124 35.5 223.5t101.5 172.5q68 69 160 107.5t200 38.5q111 0 197 -37t151 -109q64 -73 96 -169.5t32 -222.5q0 -117 -33.5 -213t-96.5 -170q-63 -73 -154 -112t-202 -39q-112 0 -202 37.5t-156 112.5q-129 147 -129 380zM194 504q0 -171 89 -273h-1 q89 -101 237 -101q76 0 134 25.5t100 73.5v-1q41 50 62.5 121.5t21.5 162.5q0 186 -81 284t-233 98q-151 0 -240 -101q-89 -99 -89 -289z" />
<glyph unicode="p" horiz-adv-x="979" d="M47 -435v1459h161v-109q30 34 63 58.5t72 40t85 23.5t100 11q97 0 176.5 -37.5t135.5 -103.5q51 -66 80 -157.5t29 -203.5q0 -124 -32.5 -227.5t-90.5 -180.5q-64 -77 -149.5 -119.5t-188.5 -42.5h-11q-81 0 -146 29q-69 31 -123 88v-528h-161zM208 309 q111 -177 287 -179q60 0 114 32t92 78q37 56 60.5 135t23.5 169q0 81 -20 147t-56 113q-35 40 -84 64t-104 26q-45 -6 -91 -18.5t-88 -34t-77 -53t-57 -75.5v-404z" />
<glyph unicode="q" horiz-adv-x="980" d="M-6 546q0 112 28.5 203.5t79.5 157.5q57 67 137 104t176 37q108 -5 185 -35t136 -99v110h161v-1459h-161v529q-55 -57 -124 -88q-65 -30 -147 -30h-11q-208 1 -337 162q-123 158 -123 408zM159 544q0 -90 23 -169t60 -135q19 -23 42.5 -43t50 -35t55 -23.5t58.5 -8.5 q174 2 288 179v403q-24 46 -58.5 78t-75.5 53.5t-87.5 33.5t-92.5 17q-54 -2 -103.5 -26.5t-84.5 -63.5q-75 -98 -75 -260z" />
<glyph unicode="r" horiz-adv-x="555" d="M39 0v1024h159v-80q52 50 110 76q54 24 114 23h9q29 0 62 -7t69 -24v-189q-91 67 -137 67h-7q-135 0 -220 -160v-730h-159z" />
<glyph unicode="s" horiz-adv-x="738" d="M8 96l75 148q83 -72 141 -93v1q30 -9 58 -15.5t48 -6.5q185 0 185 146q0 48 -43.5 85t-141.5 78q-147 65 -206 132q-31 36 -47.5 81.5t-16.5 97.5q0 134 102 218q101 80 243 80q67 0 139 -24t151 -72l-63 -145q-66 44 -125.5 65.5t-110.5 21.5q-77 0 -127 -41h1 q-45 -39 -45 -97q0 -24 8 -46.5t21 -39.5q18 -17 56 -40t89 -45q153 -71 214 -133q67 -67 67 -176q0 -132 -98 -217q-47 -41 -111.5 -62t-147.5 -21q-76 0 -153.5 30t-161.5 90z" />
<glyph unicode="t" horiz-adv-x="570" d="M-16 871v153h171v276h161v-276h250v-153h-250v-589q0 -78 21.5 -113t76.5 -35q40 0 109 42l51 -145q-106 -50 -172 -50q-247 0 -247 291v599h-171z" />
<glyph unicode="u" horiz-adv-x="923" d="M38 437v587h161v-565q0 -172 54.5 -250.5t170.5 -78.5h3q77 0 139 44q64 45 117 133v717h161v-1024h-161v99q-63 -65 -131 -95q-62 -28 -128 -28h-13q-373 0 -373 461z" />
<glyph unicode="v" horiz-adv-x="938" d="M-12 1024h174l289 -767l71 187l71 187l76 197l75 196h176l-408 -1024h-131z" />
<glyph unicode="w" horiz-adv-x="1402" d="M14 1024h177l211 -726l44 141l45 143l71 222l69 220h117l205 -715l55 185l54 183l52 173l51 174h171l-317 -1024h-140l-198 680l-109 -340l-110 -340h-139z" />
<glyph unicode="x" horiz-adv-x="904" d="M-4 0l343 501q-8 11 -15.5 22.5t-15.5 22.5h1l-99 158l-101 158l-28 42l-29 44q-10 17 -25 39.5t-23 36.5h190l222 -358l9 -16q5 -8 10 -14l8 12q4 6 8 13l234 363h191l-348 -523l32 -48q15 -24 32 -48l44 -67l45 -66l63 -95l65 -96q6 -8 13 -19l16 -22q8 -12 14.5 -22.5 t11.5 -17.5h-201l-232 368q-2 -4 -4 -7t-4 -5l2 6q0 1 -1 -2t-3 -8l-12 -15l-52 -81l-53 -81l-46 -71l-46 -71h1q-5 -7 -11 -16.5t-10 -16.5h-196z" />
<glyph unicode="y" horiz-adv-x="950" d="M8 1024h173l287 -771l150 385l151 386h176l-483 -1195q-29 -69 -60 -120.5t-68 -85.5t-82 -51t-102 -17q-26 0 -56.5 7.5t-66.5 20.5l53 165q22 -17 39.5 -24.5t34.5 -7.5q44 0 80 34t65 100l41 96l40 98l-31 83q-15 41 -32 83l-59 154l-57 154v-1l-48 125l-50 131 l-49 130z" />
<glyph unicode="z" horiz-adv-x="895" d="M5 0v83l592 788h-547v153h806v-74l-599 -797h575v-153h-827z" />
<glyph unicode="{" horiz-adv-x="449" d="M-24 486v129q146 21 146 190v291q0 80 20 137t59.5 94t98 56t135.5 22v-153q-50 -2 -80.5 -12.5t-42.5 -26.5v1q-26 -38 -26 -145v-272q0 -175 -93 -250q44 -38 68.5 -102.5t24.5 -157.5v-255q0 -50 7 -86.5t19 -56.5q12 -15 43 -25.5t80 -12.5v-154q-77 4 -135.5 22 t-98 55t-59.5 94t-20 138v275q0 92 -36 144t-110 61z" />
<glyph unicode="|" horiz-adv-x="243" d="M31 -445v1972h164v-1972h-164z" />
<glyph unicode="}" horiz-adv-x="448" d="M-3 -150q94 4 119 36q15 19 21.5 55.5t6.5 90.5v255q0 94 25 158.5t71 101.5q-46 37 -71 100t-25 150v272q0 107 -28 146q-14 14 -44 24t-75 12v154q77 -3 135.5 -21.5t98 -55.5t59.5 -94t20 -138v-291q0 -169 143 -190v-129q-143 -18 -143 -205v-275q0 -81 -20 -138 t-59.5 -94t-98 -55t-135.5 -22v153z" />
<glyph unicode="~" horiz-adv-x="956" d="M31 443q3 70 22.5 125.5t52.5 94.5t78.5 59.5t101.5 20.5q48 0 100.5 -22t102.5 -59l55 -41l36 -25q12 -4 26.5 -6.5t30.5 -2.5q88 0 107 148h145q-9 -144 -76.5 -222.5t-179.5 -78.5q-48 0 -102 24t-107 62q-90 69 -140 69q-95 0 -107 -146h-146z" />
<glyph unicode="&#xa1;" horiz-adv-x="214" d="M-13 928q0 24 9 44.5t24 36t36 24t45 8.5t44.5 -8.5t35.5 -24t23.5 -36t8.5 -44.5q0 -51 -32 -81.5t-80 -30.5q-24 0 -45 8t-36 23t-24 35.5t-9 45.5zM16 -378l9 1030h156l8 -1030h-173z" />
<glyph unicode="&#xa2;" horiz-adv-x="814" d="M0 646q0 105 29.5 196.5t83.5 163.5q52 69 121.5 115t157.5 65v191h161v-178q51 -5 111 -25t129 -51l-48 -162q-111 69 -192 81v-754q48 8 92.5 32.5t95.5 63.5l48 -161q-63 -37 -120.5 -59t-115.5 -30v-187h-161v187q-171 27 -277 156q-115 140 -115 356zM164 652 q0 -72 20 -139t52 -117q30 -34 71 -62t85 -42v735q-47 -17 -86.5 -47t-69.5 -68q-33 -51 -52.5 -118t-19.5 -142z" />
<glyph unicode="&#xa3;" horiz-adv-x="905" d="M2 0v142q231 97 231 313v158h-211v159h211v230q0 191 100 305q103 119 273 119q48 0 100 -11.5t106 -32.5v-175q-129 65 -210 65q-99 0 -153.5 -71.5t-54.5 -208.5v-220h284v-159h-284v-127q0 -59 -5 -107.5t-18 -89t-35 -74t-56 -62.5h602v-153h-880z" />
<glyph unicode="&#xa4;" horiz-adv-x="997" d="M22 366l131 126q-32 52 -49 107.5t-17 109.5q0 125 65 220q-8 7 -15.5 14.5t-15.5 14.5q-5 6 -11 12l-14 13l-16 16l-17 16q-10 9 -22 21.5t-19 17.5l109 110l131 -129q104 66 217 66q121 0 220 -64l38 38l33 32l33 33l25 24l108 -110l-129 -126q34 -48 50 -101.5 t16 -117.5q0 -59 -16.5 -113.5t-48.5 -103.5q18 -14 32 -32l22 -21l23 -22l29 -27l23 -23l-109 -111l-126 128q-50 -35 -105 -51t-118 -16q-126 0 -219 67l-66 -65l-63 -63zM240 711q0 -51 18.5 -92t53.5 -77q72 -72 167 -72q97 0 168 71q71 73 71 170q0 101 -72 170 q-70 67 -165 67q-51 0 -94 -17t-78 -52q-69 -72 -69 -168z" />
<glyph unicode="&#xa5;" horiz-adv-x="960" d="M-25 1404h183l295 -550l5 -9l4 -7q4 10 11 20l41 76l43 77l31 58q17 29 31 57l77 140l75 138h178l-355 -639h292v-152h-345v-152h345v-153h-345v-308h-161v308h-344v153h344v152h-344v152h289l-117 212l-117 216l-44 79l-43 80l-15 26z" />
<glyph unicode="&#xa6;" horiz-adv-x="221" d="M31 420h164v-865h-164v865zM31 662v865h164v-865h-164z" />
<glyph unicode="&#xa7;" horiz-adv-x="676" d="M11 721q0 154 122 241q-38 40 -62.5 91t-24.5 107q0 132 89 215q87 81 236 81q55 0 108.5 -11t110.5 -37v-180q-65 38 -120.5 56.5t-100.5 18.5q-158 0 -158 -137q0 -53 39 -94q26 -23 72 -50t116 -57q210 -97 210 -292q0 -73 -32 -139.5t-92 -123.5q37 -37 53.5 -81 t16.5 -102q0 -122 -95 -208q-46 -39 -106 -60t-135 -21q-104 0 -238 61v180q159 -86 240 -86q82 0 125 36t43 96q0 35 -25 73q-11 18 -41 38.5t-71 41.5q-81 40 -141 81t-85 79q-26 40 -40 86t-14 97zM176 726q0 -73 43 -118q22 -22 66 -49t110 -56q24 20 39.5 37t26.5 35 l-1 -1q24 38 24 99q0 56 -36 95q-18 20 -62.5 46.5t-113.5 58.5q-51 -25 -73.5 -61.5t-22.5 -85.5zM201 916h88v-35q-5 -2 -9 -4t-9 -2t-20.5 9t-49.5 32z" />
<glyph unicode="&#xa8;" horiz-adv-x="608" d="M33 1204q0 23 9 41.5t23 32t32.5 21t38.5 7.5q21 0 40 -7.5t34 -21t24 -32.5t9 -41t-8 -41t-22 -33t-33.5 -22t-41.5 -8q-20 0 -39 7.5t-33.5 21t-23.5 32.5t-9 43zM342 1204q0 23 9 41.5t23 32t32.5 21t37.5 7.5q21 0 40.5 -7.5t34.5 -21t24.5 -32.5t9.5 -41t-8.5 -41 t-23 -33t-34 -22t-41.5 -8q-20 0 -38.5 7.5t-33 21t-23.5 32.5t-9 43z" />
<glyph unicode="&#xa9;" horiz-adv-x="1591" d="M37 699q0 152 52.5 280t161.5 234q216 213 514 213q151 0 278.5 -53t236.5 -160q214 -210 214 -512q0 -299 -213 -512q-215 -213 -514 -213q-302 0 -517 212q-213 213 -213 511zM186 699q0 -56 12.5 -111t35 -107t53.5 -100t69 -89q83 -77 189 -122.5t220 -45.5 q120 0 222.5 41.5t187.5 127.5q170 172 170 406q0 239 -171 410q-170 171 -409 171q-118 0 -220.5 -42.5t-187.5 -128.5q-171 -170 -171 -410zM296 677q0 244 146 387q145 145 366 145q64 0 137 -19t157 -61l-66 -139q-123 68 -243 68q-71 0 -131 -24t-108 -74 q-97 -96 -97 -264q0 -163 101 -260q50 -50 111.5 -74t133.5 -24q107 0 236 79l70 -134q-93 -49 -171.5 -74t-144.5 -25q-209 0 -353 143q-144 141 -144 350z" />
<glyph unicode="&#xaa;" horiz-adv-x="685" d="M19 874q0 50 16 105.5t51 102t90.5 76.5t133.5 30q32 0 69.5 -6.5t79.5 -21.5q-11 53 -38.5 82.5t-72.5 29.5q-111 0 -272 -122v186q74 45 143.5 65.5t135.5 20.5q268 0 268 -291v-467h-159v61q-43 -36 -95 -56.5t-106 -20.5q-57 0 -101 17t-77 49q-66 65 -66 160z M180 875q0 -35 25.5 -56t74.5 -21q34 0 81 30t103 87v115q-67 31 -125 31q-32 0 -60 -11t-49 -34t-34 -58t-16 -83z" />
<glyph unicode="&#xab;" horiz-adv-x="794" d="M-7 536l285 356h204l-292 -355l22 -27l21 -26l80 -95l55 -66l56 -66q6 -8 14 -17l16 -20l16 -20l12 -15h-203zM286 536l287 356h205l-293 -356l41 -50l44 -52l34 -43l35 -42l25 -30l26 -31l22 -26l24 -28l22 -27q10 -13 18 -22h-202z" />
<glyph unicode="&#xac;" horiz-adv-x="982" d="M-18 514v153h916v-532h-156v379h-760z" />
<glyph unicode="&#xad;" horiz-adv-x="690" d="M40 514v159h582v-159h-582z" />
<glyph unicode="&#xae;" horiz-adv-x="1591" d="M37 699q0 152 52.5 280t161.5 234q216 213 514 213q151 0 278.5 -53t236.5 -160q214 -210 214 -512q0 -299 -213 -512q-215 -213 -514 -213q-302 0 -517 212q-213 213 -213 511zM186 699q0 -56 12.5 -111t35 -107t53.5 -100t69 -89q83 -77 189 -122.5t220 -45.5 q120 0 222.5 41.5t187.5 127.5q170 172 170 406q0 239 -171 410q-170 171 -409 171q-118 0 -220.5 -42.5t-187.5 -128.5q-171 -170 -171 -410zM474 225v970h283q81 0 143.5 -19t106.5 -54q47 -38 71 -88.5t24 -112.5q0 -102 -57 -172t-155 -103l44 -67l45 -68v1l18 -28 l18 -27l38 -59l40 -62l39 -59l34 -52h-189l-242 396h-100v-396h-161zM635 762h142q36 0 66 10.5t52 29.5v-1q21 22 32 47.5t11 57.5q0 146 -183 146h-120v-290z" />
<glyph unicode="&#xaf;" horiz-adv-x="850" d="M46 1661v159h863v-159h-863z" />
<glyph unicode="&#xb0;" horiz-adv-x="602" d="M18 1135q0 109 80 189t189 80q115 0 193 -80q81 -79 81 -189q0 -57 -20.5 -105t-60.5 -89q-77 -80 -189 -80t-191 81q-82 82 -82 193zM171 1135q0 -26 8 -48.5t26 -41.5q17 -20 38 -29t44 -9q49 0 83 38q38 38 38 90t-34 88q-34 34 -83 34q-24 0 -46.5 -8.5t-39.5 -27.5 q-34 -34 -34 -86z" />
<glyph unicode="&#xb1;" horiz-adv-x="919" d="M-15 0v153h916v-153h-916zM-15 586v155h381v379h153v-379h382v-155h-382v-381h-153v381h-381z" />
<glyph unicode="&#xb2;" horiz-adv-x="674" d="M23 840v147l232 227q52 51 84 87.5t49 65t22.5 52t5.5 47.5q0 104 -109 104q-85 0 -242 -138v200q66 45 126 67.5t122 22.5q61 0 110 -17.5t83 -49.5t52.5 -77t18.5 -100q0 -40 -9.5 -78.5t-33.5 -81.5t-66 -93.5t-106 -113.5l-115 -112h332v-159h-556z" />
<glyph unicode="&#xb3;" horiz-adv-x="674" d="M19 876v179q140 -88 219 -88q66 0 103 33t37 89q0 117 -179 117h-103v150h94q162 0 162 122q0 89 -104 89q-55 0 -197 -75v170q60 30 113.5 43t100.5 13q57 0 102 -16.5t77 -46.5t49 -72t17 -93q0 -69 -21 -117t-66 -80q54 -32 82 -85t28 -119q0 -58 -20 -107.5 t-58.5 -86t-93.5 -57t-125 -20.5q-54 0 -108.5 14t-108.5 44z" />
<glyph unicode="&#xb4;" horiz-adv-x="359" d="M-55 1100l271 380h191l-288 -380h-174z" />
<glyph unicode="&#xb5;" horiz-adv-x="887" d="M45 -362v1386h161v-565q0 -174 55 -251.5t171 -77.5q114 0 184 84q74 87 74 235v575h161v-1024h-161v91q-106 -115 -273 -115q-127 0 -211 66v-404h-161z" />
<glyph unicode="&#xb6;" horiz-adv-x="823" d="M7 1118q0 130 80 207q82 79 194 79h497v-156h-122v-1248h-155v1248h-108v-1248h-156v837q-47 6 -84.5 26.5t-69.5 54.5q-39 42 -57.5 91t-18.5 109z" />
<glyph unicode="&#xb7;" horiz-adv-x="262" d="M14 692q0 24 8.5 44.5t24 35t36 23t44.5 8.5q23 0 43.5 -8.5t36.5 -23t25 -35t9 -44.5q0 -23 -9 -43.5t-25 -36t-36.5 -24.5t-43.5 -9q-24 0 -44.5 9t-36 24.5t-24 36t-8.5 43.5z" />
<glyph unicode="&#xb8;" horiz-adv-x="415" d="M25 -249q42 -6 71.5 -8t44.5 -2q111 0 111 46q0 42 -97 42q-13 0 -36 -2t-61 -6v255h142v-108q110 -5 159.5 -49t49.5 -126q0 -195 -274 -195q-17 0 -44 1.5t-66 6.5v145z" />
<glyph unicode="&#xb9;" horiz-adv-x="674" d="M7 1469v163l349 110v-750h175v-152h-512v152h182v542q-7 -2 -14.5 -4.5t-14.5 -4.5l-21 -8l-23 -8v1l-30 -10l-33 -11l-33 -11q-15 -6 -25 -9z" />
<glyph unicode="&#xba;" horiz-adv-x="798" d="M23 1032q0 91 26 162t76 123q53 53 118 79t146 26q80 0 145.5 -27.5t113.5 -78.5q47 -52 71.5 -123t24.5 -159q0 -166 -96 -277q-99 -113 -265 -113q-81 0 -147 27.5t-115 84.5v-1q-48 55 -73 123.5t-25 153.5zM186 1030q0 -111 55 -172q53 -62 144 -62q94 0 144 63.5 t50 176.5q0 112 -49.5 174t-142.5 62q-92 0 -144 -63q-57 -66 -57 -179z" />
<glyph unicode="&#xbb;" horiz-adv-x="797" d="M-14 892h206l287 -350l-284 -357h-208l295 357l-100 118l-105 124q-11 12 -23 26l-24 30l-24 28zM282 892h203l290 -351l-289 -356h-203l293 357l-86 102l-89 104l-29 34l-32 39l-32 39z" />
<glyph unicode="&#xbc;" horiz-adv-x="1437" d="M26 1169v163l349 110v-902h-155v694q-5 -2 -9.5 -3t-9.5 -3l-26 -10l-27 -9v1l-30 -10l-33 -11l-33 -11q-15 -6 -26 -9zM198 0l843 1404h178l-841 -1404h-180zM737 203v109l375 551h140v-513h102v-147h-102v-203h-151v203h-364zM940 350h161v244q-11 -15 -21 -31l-21 -32 l-18 -28l-17 -26q-16 -23 -28.5 -43t-26.5 -40v1q-5 -7 -7 -11l-6 -10l-6 -10q-4 -6 -10 -14z" />
<glyph unicode="&#xbd;" horiz-adv-x="1510" d="M28 1169v163l349 110v-902h-155v694q-23 -8 -45.5 -15t-44.5 -15q-11 -3 -25 -8l-30 -10l-28 -9zM201 0l843 1404h178l-841 -1404h-180zM871 0v145l234 229q45 46 75.5 82t48.5 66t26 55t8 49q0 103 -108 103q-44 0 -105 -33.5t-138 -102.5v200q66 43 127.5 66t121.5 23 q61 0 109.5 -17.5t82.5 -50t52.5 -77.5t18.5 -99q0 -39 -9 -77.5t-33 -82t-65.5 -93.5t-105.5 -113l-31 -30l-28 -26l-27 -28l-30 -29h331v-159h-555z" />
<glyph unicode="&#xbe;" horiz-adv-x="1463" d="M23 576v179q140 -88 219 -88q66 0 102.5 33t36.5 89q0 117 -178 117h-103v150h94q162 0 162 122q0 89 -104 89q-55 0 -197 -75v170q60 30 113.5 43t100.5 13q57 0 102 -16.5t77 -46.5t49 -72t17 -93q0 -66 -22.5 -115t-64.5 -82q54 -33 82.5 -85.5t28.5 -118.5 q0 -58 -20 -107.5t-58.5 -86t-94 -57t-125.5 -20.5q-54 0 -108.5 14t-108.5 44zM220 0l844 1404h179l-843 -1404h-180zM760 203v109l374 551h142v-513h102v-147h-102v-203h-152v203h-364zM962 350h162v243l-23 -34l-23 -34v1q-8 -13 -16 -25l-17 -24l-12 -19l-12 -19 q-9 -13 -15 -23l-12 -20l-14 -21z" />
<glyph unicode="&#xbf;" horiz-adv-x="720" d="M-9 -72q0 58 15.5 106t40.5 88t57 75l67 67l74 73q29 29 45.5 52t23 44.5t6.5 48.5q0 18 -3.5 39.5t-8.5 44.5t-12 46l-12 43h152q15 -35 25 -82.5t10 -89.5q0 -48 -12.5 -88.5t-35 -76t-53.5 -68t-68 -64.5v1q-27 -24 -53.5 -51t-47 -58t-33.5 -66t-13 -76 q0 -42 14.5 -75t40 -56.5t61.5 -35.5t80 -12q42 0 77 7t68 20q68 29 131 98l96 -122q-60 -55 -111 -89t-91 -48q-37 -11 -80.5 -18t-90.5 -7q-77 0 -142.5 22t-113.5 64.5t-75.5 104t-27.5 139.5zM264 928q0 24 8.5 44.5t23.5 36t36 24t46 8.5q24 0 44.5 -8.5t35 -24t23 -36 t8.5 -44.5q0 -51 -31.5 -81.5t-79.5 -30.5q-50 0 -82 30.5t-32 81.5z" />
<glyph unicode="&#xc0;" d="M-13 0l541 1434h141l535 -1434h-184l-155 422h-537l-39 -104l-41 -108l-40 -108l-37 -102h-184zM382 1890h191l271 -380h-176zM388 585h416l-209 570l-33 -90v1l-38 -103l-37 -102l-35 -97l-34 -96l-14 -40zM586 1177l18 -1q-2 -3 -3 -6.5t-3 -6.5v1l-3 -9l-2 6v-1 q-1 2 -1 2.5t-1 2.5q-2 3 -5 12z" />
<glyph unicode="&#xc1;" d="M-13 0l541 1434h141l535 -1434h-184l-155 422h-537l-39 -104l-41 -108l-40 -108l-37 -102h-184zM382 1510l271 380h191l-288 -380h-174zM388 585h416l-209 570l-33 -90v1l-38 -103l-37 -102l-35 -97l-34 -96l-14 -40zM586 1177l18 -1q-2 -3 -3 -6.5t-3 -6.5v1l-3 -9l-2 6 v-1q-1 2 -1 2.5t-1 2.5q-2 3 -5 12z" />
<glyph unicode="&#xc2;" d="M-13 0l541 1434h141l535 -1434h-184l-155 422h-537l-39 -104l-41 -108l-40 -108l-37 -102h-184zM319 1510l254 387h83l251 -387h-169l-126 192l-37 -56l-37 -58l-28 -40l-25 -38h-166zM388 585h416l-209 570l-33 -90v1l-38 -103l-37 -102l-35 -97l-34 -96l-14 -40z M586 1177l18 -1q-2 -3 -3 -6.5t-3 -6.5v1l-3 -9l-2 6v-1q-1 2 -1 2.5t-1 2.5q-2 3 -5 12z" />
<glyph unicode="&#xc3;" d="M-13 0l541 1434h141l535 -1434h-184l-155 422h-537l-39 -104l-41 -108l-40 -108l-37 -102h-184zM287 1510q0 72 13.5 124t38.5 84q27 35 64.5 54t83.5 19q78 0 173 -77q51 -46 84 -46q21 0 36 35t15 101h144q0 -65 -14.5 -117.5t-41 -89.5t-64 -56.5t-84.5 -19.5 q-38 0 -80.5 21t-85.5 58q-46 42 -84 42q-57 0 -57 -132h-141zM388 585h416l-209 570l-33 -90v1l-38 -103l-37 -102l-35 -97l-34 -96l-14 -40zM586 1177l18 -1q-2 -3 -3 -6.5t-3 -6.5v1l-3 -9l-2 6v-1q-1 2 -1 2.5t-1 2.5q-2 3 -5 12z" />
<glyph unicode="&#xc4;" d="M-13 0l541 1434h141l535 -1434h-184l-155 422h-537l-39 -104l-41 -108l-40 -108l-37 -102h-184zM353 1614q0 23 9 41.5t23 32t32.5 21t38.5 7.5q21 0 40 -7.5t34 -21t24 -32.5t9 -41t-8 -41t-22 -33t-33.5 -22t-41.5 -8q-20 0 -39 7.5t-33.5 21t-23.5 32.5t-9 43z M388 585h416l-209 570l-33 -90v1l-38 -103l-37 -102l-35 -97l-34 -96l-14 -40zM586 1177l18 -1q-2 -3 -3 -6.5t-3 -6.5v1l-3 -9l-2 6v-1q-1 2 -1 2.5t-1 2.5q-2 3 -5 12zM662 1614q0 23 9 41.5t23 32t32.5 21t37.5 7.5q21 0 40.5 -7.5t34.5 -21t24.5 -32.5t9.5 -41t-8.5 -41 t-23 -33t-34 -22t-41.5 -8q-20 0 -38.5 7.5t-33 21t-23.5 32.5t-9 43z" />
<glyph unicode="&#xc5;" horiz-adv-x="1229" d="M-12 0l497 1316q-115 56 -115 189q0 48 17 85t51 69q68 60 161 60q48 0 88 -15.5t73 -43.5q31 -29 49.5 -68.5t18.5 -86.5q0 -130 -115 -186q26 -66 49 -132l50 -133l70 -185l69 -188q5 -12 9.5 -25t9.5 -26v1l119 -319l116 -312h-184l-155 422h-537l-39 -104l-40 -108 l-40 -108l-38 -102h-184zM389 585h416l-209 570l-33 -90v1l-38 -103l-37 -102l-35 -97l-34 -96l-15 -40zM517 1505q0 -31 23.5 -51t58.5 -20q36 0 59.5 20t23.5 51q0 35 -24.5 54t-58.5 19q-37 0 -59.5 -20t-22.5 -53zM551 1319l45 -35q2 2 5.5 4t5.5 4l25 -16 q-1 -8 -3 -16.5t-4 -14.5l1 1l-4 -18q-3 -11 -11 -31l-28 6q-5 5 -5.5 7.5t-0.5 5.5q0 1 -0.5 1.5t-0.5 1.5v-2q-3 8 -5 14t-3 12q-1 2 -1 3t-1 3q-3 8 -6.5 21.5t-8.5 48.5zM575 1222h32l10 -12q-1 -3 -2 -6.5t-2 -6.5q-1 -2 -1.5 -4t-2.5 -6.5t-5 -12.5t-9 -21 q-5 14 -8.5 25.5t-3.5 14.5q-1 2 -1 3.5t-1 3.5t-3 11t-3 11zM576 1218h1v-3q0 1 -0.5 1.5t-0.5 1.5zM577 1218h19q0 8 -0.5 14.5t-2 8t-5 -3.5t-10.5 -18zM587 1177l18 -1q-2 -3 -3 -6.5t-3 -6.5v1l-3 -9l-2 6v-1q-1 2 -1 2.5t-1 2.5q-2 3 -5 12z" />
<glyph unicode="&#xc7;" horiz-adv-x="1193" d="M27 689q0 346 202 557q201 211 511 211q227 -4 424 -171l-132 -119q-69 65 -143 96.5t-151 31.5q-55 0 -109 -12t-104 -34t-94.5 -51.5t-81.5 -64.5q-71 -81 -109.5 -190.5t-38.5 -243.5q0 -125 37.5 -230.5t102.5 -180.5q70 -69 162.5 -109t198.5 -40q78 0 151.5 31.5 t142.5 96.5l132 -119q-196 -168 -434 -172q-295 0 -482 199q-92 100 -138.5 227t-46.5 287zM404 -249q42 -6 71.5 -8t44.5 -2q111 0 111 46q0 42 -97 42q-13 0 -36 -2t-61 -6v255h142v-108q110 -5 159.5 -49t49.5 -126q0 -195 -274 -195q-17 0 -44 1.5t-66 6.5v145z" />
<glyph unicode="&#xc8;" horiz-adv-x="785" d="M47 0v1434h711v-163h-540v-467h502v-162h-502v-480h572v-162h-743zM161 1890h191l271 -380h-176z" />
<glyph unicode="&#xc9;" horiz-adv-x="785" d="M47 0v1434h711v-163h-540v-467h502v-162h-502v-480h572v-162h-743zM161 1510l271 380h191l-288 -380h-174z" />
<glyph unicode="&#xca;" horiz-adv-x="785" d="M47 0v1434h711v-163h-540v-467h502v-162h-502v-480h572v-162h-743zM98 1510l254 387h83l251 -387h-169l-126 192l-37 -56l-37 -58l-28 -40l-25 -38h-166z" />
<glyph unicode="&#xcb;" horiz-adv-x="785" d="M47 0v1434h711v-163h-540v-467h502v-162h-502v-480h572v-162h-743zM132 1614q0 23 9 41.5t23 32t32.5 21t38.5 7.5q21 0 40 -7.5t34 -21t24 -32.5t9 -41t-8 -41t-22 -33t-33.5 -22t-41.5 -8q-20 0 -39 7.5t-33.5 21t-23.5 32.5t-9 43zM441 1614q0 23 9 41.5t23 32 t32.5 21t37.5 7.5q21 0 40.5 -7.5t34.5 -21t24.5 -32.5t9.5 -41t-8.5 -41t-23 -33t-34 -22t-41.5 -8q-20 0 -38.5 7.5t-33 21t-23.5 32.5t-9 43z" />
<glyph unicode="&#xcc;" horiz-adv-x="463" d="M-172 1828h191l271 -380h-176zM37 0v1434h171v-1434h-171z" />
<glyph unicode="&#xcd;" horiz-adv-x="463" d="M-22 1448l271 380h191l-288 -380h-174zM37 0v1434h171v-1434h-171z" />
<glyph unicode="&#xce;" horiz-adv-x="463" d="M-172 1449l254 387h83l251 -387h-169l-126 192l-37 -57l-37 -57l-28 -41l-25 -37h-166zM37 0v1434h171v-1434h-171z" />
<glyph unicode="&#xcf;" horiz-adv-x="463" d="M-143 1552q0 23 9 41.5t23 32t32.5 21t38.5 7.5q21 0 40 -7.5t34 -21t24 -32.5t9 -41t-8 -41t-22 -33t-33.5 -22t-41.5 -8q-20 0 -39 7.5t-33.5 21t-23.5 32.5t-9 43zM37 0v1434h171v-1434h-171zM166 1552q0 23 9 41.5t23 32t32.5 21t37.5 7.5q21 0 40.5 -7.5t34.5 -21 t24.5 -32.5t9.5 -41t-8.5 -41t-23 -33t-34 -22t-41.5 -8q-20 0 -38.5 7.5t-33 21t-23.5 32.5t-9 43z" />
<glyph unicode="&#xd0;" horiz-adv-x="1331" d="M21 632v160h141v642h379q358 0 543.5 -177.5t185.5 -520.5q0 -160 -53 -296t-150 -238q-101 -100 -238 -151t-308 -51h-359v632h-141zM334 162h173q290 0 436 145q152 143 152 426q0 538 -569 538h-192v-479h382v-160h-382v-470z" />
<glyph unicode="&#xd1;" horiz-adv-x="1235" d="M49 0v1434h130l802 -1087v1087h170v-1434h-123l-809 1095v-1095h-170zM291 1510q0 72 13.5 124t38.5 84q27 35 64.5 54t83.5 19q78 0 173 -77q51 -46 84 -46q21 0 36 35t15 101h144q0 -65 -14.5 -117.5t-41 -89.5t-64 -56.5t-84.5 -19.5q-38 0 -80.5 21t-85.5 58 q-46 42 -84 42q-57 0 -57 -132h-141z" />
<glyph unicode="&#xd2;" horiz-adv-x="1447" d="M31 702q0 168 48.5 305.5t136.5 240.5q94 100 222.5 154.5t286.5 54.5q146 0 264.5 -49.5t206.5 -152.5h-1q182 -198 182 -517q0 -351 -185 -557q-187 -205 -494 -205q-304 0 -486 203q-181 206 -181 523zM204 713q0 -265 136 -420q136 -154 356 -154q117 0 209.5 39.5 t160.5 112.5h-1q67 78 102.5 186.5t35.5 245.5q0 136 -32.5 241.5t-100.5 180.5q-67 75 -156.5 112.5t-205.5 37.5q-112 0 -201 -40t-161 -119q-142 -159 -142 -423zM492 1890h191l271 -380h-176z" />
<glyph unicode="&#xd3;" horiz-adv-x="1447" d="M31 702q0 168 48.5 305.5t136.5 240.5q94 100 222.5 154.5t286.5 54.5q146 0 264.5 -49.5t206.5 -152.5h-1q182 -198 182 -517q0 -351 -185 -557q-187 -205 -494 -205q-304 0 -486 203q-181 206 -181 523zM204 713q0 -265 136 -420q136 -154 356 -154q117 0 209.5 39.5 t160.5 112.5h-1q67 78 102.5 186.5t35.5 245.5q0 136 -32.5 241.5t-100.5 180.5q-67 75 -156.5 112.5t-205.5 37.5q-112 0 -201 -40t-161 -119q-142 -159 -142 -423zM492 1510l271 380h191l-288 -380h-174z" />
<glyph unicode="&#xd4;" horiz-adv-x="1447" d="M31 702q0 168 48.5 305.5t136.5 240.5q94 100 222.5 154.5t286.5 54.5q146 0 264.5 -49.5t206.5 -152.5h-1q182 -198 182 -517q0 -351 -185 -557q-187 -205 -494 -205q-304 0 -486 203q-181 206 -181 523zM204 713q0 -265 136 -420q136 -154 356 -154q117 0 209.5 39.5 t160.5 112.5h-1q67 78 102.5 186.5t35.5 245.5q0 136 -32.5 241.5t-100.5 180.5q-67 75 -156.5 112.5t-205.5 37.5q-112 0 -201 -40t-161 -119q-142 -159 -142 -423zM429 1510l254 387h83l251 -387h-169l-126 192l-37 -56l-37 -58l-28 -40l-25 -38h-166z" />
<glyph unicode="&#xd5;" horiz-adv-x="1447" d="M31 702q0 168 48.5 305.5t136.5 240.5q94 100 222.5 154.5t286.5 54.5q146 0 264.5 -49.5t206.5 -152.5h-1q182 -198 182 -517q0 -351 -185 -557q-187 -205 -494 -205q-304 0 -486 203q-181 206 -181 523zM204 713q0 -265 136 -420q136 -154 356 -154q117 0 209.5 39.5 t160.5 112.5h-1q67 78 102.5 186.5t35.5 245.5q0 136 -32.5 241.5t-100.5 180.5q-67 75 -156.5 112.5t-205.5 37.5q-112 0 -201 -40t-161 -119q-142 -159 -142 -423zM397 1510q0 72 13.5 124t38.5 84q27 35 64.5 54t83.5 19q78 0 173 -77q51 -46 84 -46q21 0 36 35t15 101 h144q0 -65 -14.5 -117.5t-41 -89.5t-64 -56.5t-84.5 -19.5q-38 0 -80.5 21t-85.5 58q-46 42 -84 42q-57 0 -57 -132h-141z" />
<glyph unicode="&#xd6;" horiz-adv-x="1447" d="M31 702q0 168 48.5 305.5t136.5 240.5q94 100 222.5 154.5t286.5 54.5q146 0 264.5 -49.5t206.5 -152.5h-1q182 -198 182 -517q0 -351 -185 -557q-187 -205 -494 -205q-304 0 -486 203q-181 206 -181 523zM204 713q0 -265 136 -420q136 -154 356 -154q117 0 209.5 39.5 t160.5 112.5h-1q67 78 102.5 186.5t35.5 245.5q0 136 -32.5 241.5t-100.5 180.5q-67 75 -156.5 112.5t-205.5 37.5q-112 0 -201 -40t-161 -119q-142 -159 -142 -423zM463 1614q0 23 9 41.5t23 32t32.5 21t38.5 7.5q21 0 40 -7.5t34 -21t24 -32.5t9 -41t-8 -41t-22 -33 t-33.5 -22t-41.5 -8q-20 0 -39 7.5t-33.5 21t-23.5 32.5t-9 43zM772 1614q0 23 9 41.5t23 32t32.5 21t37.5 7.5q21 0 40.5 -7.5t34.5 -21t24.5 -32.5t9.5 -41t-8.5 -41t-23 -33t-34 -22t-41.5 -8q-20 0 -38.5 7.5t-33 21t-23.5 32.5t-9 43z" />
<glyph unicode="&#xd7;" horiz-adv-x="911" d="M21 281l310 308l-69 71l-72 72l-54 54l-60 58l-55 56l109 108l309 -310l69 70l72 73l54 54l58 57l56 56l109 -108l-310 -311l155 -154l155 -154l-109 -108l-309 311l-69 -70l-72 -73l-86 -85l-82 -83z" />
<glyph unicode="&#xd8;" horiz-adv-x="1470" d="M13 31l174 206q-66 97 -100.5 213.5t-34.5 251.5q0 172 46.5 307.5t140.5 239.5q187 208 508 208q107 0 200 -28.5t170 -81.5l33 39l34 40q7 8 14 17t15 17h-1l21 23q12 14 18 22l120 -100l-137 -161q81 -98 122.5 -224.5t41.5 -281.5q0 -348 -184 -557 q-187 -205 -493 -205q-131 0 -236 35t-193 110l-161 -188zM227 713q0 -202 77 -338l707 842q-60 41 -127.5 59.5t-152.5 18.5q-112 0 -201.5 -40t-161.5 -119q-72 -80 -106.5 -185.5t-34.5 -237.5zM401 251q62 -54 143 -83t175 -29q55 0 107 11t99 31t88.5 47.5t74.5 60.5 q64 78 101 188.5t37 245.5q0 117 -27.5 215t-78.5 172z" />
<glyph unicode="&#xd9;" horiz-adv-x="1327" d="M37 560v874h171v-861q0 -434 345 -434q333 0 333 421v874h170v-853q0 -605 -521 -605q-498 0 -498 584zM298 1828h191l271 -380h-176z" />
<glyph unicode="&#xda;" horiz-adv-x="1327" d="M37 560v874h171v-861q0 -434 345 -434q333 0 333 421v874h170v-853q0 -605 -521 -605q-498 0 -498 584zM381 1447l271 380h191l-288 -380h-174z" />
<glyph unicode="&#xdb;" horiz-adv-x="1327" d="M37 560v874h171v-861q0 -434 345 -434q333 0 333 421v874h170v-853q0 -605 -521 -605q-498 0 -498 584zM296 1449l254 387h83l251 -387h-169l-126 192l-37 -57l-37 -57l-28 -41l-25 -37h-166z" />
<glyph unicode="&#xdc;" horiz-adv-x="1327" d="M37 560v874h171v-861q0 -434 345 -434q333 0 333 421v874h170v-853q0 -605 -521 -605q-498 0 -498 584zM318 1553q0 23 9 41.5t23 32t32.5 21t38.5 7.5q21 0 40 -7.5t34 -21t24 -32.5t9 -41t-8 -41t-22 -33t-33.5 -22t-41.5 -8q-20 0 -39 7.5t-33.5 21t-23.5 32.5t-9 43z M627 1553q0 23 9 41.5t23 32t32.5 21t37.5 7.5q21 0 40.5 -7.5t34.5 -21t24.5 -32.5t9.5 -41t-8.5 -41t-23 -33t-34 -22t-41.5 -8q-20 0 -38.5 7.5t-33 21t-23.5 32.5t-9 43z" />
<glyph unicode="&#xdd;" horiz-adv-x="1106" d="M-27 1434h190l328 -677v1q3 -5 5.5 -10.5t6.5 -13.5l5 11q2 6 5 11l89 178l93 181v-1l29 58l30 61l54 104l49 97h188l-464 -891v-543h-169v543l-42 85l-43 86l-64 128l-63 130l-57 114l-59 120l-58 118zM250 1479l271 380h191l-288 -380h-174z" />
<glyph unicode="&#xde;" horiz-adv-x="876" d="M42 0v1434h169v-226h197q468 0 468 -419q0 -210 -137 -340q-69 -64 -161.5 -96.5t-213.5 -32.5h-153v-320h-169zM211 481h155q165 0 250.5 76.5t85.5 218.5q0 270 -311 270h-180v-565z" />
<glyph unicode="&#xdf;" horiz-adv-x="920" d="M42 2v1069q0 98 27 175.5t76 134.5q51 55 120 84.5t157 29.5q77 0 139 -24.5t110 -72.5q96 -96 96 -251q0 -225 -183 -343q54 -23 102 -58t82 -76q49 -59 75 -126.5t26 -147.5q0 -178 -114 -301q-59 -59 -131.5 -89t-163.5 -30q-35 0 -77.5 7t-94.5 20v171 q53 -20 95.5 -32t73.5 -12q115 0 179 70q67 70 67 190q0 64 -26 118t-75 96t-121 71.5t-163 44.5v136q284 64 284 279q0 96 -49.5 151t-138.5 55q-101 0 -156 -74t-55 -209v-1056h-161z" />
<glyph unicode="&#xe0;" horiz-adv-x="1012" d="M22 286q8 84 43.5 147.5t89.5 106.5t122.5 64.5t143.5 21.5q27 0 58 -9.5t61 -24.5t56.5 -34.5t44.5 -39.5v136q-5 52 -19.5 96t-39 76t-58 50t-75.5 18q-155 -2 -293 -128l-105 109q85 88 185 131t222 42q166 0 255 -101t89 -293v-654h-160v132q-16 -26 -46.5 -54 t-70 -50.5t-84.5 -37t-90 -14.5q-72 0 -133 23.5t-106 65.5q-90 88 -90 221zM134 1480h191l271 -380h-176zM187 286q0 -71 45 -112q44 -44 129 -44q58 0 109.5 17t88.5 44q30 26 53 51.5t29 42.5l-1 -3v129q-54 35 -108 51t-105 16q-50 0 -94 -14t-76.5 -39.5t-51 -61 t-18.5 -77.5z" />
<glyph unicode="&#xe1;" horiz-adv-x="1012" d="M22 286q8 84 43.5 147.5t89.5 106.5t122.5 64.5t143.5 21.5q27 0 58 -9.5t61 -24.5t56.5 -34.5t44.5 -39.5v136q-5 52 -19.5 96t-39 76t-58 50t-75.5 18q-155 -2 -293 -128l-105 109q85 88 185 131t222 42q166 0 255 -101t89 -293v-654h-160v132q-16 -26 -46.5 -54 t-70 -50.5t-84.5 -37t-90 -14.5q-72 0 -133 23.5t-106 65.5q-90 88 -90 221zM170 1100l271 380h191l-288 -380h-174zM187 286q0 -71 45 -112q44 -44 129 -44q58 0 109.5 17t88.5 44q30 26 53 51.5t29 42.5l-1 -3v129q-54 35 -108 51t-105 16q-50 0 -94 -14t-76.5 -39.5 t-51 -61t-18.5 -77.5z" />
<glyph unicode="&#xe2;" horiz-adv-x="1012" d="M22 286q8 84 43.5 147.5t89.5 106.5t122.5 64.5t143.5 21.5q27 0 58 -9.5t61 -24.5t56.5 -34.5t44.5 -39.5v136q-5 52 -19.5 96t-39 76t-58 50t-75.5 18q-155 -2 -293 -128l-105 109q85 88 185 131t222 42q166 0 255 -101t89 -293v-654h-160v132q-16 -26 -46.5 -54 t-70 -50.5t-84.5 -37t-90 -14.5q-72 0 -133 23.5t-106 65.5q-90 88 -90 221zM107 1100l254 387h83l251 -387h-169l-126 192l-37 -57l-37 -57l-28 -41l-25 -37h-166zM187 286q0 -71 45 -112q44 -44 129 -44q58 0 109.5 17t88.5 44q30 26 53 51.5t29 42.5l-1 -3v129 q-54 35 -108 51t-105 16q-50 0 -94 -14t-76.5 -39.5t-51 -61t-18.5 -77.5z" />
<glyph unicode="&#xe3;" horiz-adv-x="1012" d="M22 286q8 84 43.5 147.5t89.5 106.5t122.5 64.5t143.5 21.5q27 0 58 -9.5t61 -24.5t56.5 -34.5t44.5 -39.5v136q-5 52 -19.5 96t-39 76t-58 50t-75.5 18q-155 -2 -293 -128l-105 109q85 88 185 131t222 42q166 0 255 -101t89 -293v-654h-160v132q-16 -26 -46.5 -54 t-70 -50.5t-84.5 -37t-90 -14.5q-72 0 -133 23.5t-106 65.5q-90 88 -90 221zM186 1100q0 72 13.5 124t38.5 84q27 35 64.5 54t83.5 19q78 0 173 -77q51 -46 84 -46q21 0 36 35t15 101h144q0 -65 -14.5 -117.5t-41 -89.5t-64 -56.5t-84.5 -19.5q-38 0 -80.5 21t-85.5 58 q-46 42 -84 42q-57 0 -57 -132h-141zM187 286q0 -71 45 -112q44 -44 129 -44q58 0 109.5 17t88.5 44q30 26 53 51.5t29 42.5l-1 -3v129q-54 35 -108 51t-105 16q-50 0 -94 -14t-76.5 -39.5t-51 -61t-18.5 -77.5z" />
<glyph unicode="&#xe4;" horiz-adv-x="1012" d="M22 286q8 84 43.5 147.5t89.5 106.5t122.5 64.5t143.5 21.5q27 0 58 -9.5t61 -24.5t56.5 -34.5t44.5 -39.5v136q-5 52 -19.5 96t-39 76t-58 50t-75.5 18q-155 -2 -293 -128l-105 109q85 88 185 131t222 42q166 0 255 -101t89 -293v-654h-160v132q-16 -26 -46.5 -54 t-70 -50.5t-84.5 -37t-90 -14.5q-72 0 -133 23.5t-106 65.5q-90 88 -90 221zM123 1204q0 23 9 41.5t23 32t32.5 21t38.5 7.5q21 0 40 -7.5t34 -21t24 -32.5t9 -41t-8 -41t-22 -33t-33.5 -22t-41.5 -8q-20 0 -39 7.5t-33.5 21t-23.5 32.5t-9 43zM187 286q0 -71 45 -112 q44 -44 129 -44q58 0 109.5 17t88.5 44q30 26 53 51.5t29 42.5l-1 -3v129q-54 35 -108 51t-105 16q-50 0 -94 -14t-76.5 -39.5t-51 -61t-18.5 -77.5zM432 1204q0 23 9 41.5t23 32t32.5 21t37.5 7.5q21 0 40.5 -7.5t34.5 -21t24.5 -32.5t9.5 -41t-8.5 -41t-23 -33t-34 -22 t-41.5 -8q-20 0 -38.5 7.5t-33 21t-23.5 32.5t-9 43z" />
<glyph unicode="&#xe5;" horiz-adv-x="849" d="M20 323q8 84 43.5 147.5t89.5 106.5t122.5 64.5t143.5 21.5q27 0 58 -9.5t61 -24.5t56.5 -34.5t44.5 -39.5v136q-5 52 -19.5 96t-39 76t-58 50t-75.5 18q-155 -2 -293 -128l-105 109q85 88 185 131t222 42q166 0 255 -101t89 -293v-654h-160v132q-16 -26 -46.5 -54 t-70 -50.5t-84.5 -37t-90 -14.5q-72 0 -133 23.5t-106 65.5q-90 88 -90 221zM185 323q0 -71 45 -112q44 -44 129 -44q58 0 109.5 17t88.5 44q30 26 53 51.5t29 42.5l-1 -3v129q-54 35 -108 51t-105 16q-50 0 -94 -14t-76.5 -39.5t-51 -61t-18.5 -77.5zM257 1308 q0 45 17 83.5t49 67.5q32 30 71 43.5t87 13.5t87 -13.5t71 -43.5q65 -56 65 -151q0 -45 -15.5 -83t-50.5 -69q-33 -27 -71.5 -41.5t-85.5 -14.5q-48 0 -87.5 14t-71.5 40q-65 58 -65 154zM401 1308q0 -32 22.5 -51t57.5 -19t58.5 19.5t23.5 50.5q0 35 -24 53t-58 18 q-36 0 -58 -19.5t-22 -51.5z" />
<glyph unicode="&#xe7;" horiz-adv-x="909" d="M21 495q0 118 38.5 220t105.5 177q72 75 165.5 115.5t204.5 40.5q152 2 312 -104l-93 -126q-125 76 -232 76q-75 0 -134 -27.5t-107 -81.5q-49 -56 -72 -126.5t-23 -158.5q0 -85 20.5 -152.5t65.5 -118.5q42 -49 96.5 -74t125.5 -25q128 0 256 92l92 -133 q-99 -55 -186 -84t-166 -29q-209 0 -343 146q-62 72 -94 164.5t-32 208.5zM371 -249q42 -6 71.5 -8t44.5 -2q111 0 111 46q0 42 -97 42q-13 0 -36 -2t-61 -6v255h142v-108q110 -5 159.5 -49t49.5 -126q0 -195 -274 -195q-17 0 -44 1.5t-66 6.5v145z" />
<glyph unicode="&#xe8;" horiz-adv-x="1034" d="M26 518q0 110 32 204t94 169q65 74 151 115.5t186 41.5q193 0 301 -141q102 -132 102 -361v-75h-701q5 -75 25 -138.5t55 -105.5q38 -48 94 -72.5t126 -24.5q74 0 146.5 30t147.5 90l81 -131q-100 -72 -197 -107.5t-197 -35.5q-199 0 -324 146q-61 71 -91.5 168.5 t-30.5 227.5zM184 1480h191l271 -380h-176zM201 624h523q-11 128 -73 199t-166 71q-58 0 -107.5 -20.5t-87.5 -58.5q-32 -34 -54.5 -82.5t-34.5 -108.5z" />
<glyph unicode="&#xe9;" horiz-adv-x="1034" d="M26 518q0 110 32 204t94 169q65 74 151 115.5t186 41.5q193 0 301 -141q102 -132 102 -361v-75h-701q5 -75 25 -138.5t55 -105.5q38 -48 94 -72.5t126 -24.5q74 0 146.5 30t147.5 90l81 -131q-100 -72 -197 -107.5t-197 -35.5q-199 0 -324 146q-61 71 -91.5 168.5 t-30.5 227.5zM201 624h523q-11 128 -73 199t-166 71q-58 0 -107.5 -20.5t-87.5 -58.5q-32 -34 -54.5 -82.5t-34.5 -108.5zM207 1100l271 380h191l-288 -380h-174z" />
<glyph unicode="&#xea;" horiz-adv-x="1034" d="M26 518q0 110 32 204t94 169q65 74 151 115.5t186 41.5q193 0 301 -141q102 -132 102 -361v-75h-701q5 -75 25 -138.5t55 -105.5q38 -48 94 -72.5t126 -24.5q74 0 146.5 30t147.5 90l81 -131q-100 -72 -197 -107.5t-197 -35.5q-199 0 -324 146q-61 71 -91.5 168.5 t-30.5 227.5zM141 1100l254 387h83l251 -387h-169l-126 192l-37 -56l-37 -58l-28 -40l-25 -38h-166zM201 624h523q-11 128 -73 199t-166 71q-58 0 -107.5 -20.5t-87.5 -58.5q-32 -34 -54.5 -82.5t-34.5 -108.5z" />
<glyph unicode="&#xeb;" horiz-adv-x="1034" d="M26 518q0 110 32 204t94 169q65 74 151 115.5t186 41.5q193 0 301 -141q102 -132 102 -361v-75h-701q5 -75 25 -138.5t55 -105.5q38 -48 94 -72.5t126 -24.5q74 0 146.5 30t147.5 90l81 -131q-100 -72 -197 -107.5t-197 -35.5q-199 0 -324 146q-61 71 -91.5 168.5 t-30.5 227.5zM160 1204q0 23 9 41.5t23 32t32.5 21t38.5 7.5q21 0 40 -7.5t34 -21t24 -32.5t9 -41t-8 -41t-22 -33t-33.5 -22t-41.5 -8q-20 0 -39 7.5t-33.5 21t-23.5 32.5t-9 43zM201 624h523q-11 128 -73 199t-166 71q-58 0 -107.5 -20.5t-87.5 -58.5q-32 -34 -54.5 -82.5 t-34.5 -108.5zM469 1204q0 23 9 41.5t23 32t32.5 21t37.5 7.5q21 0 40.5 -7.5t34.5 -21t24.5 -32.5t9.5 -41t-8.5 -41t-23 -33t-34 -22t-41.5 -8q-20 0 -38.5 7.5t-33 21t-23.5 32.5t-9 43z" />
<glyph unicode="&#xec;" horiz-adv-x="380" d="M-61 1517h191l271 -380h-176zM178 0v1024h161v-1024h-161z" />
<glyph unicode="&#xed;" horiz-adv-x="364" d="M-161 1137l271 380h191l-288 -380h-174zM57 0v1024h161v-1024h-161z" />
<glyph unicode="&#xee;" horiz-adv-x="509" d="M-137 1137l254 387h83l251 -387h-169l-126 192l-37 -57l-37 -57l-28 -41l-25 -37h-166zM158 0v1024h161v-1024h-161z" />
<glyph unicode="&#xef;" horiz-adv-x="497" d="M-111 1241q0 23 9 41.5t23 32t32.5 21t38.5 7.5q21 0 40 -7.5t34 -21t24 -32.5t9 -41t-8 -41t-22 -33t-33.5 -22t-41.5 -8q-20 0 -39 7.5t-33.5 21t-23.5 32.5t-9 43zM153 0v1024h161v-1024h-161zM198 1241q0 23 9 41.5t23 32t32.5 21t37.5 7.5q21 0 40.5 -7.5t34.5 -21 t24.5 -32.5t9.5 -41t-8.5 -41t-23 -33t-34 -22t-41.5 -8q-20 0 -38.5 7.5t-33 21t-23.5 32.5t-9 43z" />
<glyph unicode="&#xf0;" horiz-adv-x="995" d="M15 506q0 121 32.5 217t95.5 171q66 78 151 116t191 38q35 0 64.5 -3.5t57.5 -13.5q-25 35 -51 65l-51 60q-5 -3 -11 -4q-17 -8 -34 -17.5t-35 -17.5h1l-106 -53l-102 -50l-64 133l239 116q-53 46 -125 99l-163 115h270q43 -29 84.5 -62.5t85.5 -73.5l26 13l26 13h-1 l46 24l47 22l69 35q7 4 17 9l21 10l20 10l15 7l67 -134l-246 -119q63 -72 114 -156t86 -169q36 -93 58 -197.5t22 -198.5q0 -230 -118 -381q-126 -153 -338 -153q-223 0 -343 149q-58 72 -88 166.5t-30 214.5zM179 504q0 -178 82 -277q38 -48 92.5 -72.5t124.5 -24.5 q132 0 208 99q82 100 82 283q0 382 -283 382q-138 0 -218 -103q-88 -111 -88 -287z" />
<glyph unicode="&#xf1;" horiz-adv-x="1096" d="M45 0v1024h161v-88q118 113 290 112q172 0 263.5 -112t91.5 -321v-615h-161v589q0 72 -14.5 127.5t-41.5 93.5t-65 59t-85 25q-87 -12 -162 -53t-116 -112v-729h-161zM258 1100q0 72 13.5 124t38.5 84q27 35 64.5 54t83.5 19q78 0 173 -77q51 -46 84 -46q21 0 36 35 t15 101h144q0 -65 -14.5 -117.5t-41 -89.5t-64 -56.5t-84.5 -19.5q-38 0 -80.5 21t-85.5 58q-46 42 -84 42q-57 0 -57 -132h-141z" />
<glyph unicode="&#xf2;" horiz-adv-x="1149" d="M29 506q0 124 35.5 223.5t101.5 172.5q68 69 160 107.5t200 38.5q111 0 197 -37t151 -109q64 -73 96 -169.5t32 -222.5q0 -117 -33.5 -213t-96.5 -170q-63 -73 -154 -112t-202 -39q-112 0 -202 37.5t-156 112.5q-129 147 -129 380zM194 504q0 -171 89 -273h-1 q89 -101 237 -101q76 0 134 25.5t100 73.5v-1q41 50 62.5 121.5t21.5 162.5q0 186 -81 284t-233 98q-151 0 -240 -101q-89 -99 -89 -289zM207 1480h191l271 -380h-176z" />
<glyph unicode="&#xf3;" horiz-adv-x="1149" d="M29 506q0 124 35.5 223.5t101.5 172.5q68 69 160 107.5t200 38.5q111 0 197 -37t151 -109q64 -73 96 -169.5t32 -222.5q0 -117 -33.5 -213t-96.5 -170q-63 -73 -154 -112t-202 -39q-112 0 -202 37.5t-156 112.5q-129 147 -129 380zM194 504q0 -171 89 -273h-1 q89 -101 237 -101q76 0 134 25.5t100 73.5v-1q41 50 62.5 121.5t21.5 162.5q0 186 -81 284t-233 98q-151 0 -240 -101q-89 -99 -89 -289zM259 1100l271 380h191l-288 -380h-174z" />
<glyph unicode="&#xf4;" horiz-adv-x="1149" d="M29 506q0 124 35.5 223.5t101.5 172.5q68 69 160 107.5t200 38.5q111 0 197 -37t151 -109q64 -73 96 -169.5t32 -222.5q0 -117 -33.5 -213t-96.5 -170q-63 -73 -154 -112t-202 -39q-112 0 -202 37.5t-156 112.5q-129 147 -129 380zM185 1100l254 387h83l251 -387h-169 l-126 192l-37 -57l-37 -57l-28 -41l-25 -37h-166zM194 504q0 -171 89 -273h-1q89 -101 237 -101q76 0 134 25.5t100 73.5v-1q41 50 62.5 121.5t21.5 162.5q0 186 -81 284t-233 98q-151 0 -240 -101q-89 -99 -89 -289z" />
<glyph unicode="&#xf5;" horiz-adv-x="1149" d="M29 506q0 124 35.5 223.5t101.5 172.5q68 69 160 107.5t200 38.5q111 0 197 -37t151 -109q64 -73 96 -169.5t32 -222.5q0 -117 -33.5 -213t-96.5 -170q-63 -73 -154 -112t-202 -39q-112 0 -202 37.5t-156 112.5q-129 147 -129 380zM194 504q0 -171 89 -273h-1 q89 -101 237 -101q76 0 134 25.5t100 73.5v-1q41 50 62.5 121.5t21.5 162.5q0 186 -81 284t-233 98q-151 0 -240 -101q-89 -99 -89 -289zM273 1100q0 72 13.5 124t38.5 84q27 35 64.5 54t83.5 19q78 0 173 -77q51 -46 84 -46q21 0 36 35t15 101h144q0 -65 -14.5 -117.5 t-41 -89.5t-64 -56.5t-84.5 -19.5q-38 0 -80.5 21t-85.5 58q-46 42 -84 42q-57 0 -57 -132h-141z" />
<glyph unicode="&#xf6;" horiz-adv-x="1149" d="M29 506q0 124 35.5 223.5t101.5 172.5q68 69 160 107.5t200 38.5q111 0 197 -37t151 -109q64 -73 96 -169.5t32 -222.5q0 -117 -33.5 -213t-96.5 -170q-63 -73 -154 -112t-202 -39q-112 0 -202 37.5t-156 112.5q-129 147 -129 380zM194 504q0 -171 89 -273h-1 q89 -101 237 -101q76 0 134 25.5t100 73.5v-1q41 50 62.5 121.5t21.5 162.5q0 186 -81 284t-233 98q-151 0 -240 -101q-89 -99 -89 -289zM207 1204q0 23 9 41.5t23 32t32.5 21t38.5 7.5q21 0 40 -7.5t34 -21t24 -32.5t9 -41t-8 -41t-22 -33t-33.5 -22t-41.5 -8 q-20 0 -39 7.5t-33.5 21t-23.5 32.5t-9 43zM516 1204q0 23 9 41.5t23 32t32.5 21t37.5 7.5q21 0 40.5 -7.5t34.5 -21t24.5 -32.5t9.5 -41t-8.5 -41t-23 -33t-34 -22t-41.5 -8q-20 0 -38.5 7.5t-33 21t-23.5 32.5t-9 43z" />
<glyph unicode="&#xf7;" horiz-adv-x="919" d="M-15 514v153h916v-153h-916zM334 272q0 23 8.5 42.5t23.5 34t35 23t43 8.5q46 0 77 -31t31 -77q0 -23 -8.5 -43t-23 -35t-34 -24t-42.5 -9t-43 9t-35 24t-23.5 35t-8.5 43zM334 912q0 47 31.5 77.5t78.5 30.5q46 0 77 -30.5t31 -77.5q0 -23 -8.5 -43t-23 -35t-34 -24 t-42.5 -9t-43 9t-35 24t-23.5 35t-8.5 43z" />
<glyph unicode="&#xf8;" horiz-adv-x="1192" d="M8 -1l160 180q-47 70 -68.5 150t-21.5 177q0 124 35 223.5t101 172.5q69 69 161 107.5t200 38.5q88 0 162.5 -24.5t133.5 -69.5l39 44l42 47l40 47l37 40l113 -101l-172 -191q42 -69 61.5 -150t19.5 -180q0 -117 -33 -213t-96 -170q-66 -73 -156 -112t-200 -39 q-83 0 -157 24.5t-135 66.5q-10 -12 -22 -25l-24 -24h1q-15 -18 -33 -38l-35 -38l-23 -24l-20 -22zM243 504q0 -57 9 -105.5t31 -93.5l479 533q-38 26 -86 41t-104 15q-76 0 -135 -25.5t-105 -75.5q-89 -101 -89 -289zM380 186q40 -32 85.5 -44t103.5 -12q76 0 134 25.5 t100 73.5v-1q41 50 62 121.5t21 162.5q0 115 -32 198z" />
<glyph unicode="&#xf9;" horiz-adv-x="1096" d="M38 437v587h161v-565q0 -172 54.5 -250.5t170.5 -78.5q78 -1 141.5 44t117.5 133v717h161v-1024h-161v99q-62 -65 -130.5 -95.5t-141.5 -27.5q-373 0 -373 461zM173 1480h191l271 -380h-176z" />
<glyph unicode="&#xfa;" horiz-adv-x="1096" d="M38 437v587h161v-565q0 -172 54.5 -250.5t170.5 -78.5q78 -1 141.5 44t117.5 133v717h161v-1024h-161v99q-62 -65 -130.5 -95.5t-141.5 -27.5q-373 0 -373 461zM261 1100l271 380h191l-288 -380h-174z" />
<glyph unicode="&#xfb;" horiz-adv-x="1096" d="M38 437v587h161v-565q0 -172 54.5 -250.5t170.5 -78.5q78 -1 141.5 44t117.5 133v717h161v-1024h-161v99q-62 -65 -130.5 -95.5t-141.5 -27.5q-373 0 -373 461zM163 1100l254 387h83l251 -387h-169l-126 192l-37 -57l-37 -57l-28 -41l-25 -37h-166z" />
<glyph unicode="&#xfc;" horiz-adv-x="1096" d="M38 437v587h161v-565q0 -172 54.5 -250.5t170.5 -78.5q78 -1 141.5 44t117.5 133v717h161v-1024h-161v99q-62 -65 -130.5 -95.5t-141.5 -27.5q-373 0 -373 461zM193 1204q0 23 9 41.5t23 32t32.5 21t38.5 7.5q21 0 40 -7.5t34 -21t24 -32.5t9 -41t-8 -41t-22 -33 t-33.5 -22t-41.5 -8q-20 0 -39 7.5t-33.5 21t-23.5 32.5t-9 43zM502 1204q0 23 9 41.5t23 32t32.5 21t37.5 7.5q21 0 40.5 -7.5t34.5 -21t24.5 -32.5t9.5 -41t-8.5 -41t-23 -33t-34 -22t-41.5 -8q-20 0 -38.5 7.5t-33 21t-23.5 32.5t-9 43z" />
<glyph unicode="&#xfd;" horiz-adv-x="928" d="M8 1024h173l287 -771l150 385l151 386h176l-483 -1195q-29 -69 -60 -120.5t-68 -85.5t-82 -51t-102 -17q-26 0 -56.5 7.5t-66.5 20.5l53 165q22 -17 39.5 -24.5t34.5 -7.5q44 0 80 34t65 100l41 96l40 98l-31 83q-15 41 -32 83l-59 154l-57 154v-1l-48 125l-50 131 l-49 130zM166 1100l271 380h191l-288 -380h-174z" />
<glyph unicode="&#xfe;" horiz-adv-x="966" d="M47 -435v1915h161v-570q19 20 44 39.5t48 35.5q54 31 110 47t119 16q96 0 175.5 -37.5t135.5 -103.5q51 -66 80 -157.5t29 -203.5q0 -124 -32.5 -227.5t-90.5 -180.5q-64 -77 -149.5 -119.5t-188.5 -42.5q-85 0 -155 29t-125 84v-524h-161zM208 284q80 -154 287 -154 q60 0 114 32t92 78q37 56 60.5 135t23.5 169q0 81 -20 147t-56 113q-36 42 -84.5 66t-107.5 24q-207 -1 -309 -205v-405z" />
<glyph unicode="&#xff;" horiz-adv-x="922" d="M-17 1024h174l286 -770l71 184l74 187l79 201l78 198h175l-484 -1195q-29 -69 -59.5 -120.5t-67.5 -85.5t-82.5 -51t-102.5 -17q-23 0 -54.5 7.5t-66.5 19.5l55 164q37 -30 70 -30q20 0 40 11t39 29t36 42.5t31 51.5l23 54l23 56q10 22 18 42l17 42l-37 96l-36 96 l-54 140l-53 141l-48 125l-50 132l-49 130zM195 1204q0 23 9 41.5t23 32t32.5 21t37.5 7.5q21 0 40.5 -7.5t34.5 -21t24 -32.5t9 -41q0 -45 -30.5 -74.5t-75.5 -29.5q-20 0 -38.5 7.5t-33 21t-23.5 32.5t-9 43zM503 1204q0 23 9 41.5t23 32t32.5 21t38.5 7.5q21 0 40.5 -7.5 t34.5 -21t24 -32.5t9 -41q0 -45 -31 -74.5t-76 -29.5q-20 0 -38.5 7.5t-33 21t-23.5 32.5t-9 43z" />
<glyph unicode="&#x178;" horiz-adv-x="1106" d="M-27 1434h190l328 -677v1q3 -5 5.5 -10.5t6.5 -13.5l5 11q2 6 5 11l89 178l93 181v-1l29 58l30 61l54 104l49 97h188l-464 -891v-543h-169v543l-42 85l-43 86l-64 128l-63 130l-57 114l-59 120l-58 118zM174 1551q0 23 9 41.5t23 32t32.5 21t38.5 7.5q21 0 40 -7.5 t34 -21t24 -32.5t9 -41t-8 -41t-22 -33t-33.5 -22t-41.5 -8q-20 0 -39 7.5t-33.5 21t-23.5 32.5t-9 43zM483 1551q0 23 9 41.5t23 32t32.5 21t37.5 7.5q21 0 40.5 -7.5t34.5 -21t24.5 -32.5t9.5 -41t-8.5 -41t-23 -33t-34 -22t-41.5 -8q-20 0 -38.5 7.5t-33 21t-23.5 32.5 t-9 43z" />
<glyph unicode="&#x2c6;" horiz-adv-x="539" d="M-35 1100l254 387h83l251 -387h-169l-126 192l-37 -56l-37 -58l-28 -40l-25 -38h-166z" />
<glyph unicode="&#x2dc;" horiz-adv-x="730" d="M26 1100q0 72 13.5 124t38.5 84q27 35 64.5 54t83.5 19q78 0 173 -77q51 -46 84 -46q21 0 36 35t15 101h144q0 -65 -14.5 -117.5t-41 -89.5t-64 -56.5t-84.5 -19.5q-38 0 -80.5 21t-85.5 58q-46 42 -84 42q-57 0 -57 -132h-141z" />
<glyph unicode="&#x2000;" horiz-adv-x="948" />
<glyph unicode="&#x2001;" horiz-adv-x="1897" />
<glyph unicode="&#x2002;" horiz-adv-x="948" />
<glyph unicode="&#x2003;" horiz-adv-x="1897" />
<glyph unicode="&#x2004;" horiz-adv-x="632" />
<glyph unicode="&#x2005;" horiz-adv-x="474" />
<glyph unicode="&#x2006;" horiz-adv-x="316" />
<glyph unicode="&#x2007;" horiz-adv-x="316" />
<glyph unicode="&#x2008;" horiz-adv-x="237" />
<glyph unicode="&#x2009;" horiz-adv-x="379" />
<glyph unicode="&#x200a;" horiz-adv-x="105" />
<glyph unicode="&#x2010;" horiz-adv-x="708" d="M48 514v159h583v-159h-583z" />
<glyph unicode="&#x2011;" horiz-adv-x="708" d="M48 514v159h583v-159h-583z" />
<glyph unicode="&#x2012;" horiz-adv-x="708" d="M48 514v159h583v-159h-583z" />
<glyph unicode="&#x2013;" horiz-adv-x="1167" d="M50 514v159h1024v-159h-1024z" />
<glyph unicode="&#x2014;" horiz-adv-x="2190" d="M68 514v159h1972v-159h-1972z" />
<glyph unicode="&#x2018;" horiz-adv-x="262" d="M-34 912l166 492h148l-136 -492h-178z" />
<glyph unicode="&#x2019;" horiz-adv-x="261" d="M-27 912l137 492h177l-169 -492h-145z" />
<glyph unicode="&#x201a;" horiz-adv-x="261" d="M-27 -209l137 488h179l-170 -488h-146z" />
<glyph unicode="&#x201c;" horiz-adv-x="556" d="M-6 912l166 492h148l-137 -492h-177zM222 912l169 492h146l-137 -492h-178z" />
<glyph unicode="&#x201d;" horiz-adv-x="557" d="M-1 912l138 492h179l-172 -492h-145zM227 912l136 492h180l-168 -492h-148z" />
<glyph unicode="&#x201e;" horiz-adv-x="556" d="M-1 -212l138 491h179l-171 -491h-146zM228 -212l136 491h179l-168 -491h-147z" />
<glyph unicode="&#x2022;" horiz-adv-x="581" d="M17 697q0 54 20 100t58 85q80 77 186 77q108 0 185 -76q75 -78 75 -186q0 -106 -75 -180q-39 -38 -84.5 -57t-100.5 -19q-106 0 -186 77q-78 78 -78 179z" />
<glyph unicode="&#x2026;" horiz-adv-x="1216" d="M48 99q0 48 32 79.5t80 31.5q24 0 44.5 -8.5t35.5 -23t24 -35t9 -44.5q0 -25 -9 -46t-24 -36t-35.5 -23.5t-44.5 -8.5t-44.5 8.5t-35.5 23.5t-23.5 36t-8.5 46zM470 99q0 24 8.5 44.5t23.5 35t35.5 23t44.5 8.5t45 -8.5t36 -23t24 -35t9 -44.5q0 -25 -9 -46t-24 -36 t-36 -23.5t-45 -8.5q-48 0 -80 32t-32 82zM897 99q0 48 32 79.5t80 31.5q23 0 44 -8.5t36.5 -23t25 -35t9.5 -44.5q0 -25 -9.5 -46t-25 -36t-36.5 -23.5t-44 -8.5q-24 0 -44.5 8.5t-35.5 23.5t-23.5 36t-8.5 46z" />
<glyph unicode="&#x202f;" horiz-adv-x="379" />
<glyph unicode="&#x2039;" horiz-adv-x="447" d="M-32 536l288 356h202l-291 -355l50 -62l53 -64l46 -56l52 -62l48 -59l40 -49h-199z" />
<glyph unicode="&#x203a;" horiz-adv-x="447" d="M-30 185l296 357l-86 102l-90 104l-28 34l-32 39l-32 39l-26 32h204l286 -350l-285 -357h-207z" />
<glyph unicode="&#x205f;" horiz-adv-x="474" />
<glyph unicode="&#x20ac;" horiz-adv-x="947" d="M2 463v154h124q-1 14 -0.5 27.5t0.5 28.5q0 28 -0.5 45t1.5 42h-125v153h144q21 115 64 207.5t105 159.5q68 70 150 108t178 38q63 0 127 -17t128 -47v-185q-81 47 -146 71t-116 24q-57 0 -110.5 -26.5t-97.5 -71.5h1q-39 -46 -69.5 -111t-47.5 -150h495v-153h-517 q-1 -15 -0.5 -35t0.5 -40v-26v-11v-8v-9v-14h517v-154h-496q16 -78 44 -139.5t63 -103.5q40 -39 91.5 -64.5t105.5 -25.5q103 0 283 121v-185q-149 -90 -292 -90q-91 0 -168 35.5t-140 102.5q-58 63 -98.5 150t-57.5 199h-140z" />
<glyph unicode="&#x2122;" horiz-adv-x="1424" d="M31 1255v149h563v-149h-207v-540h-151v540h-205zM608 715v689h169l184 -449l29 71l32 70q14 35 30.5 71.5t30.5 71.5l37 84l35 81h162v-689h-153v347l-52 -118l-51 -118l-25 -55l-23 -56h-113l-141 341v-341h-151z" />
<glyph unicode="&#xe000;" horiz-adv-x="1025" d="M0 0v1025h1025v-1025h-1025z" />
<glyph unicode="&#xfb03;" horiz-adv-x="1448" d="M26 871v153h171v127q0 166 85 254q88 90 216 90q66 0 185 -58l-71 -143q-30 23 -59.5 35t-58.5 12q-136 0 -136 -198v-119h362v127q0 79 22 144t64 110q44 43 98 66.5t118 23.5q68 0 184 -58l-71 -143q-31 23 -59.5 35t-57.5 12q-136 0 -136 -198v-119h470v-1024h-160 v871h-310v-871h-162v871h-362v-871h-161v871h-171z" />
<glyph unicode="&#xfb04;" horiz-adv-x="1708" d="M34 871v153h171v127q0 83 22 146t64 108q88 90 216 90q69 0 185 -57l-73 -144q-30 23 -59 35t-57 12q-137 0 -137 -198v-119h364v127q0 80 22 144.5t64 109.5q44 43 98 66.5t117 23.5q297 0 332 -221v-992q0 -78 22 -113t76 -35q22 0 59 15t93 47v-169q-49 -24 -89.5 -35 t-73.5 -11q-248 0 -248 291v992q-14 35 -58.5 56t-115.5 21q-137 0 -137 -198v-119h251v-153h-251v-871h-161v871h-364v-871h-161v871h-171z" />
</font>
</defs>
</svg>
