<?xml version="1.0" standalone="no"?>
<!DOCTYPE svg PUBLIC "-//W3C//DTD SVG 1.1//EN" "http://www.w3.org/Graphics/SVG/1.1/DTD/svg11.dtd" >
<svg xmlns="http://www.w3.org/2000/svg">
<metadata></metadata>
<defs>
<font id="homiziomedium" horiz-adv-x="1227" >
<font-face units-per-em="2048" ascent="1638" descent="-410" />
<missing-glyph horiz-adv-x="561" />
<glyph unicode="AE" horiz-adv-x="1587" d="M-6 0l697 1434h818v-151h-549v-490h510v-144h-510v-505h580v-144h-732v428h-435l-55 -114l-58 -117l-48 -100l-48 -97h-170zM441 573h367v710h-28l-82 -173l-82 -170l-80 -170l-83 -172q-4 -8 -5.5 -12t-6.5 -13z" />
<glyph unicode="ae" horiz-adv-x="1826" d="M240 281q8 83 43.5 146t89 105.5t121 64t140.5 21.5q60 0 121 -15t118 -44q0 10 -0.5 20.5t-0.5 20.5v58q-5 55 -20.5 101.5t-41.5 80.5t-61.5 52.5t-80.5 18.5q-164 -2 -299 -126l-95 97q159 168 402 166q163 0 232 -80q19 -21 36.5 -47t30.5 -49q122 176 360 176 q193 0 299 -139q102 -132 102 -362v-67h-715q5 -81 25.5 -149.5t59.5 -115.5q84 -102 231 -102q151 0 297 117l70 -116q-189 -138 -385 -138q-128 0 -219.5 48.5t-150.5 145.5q-47 -52 -92 -89t-91 -60t-95 -34t-103 -11q-73 0 -133.5 22.5t-105.5 64.5q-89 87 -89 218z M389 282q0 -76 48 -122q26 -23 60 -35t79 -12q128 0 208 64q75 61 87 103v138q-58 37 -115 53t-112 16q-53 0 -100 -15t-81.5 -42t-54 -65t-19.5 -83zM1030 616h557q-11 143 -76.5 219t-179.5 76q-122 0 -205 -83q-72 -78 -96 -212z" />
<glyph unicode="OE" horiz-adv-x="1755" d="M42 702q0 167 48.5 306t138.5 242q94 99 224.5 153t291.5 54q66 0 134 -6t126 -17h667v-145h-549v-494h509v-144h-509v-507h580v-144h-700q-37 -5 -75.5 -9.5t-74.5 -7.5t-68 -5t-56 -2q-326 0 -507 204q-180 202 -180 522zM197 713q0 -131 37.5 -241t101.5 -191v1 q69 -78 167.5 -119.5t223.5 -41.5q116 0 244 24v1147q-59 11 -115 16t-117 5q-126 0 -224 -42t-172 -124h1q-74 -85 -110.5 -192.5t-36.5 -241.5z" />
<glyph unicode="oe" horiz-adv-x="1844" d="M54 506q0 129 34 227.5t103 170.5q139 144 359 144q154 0 271 -82q42 -31 75.5 -69t56.5 -86q64 112 161 174.5t225 62.5q96 0 170.5 -35t127.5 -103q49 -65 75.5 -156.5t26.5 -206.5v-67h-715q5 -80 26 -148.5t59 -115.5q83 -103 230 -103q155 0 327 136l60 -127 q-106 -72 -205 -109t-195 -37q-131 0 -225.5 61t-152.5 176q-63 -117 -165 -177t-243 -60q-226 0 -358 151q-128 146 -128 379zM202 504q0 -90 22 -160.5t70 -124.5q91 -106 249 -106q80 0 142 26.5t105 76.5q42 53 65 127.5t23 168.5q0 195 -86 297t-245 102 q-158 0 -252 -106q-48 -53 -70.5 -128t-22.5 -173zM1033 616h556q-11 143 -76.5 219t-179.5 76q-63 0 -114 -21.5t-92 -62.5q-35 -38 -59 -92.5t-35 -118.5z" />
<glyph unicode="&#xfb01;" horiz-adv-x="856" d="M6 888v136h173v139q0 164 85 252q86 89 213 89q69 0 175 -53l-63 -127q-57 43 -116 43q-149 0 -149 -212v-131h481v-1024h-144v888h-337v-888h-145v888h-173z" />
<glyph unicode="&#xfb02;" horiz-adv-x="1117" d="M18 888v136h174v139q0 166 85 252q86 89 213 89q294 0 327 -217v-1009q0 -85 25 -123t85 -38q25 0 60.5 13t84.5 42v-148q-45 -23 -84 -33t-72 -10q-243 0 -243 286v1014q-16 39 -63 62.5t-124 23.5q-150 0 -150 -212v-131h256v-136h-256v-888h-144v888h-174z" />
<glyph horiz-adv-x="2048" />
<glyph horiz-adv-x="2048" />
<glyph unicode="&#xd;" horiz-adv-x="199" />
<glyph unicode=" "  horiz-adv-x="561" />
<glyph unicode="&#x09;" horiz-adv-x="561" />
<glyph unicode="&#xa0;" horiz-adv-x="561" />
<glyph unicode="!" horiz-adv-x="220" d="M4 88q0 47 29.5 75.5t74.5 28.5t75.5 -28.5t30.5 -75.5q0 -45 -30.5 -75t-75.5 -30t-74.5 30t-29.5 75zM28 1411h156l-8 -1030h-140z" />
<glyph unicode="&#x22;" horiz-adv-x="498" d="M51 1411h148l-9 -481h-130zM285 1411h148l-10 -481h-128z" />
<glyph unicode="#" horiz-adv-x="1136" d="M-2 492l33 132h261l16 70l15 66l15 64l15 69h-277l32 131h272l19 92l20 93l11 51l11 53l11 52q6 25 11 46h136l-85 -387h196l19 92l20 93q11 50 21.5 103t21.5 99h136l-85 -387h261l-32 -131h-255q-6 -31 -13.5 -62t-13.5 -59q-9 -38 -16 -71l-16 -77h268l-31 -132h-264 l-15 -70l-16 -72l-26 -119l-25 -115h-137l83 376h-192l-16 -70l-16 -72l-26 -119l-25 -115h-136l82 376h-268zM429 624h191q8 37 16 70l16 66l14 64l15 69h-192l-14 -62q-8 -31 -14 -59l-15 -71z" />
<glyph unicode="$" horiz-adv-x="785" d="M9 88v165q85 -54 161.5 -83t147.5 -34v519q-91 52 -151 98.5t-92 85.5q-66 85 -66 201q0 69 23 130t67 112q40 47 96.5 78.5t122.5 45.5v175h130v-170q68 -2 128.5 -14.5t117.5 -35.5v-167q-60 35 -123 55t-123 23v-527q81 -45 140.5 -88.5t93.5 -85.5q74 -89 74 -206 q0 -70 -23 -131.5t-65 -109.5q-39 -43 -97 -73t-123 -44v-204h-130v197q-81 5 -160.5 27t-148.5 61zM157 1051q0 -38 8.5 -69.5t28.5 -57.5q34 -47 124 -104v443q-68 -18 -110 -66q-26 -29 -38.5 -66t-12.5 -80zM448 146q82 23 121 75t39 127q0 36 -11 70t-29 60 q-19 24 -46 47.5t-74 52.5v-432z" />
<glyph unicode="%" horiz-adv-x="1551" d="M42 1059q0 176 98 277q96 102 254 102q75 0 137.5 -26.5t107.5 -75.5q45 -50 68 -118.5t23 -156.5q0 -158 -94 -266q-94 -106 -252 -106q-161 0 -251 105h1q-92 104 -92 265zM186 1057q0 -111 54 -175v1q53 -62 146 -62q46 0 83 17t63 46q26 33 40.5 78t14.5 101 q0 119 -52.5 179.5t-142.5 60.5q-97 0 -151.5 -64.5t-54.5 -181.5zM242 -31l849 1440h157l-845 -1440h-161zM782 348q0 90 25 159t74 120q51 50 112.5 75t139.5 25q153 0 247 -102q90 -102 90 -276q0 -157 -94 -265q-97 -108 -252 -108q-156 0 -252 105q-44 51 -67 118 t-23 149zM926 346q0 -56 13 -99.5t41 -75.5q53 -62 146 -62q48 0 84.5 16t62.5 47q28 33 41.5 78t13.5 101q0 120 -52.5 180t-144.5 60q-93 0 -148 -63q-57 -64 -57 -182z" />
<glyph unicode="&#x26;" horiz-adv-x="1343" d="M40 369q0 263 296 410q-64 81 -99.5 161.5t-35.5 151.5q0 142 101 242q103 100 261 100q146 0 232 -86t86 -216q0 -70 -21.5 -129.5t-63.5 -108.5q-38 -45 -91 -84t-128 -74l71 -74l81 -81l95 -93l113 -108q97 161 103 393h149q-4 -139 -42.5 -261.5t-108.5 -232.5 l82 -79l82 -79l76 -71l58 -53l-223 3l-169 166q-190 -190 -454 -190q-106 0 -188 28t-142 82q-120 111 -120 283zM189 375q0 -112 80 -189q41 -37 98.5 -55t130.5 -18q99 0 183.5 37t163.5 114l-136 133l-113 110l-91 91l-71 75q-115 -57 -180 -132.5t-65 -165.5zM349 1090 q0 -106 126 -250q73 33 121.5 65.5t78.5 64.5q56 62 56 151q0 82 -50 128q-51 48 -127 48q-94 0 -149 -60q-56 -59 -56 -147z" />
<glyph unicode="'" horiz-adv-x="233" d="M38 1411h148l-8 -481h-130z" />
<glyph unicode="(" horiz-adv-x="461" d="M7 543q0 521 305 868h171q-332 -381 -332 -866q0 -459 324 -853h-167q-301 352 -301 851z" />
<glyph unicode=")" horiz-adv-x="462" d="M-33 1411h169q305 -350 305 -868q0 -502 -301 -851h-165q322 394 322 853q0 244 -82 459t-248 407z" />
<glyph unicode="*" horiz-adv-x="740" d="M-2 1071l41 139l262 -93l-2 32l-2 33q-2 27 -3 57l-2 60l-4 59q-1 28 -2 53h147l-13 -294l132 48l128 45l42 -139l-264 -67l35 -46l35 -48l57 -76l53 -72l-120 -82l-157 250l-38 -59l-39 -61l-42 -67l-41 -63l-118 82l179 242l-134 34z" />
<glyph unicode="+" horiz-adv-x="917" d="M-11 524v136h389v390h136v-390h389v-136h-389v-389h-136v389h-389z" />
<glyph unicode="," horiz-adv-x="283" d="M-17 -234l159 506h159l-186 -506h-132z" />
<glyph unicode="-" horiz-adv-x="708" d="M56 524v142h574v-142h-574z" />
<glyph unicode="." horiz-adv-x="278" d="M31 88q0 47 30 75.5t74 28.5t75.5 -28.5t31.5 -75.5q0 -22 -8.5 -41t-23 -33.5t-34 -22.5t-41.5 -8q-44 0 -74 30t-30 75z" />
<glyph unicode="/" horiz-adv-x="797" d="M-29 -225l679 1636h153l-684 -1636h-148z" />
<glyph unicode="0" horiz-adv-x="986" d="M41 676q0 376 118 567t338 191q420 0 420 -723q0 -177 -28.5 -312t-86.5 -228q-119 -195 -334 -195q-202 0 -317 186q-110 177 -110 514zM189 688q0 -137 21 -248.5t58 -186.5q38 -66 92 -103t119 -37q63 0 116 39t91 104q38 78 60 190t22 252q0 599 -279 599 q-142 0 -221 -152t-79 -457z" />
<glyph unicode="1" horiz-adv-x="524" d="M-22 1159v147l475 163v-1469h-144v1276l-39 -14l-41 -14l-65 -23l-66 -23l-64 -23z" />
<glyph unicode="2" horiz-adv-x="913" d="M35 0v133l376 401l85 93l73 85q33 40 57.5 72.5t38.5 54.5q59 93 59 209q0 118 -65.5 183.5t-187.5 65.5q-170 0 -367 -175v180q174 132 378 132q186 0 287 -102q52 -52 77.5 -118.5t25.5 -152.5q0 -148 -70 -267q-17 -27 -45 -65t-65 -83l-84 -98l-97 -106l-145 -153 l-145 -153h644v-136h-830z" />
<glyph unicode="3" horiz-adv-x="855" d="M9 60v167q192 -114 321 -114q76 0 135 18.5t101 56.5q83 77 83 198q0 137 -98 207t-281 70h-134v136h122q168 0 255 69t87 197q0 109 -61.5 170.5t-179.5 61.5q-117 0 -296 -112v163q172 86 309 86q173 0 273 -95q104 -94 104 -251q0 -122 -49.5 -208.5t-147.5 -135.5 q90 -29 152 -95q45 -49 69 -111.5t24 -138.5q0 -192 -132 -308q-66 -57 -149.5 -86t-187.5 -29q-159 0 -319 84z" />
<glyph unicode="4" horiz-adv-x="982" d="M-11 384v108l637 919h131v-892h180v-135h-180v-384h-144v384h-624zM173 519h440v633l-220 -316zM613 1152q9 15 7.5 12t-4.5 -8q-1 -2 -3 -4z" />
<glyph unicode="5" horiz-adv-x="823" d="M31 38v167q166 -92 288 -92q156 0 240 83t84 224q0 301 -347 301q-73 -1 -129.5 -15.5t-98.5 -46.5v752h667v-137h-523v-421q41 3 69 4t47 1q114 0 201 -29t145.5 -84t88 -134.5t29.5 -179.5q0 -202 -126 -328q-127 -127 -355 -127q-77 0 -147 15t-133 47z" />
<glyph unicode="6" horiz-adv-x="945" d="M37 623q0 184 35.5 329t106.5 255q147 227 412 227q60 0 116 -11t110 -31v-158q-69 32 -124.5 47.5t-103.5 15.5q-91 0 -165 -45.5t-128 -130.5q-45 -74 -73 -167t-36 -202q55 75 132 113.5t178 38.5q88 0 161.5 -33.5t127.5 -96.5q53 -63 80.5 -142.5t27.5 -173.5 q0 -106 -29.5 -191.5t-91.5 -153.5q-123 -137 -311 -137q-203 0 -316 170q-109 166 -109 477zM194 472q0 -72 20.5 -137.5t57.5 -118.5q37 -46 88.5 -74.5t108.5 -28.5q118 0 196 91q42 48 61 106t19 130q0 148 -74 240q-36 42 -84.5 64.5t-109.5 22.5q-60 0 -111 -23 t-92 -68h1q-39 -46 -60 -98t-21 -106z" />
<glyph unicode="7" horiz-adv-x="888" d="M-8 1274v137h873v-59l-551 -1352h-157l525 1274h-690z" />
<glyph unicode="8" horiz-adv-x="951" d="M37 348q0 251 271 387q-225 127 -225 342q0 153 111 255t286 102q161 0 261 -94q102 -93 102 -241q0 -229 -236 -357q140 -63 210 -157.5t70 -223.5q0 -172 -119 -278q-60 -53 -142.5 -80t-191.5 -27q-90 0 -161.5 26t-126.5 77q-109 105 -109 269zM184 351 q0 -102 74 -171q38 -32 90 -49.5t115 -17.5t115 17.5t90 49.5q33 36 52.5 78.5t19.5 90.5q0 112 -71 185.5t-216 124.5q-146 -60 -207 -130q-62 -68 -62 -178zM231 1090q0 -178 227 -279q237 99 237 277q0 98 -62 154q-61 55 -166 55q-48 0 -91.5 -16t-78.5 -45l1 1 q-32 -29 -49.5 -66t-17.5 -81z" />
<glyph unicode="9" horiz-adv-x="946" d="M24 958q0 212 123 344q126 132 314 132q97 0 175.5 -43.5t133.5 -123.5q55 -81 83.5 -200t28.5 -274q0 -193 -36.5 -344t-105.5 -257q-72 -103 -178 -159.5t-241 -56.5q-51 0 -106.5 11t-118.5 34v159q144 -67 227 -67q184 0 287.5 136.5t120.5 406.5 q-104 -141 -305 -141q-89 0 -162 31t-129 94h1q-112 127 -112 318zM173 977q0 -155 77 -241q76 -85 197 -85q112 0 194 82q81 84 81 198q0 167 -79 267q-75 99 -194 99q-120 0 -196 -90q-80 -90 -80 -230z" />
<glyph unicode=":" horiz-adv-x="253" d="M19 88q0 47 30 75.5t75 28.5t75.5 -28.5t30.5 -75.5q0 -45 -30.5 -75t-75.5 -30t-75 30t-30 75zM19 938q0 45 30 74t75 29t75.5 -29t30.5 -74t-30.5 -75.5t-75.5 -30.5t-75 30.5t-30 75.5z" />
<glyph unicode=";" horiz-adv-x="294" d="M-24 -234l159 506h160l-187 -506h-132zM90 938q0 45 28.5 74t75.5 29q44 0 74.5 -29t30.5 -74q0 -22 -8.5 -41.5t-22.5 -33.5t-33 -22.5t-41 -8.5q-47 0 -75.5 30.5t-28.5 75.5z" />
<glyph unicode="&#x3c;" horiz-adv-x="910" d="M-16 559v50l844 474v-154l-611 -342l181 -89l183 -90l124 -61l123 -61v-156z" />
<glyph unicode="=" horiz-adv-x="1001" d="M62 341v138h913v-138h-913zM62 708v137h913v-137h-913z" />
<glyph unicode="&#x3e;" horiz-adv-x="909" d="M56 130v156l611 301l-147 81l-149 83l-158 90l-157 88v154l843 -474v-50z" />
<glyph unicode="?" horiz-adv-x="754" d="M-21 1233q124 195 397 201q76 0 141.5 -22t113.5 -64t75 -102.5t27 -138.5q0 -59 -16 -106.5t-41.5 -87.5t-58.5 -75l-65 -67q-48 -45 -78 -75.5t-47 -55t-23.5 -47t-6.5 -50.5q0 -39 10.5 -84.5t22.5 -82.5h-136q-13 32 -22.5 78.5t-9.5 87.5q0 48 13 88t36 75t54 67.5 t68 64.5v-1q28 25 55.5 53.5t49 60.5t34.5 69t13 80q0 45 -15.5 81t-43 60.5t-66.5 38t-85 13.5q-82 0 -155 -33.5t-120 -94.5zM244 88q0 47 29.5 75.5t73.5 28.5q46 0 76.5 -28.5t30.5 -75.5q0 -22 -8 -41t-22.5 -33.5t-34 -22.5t-42.5 -8q-44 0 -73.5 30t-29.5 75z" />
<glyph unicode="@" horiz-adv-x="1701" d="M48 610q0 350 231 587t576 237q173 0 309.5 -51t241.5 -152q209 -203 209 -514q0 -117 -27.5 -213.5t-80.5 -170.5q-54 -75 -124.5 -115t-151.5 -40q-94 0 -154.5 40.5t-84.5 121.5q-94 -162 -266 -162q-147 0 -232 104q-83 101 -83 272q0 225 114 375q116 155 306 155 q81 0 145 -44q11 -8 20.5 -16t17.5 -16q0 3 0.5 5t0.5 5q1 29 6 52h141l-51 -583q1 -83 30 -128t85 -45q103 0 169 105q36 54 54 126.5t18 161.5q0 270 -162 431q-164 159 -459 159q-67 0 -132 -14.5t-125 -41t-113.5 -62.5t-98.5 -79q-85 -98 -133 -224t-48 -266 q0 -299 172 -475q171 -176 471 -176q227 0 409 90l83 -103q-137 -62 -261.5 -93t-240.5 -31q-353 0 -567 219q-214 222 -214 569zM559 562q0 -115 46.5 -181.5t130.5 -66.5q55 0 99.5 30t78.5 87q35 63 54 143.5t19 176.5q0 97 -42.5 146.5t-117.5 49.5q-122 0 -193 -102 q-75 -105 -75 -283z" />
<glyph unicode="A" d="M-3 0l541 1434h130l535 -1434h-167l-157 428h-558l-79 -214l-79 -214h-166zM376 573h448l-218 598v-1l-4 9q-1 4 -3 7l-6 -14v1l-57 -157l-55 -150l-27 -74l-25 -70l-26 -72z" />
<glyph unicode="B" horiz-adv-x="947" d="M58 0v1434h390q172 0 278 -95q106 -97 106 -252q0 -108 -46 -191.5t-134 -132.5q92 -26 155 -94q91 -97 91 -247q0 -185 -121 -304q-121 -118 -321 -118h-398zM210 144h227q149 0 227 70t78 200q0 256 -358 256h-174v-526zM210 815h163q140 0 222 69h-1q81 69 81 186 q0 219 -264 219h-201v-474z" />
<glyph unicode="C" horiz-adv-x="1193" d="M33 689q0 346 202 557q201 211 511 211q115 -2 218 -43t197 -120l-119 -108q-69 64 -143.5 95.5t-154.5 31.5q-59 0 -114.5 -12t-106.5 -34t-96.5 -53t-83.5 -68q-75 -84 -114 -196t-39 -251q0 -269 145 -424q146 -154 373 -154q162 0 298 127l119 -108 q-94 -79 -199 -120.5t-226 -43.5q-295 0 -482 198q-92 100 -138.5 227.5t-46.5 287.5z" />
<glyph unicode="D" horiz-adv-x="1220" d="M60 0v1434h374q357 0 542.5 -178t185.5 -520q0 -326 -200 -532q-200 -204 -548 -204h-354zM213 144h188q144 0 257.5 39t191.5 111q76 75 115.5 185.5t39.5 253.5q0 556 -586 556h-206v-1145z" />
<glyph unicode="E" horiz-adv-x="785" d="M55 0v1434h701v-145h-548v-494h509v-144h-509v-507h580v-144h-733z" />
<glyph unicode="F" horiz-adv-x="748" d="M54 0v1434h701v-145h-548v-504h509v-144h-509v-641h-153z" />
<glyph unicode="G" horiz-adv-x="1223" d="M32 697q0 323 195 541q195 219 521 219q219 -4 404 -162l-119 -109q-136 127 -298 127q-247 0 -398 -168q-75 -85 -111.5 -193t-36.5 -241q0 -136 36 -246t104 -189h-1q70 -75 165.5 -115t213.5 -40q86 0 159 16.5t138 51.5v409h-324v145h477v-635q-237 -132 -467 -132 q-295 0 -477 201q-181 199 -181 520z" />
<glyph unicode="H" horiz-adv-x="1175" d="M57 0v1434h154v-629h729v629h153v-1434h-153v660h-729v-660h-154z" />
<glyph unicode="I" horiz-adv-x="259" d="M47 0v1434h153v-1434h-153z" />
<glyph unicode="J" horiz-adv-x="549" d="M-35 -197l59 142q26 -11 50 -16.5t47 -5.5q117 0 168.5 93t51.5 291v1127h153v-1129q0 -528 -375 -528q-29 0 -66.5 6t-87.5 20z" />
<glyph unicode="K" horiz-adv-x="997" d="M55 0v1434h153v-602l51 58l52 58l109 122l114 124l111 124l106 116h201l-629 -696l255 -282l260 -286l37 -42l40 -44l39 -44l37 -40h-212l-571 641v-641h-153z" />
<glyph unicode="L" horiz-adv-x="750" d="M52 0v1434h153v-1290h552v-144h-705z" />
<glyph unicode="M" horiz-adv-x="1490" d="M59 0v1434h134l525 -1134v-1q1 -4 2 -7.5t2 -5.5l2 1l7 -13q2 -10 3 -14q3 10 8 22l11 28l515 1124h133v-1434h-149v1006l3 63l-246 -536l-243 -533h-66l-490 1069q0 -11 0.5 -21t1.5 -19v-1029h-153z" />
<glyph unicode="N" horiz-adv-x="1235" d="M55 0v1434h117l822 -1114q2 -4 6 -8v1122h153v-1434h-110l-829 1123q-2 2 -3 4t-3 4v-1131h-153z" />
<glyph unicode="O" horiz-adv-x="1447" d="M36 702q0 168 49 306t137 241q93 100 221.5 154t286.5 54q146 0 263.5 -49.5t206.5 -151.5q181 -197 181 -518q0 -352 -184 -557q-187 -205 -494 -205q-304 0 -486 203q-181 203 -181 523zM192 713q0 -270 140 -433q139 -159 369 -159q121 0 217 41t166 116h-1 q69 79 105.5 192t36.5 253t-34 248.5t-104 186.5q-138 155 -374 155q-227 0 -374 -164q-147 -165 -147 -436z" />
<glyph unicode="P" horiz-adv-x="884" d="M52 0v1434h361q227 0 346 -105t119 -310q0 -204 -134 -336q-68 -66 -159.5 -99t-211.5 -33h-169v-551h-152zM204 697h167q172 0 261.5 81.5t89.5 229.5q0 281 -326 281h-192v-592z" />
<glyph unicode="Q" horiz-adv-x="1423" d="M23 702q0 168 48.5 306t136.5 241q93 100 221.5 154t286.5 54q292 0 471 -201q181 -199 181 -518q0 -172 -46.5 -311t-131.5 -239q-85 -91 -193.5 -144.5t-235.5 -64.5q2 -76 28.5 -107.5t83.5 -31.5q46 0 107 38l47 -129q-102 -47 -165 -47q-236 0 -248 278 q-128 11 -232 62t-187 145h1q-173 196 -173 515zM178 713q0 -270 140 -433q69 -79 160.5 -119t209.5 -40q120 0 216 41t167 116l-1 -1q68 80 104.5 193t36.5 253t-34 248.5t-104 186.5q-69 77 -161 116t-213 39q-227 0 -374 -164q-147 -165 -147 -436z" />
<glyph unicode="R" horiz-adv-x="968" d="M51 0v1434h411q192 0 307 -107q112 -106 112 -280q0 -160 -92 -267q-42 -49 -94 -81t-123 -49l74 -130l75 -134l55 -97l58 -99l56 -98l52 -92h-174l-346 613h-217v-613h-154zM205 757h207q145 0 231 75q82 73 82 206q0 118 -75 184.5t-218 66.5h-227v-532z" />
<glyph unicode="S" horiz-adv-x="851" d="M3 112l96 117q132 -107 260 -107h5q144 0 219 58q76 60 76 166q0 45 -13 83t-36 65q-29 29 -89.5 72.5t-146.5 93.5q-215 128 -274 212q-61 89 -61 207q0 160 123 268q124 110 321 110q93 -4 178.5 -38t164.5 -97l-95 -116q-67 54 -132 80.5t-128 26.5q-130 0 -203 -64 q-72 -63 -72 -159q0 -45 12.5 -83.5t35.5 -64.5q15 -14 38.5 -33t54.5 -40l68 -45l75 -46q94 -54 162 -106.5t103 -96.5q70 -90 70 -212q0 -171 -120 -279q-117 -106 -345 -106h-4h-1q-92 4 -177.5 37.5t-164.5 96.5z" />
<glyph unicode="T" horiz-adv-x="946" d="M-10 1289v145h946v-145h-396v-1289h-153v1289h-397z" />
<glyph unicode="U" horiz-adv-x="1125" d="M44 558v876h153v-863q0 -450 360 -450q348 0 348 437v876h152v-855q0 -603 -518 -603q-495 0 -495 582z" />
<glyph unicode="V" horiz-adv-x="1205" d="M-5 1434h168l408 -1134l5 -13q2 -7 4 -15v-1q0 2 2 6h-1q2 8 5.5 16t6.5 16l430 1125h164l-556 -1434h-110z" />
<glyph unicode="W" horiz-adv-x="1820" d="M21 1434h169l319 -1122q2 -5 2.5 -9.5t2.5 -9.5q2 5 3 9.5t3 9.5l73 235l75 245l50 161l50 165l50 162l47 154h93l317 -1123q2 -5 2.5 -10t2.5 -10l76 274l76 276l83 298l81 295h165l-420 -1434h-124l-311 1055h1q-1 2 -3 8q-2 -6 -2 -8l-68 -216l-69 -220l-99 -313 l-96 -306h-123zM912 1095h1h-1z" />
<glyph unicode="X" horiz-adv-x="1126" d="M10 0l452 723l-164 273l-167 278l-49 81l-47 79h183l316 -532l14 -22q7 -13 13 -25v-1q3 5 4.5 8t4.5 8q5 8 9 15.5t9 15.5l315 533h179l-430 -709l108 -178l112 -185l112 -185l108 -177h-184l-325 538q-6 9 -14 23t-15 28q-8 -14 -16 -27l-16 -24l1 1l-82 -133l-82 -134 l-85 -137l-82 -135h-182z" />
<glyph unicode="Y" horiz-adv-x="1042" d="M-15 1434h171l329 -680l9 -18l12 -27l10 21q4 11 10 23l90 179l94 184l82 162l79 156h168l-463 -890v-544h-152v543l-107 216l-109 221l-114 230z" />
<glyph unicode="Z" horiz-adv-x="1064" d="M2 0v67l807 1222h-741v145h971v-64l-811 -1226h798v-144h-1024z" />
<glyph unicode="[" horiz-adv-x="390" d="M44 -308v1719h357v-137h-212v-1445h212v-137h-357z" />
<glyph unicode="\" horiz-adv-x="797" d="M-29 1411h154l678 -1636h-148z" />
<glyph unicode="]" horiz-adv-x="393" d="M-22 -171h212v1445h-212v137h357v-1719h-357v137z" />
<glyph unicode="^" horiz-adv-x="861" d="M-13 663l395 771h73l394 -771h-156l-274 545l-51 -102l-53 -103l-87 -171l-85 -169h-156z" />
<glyph unicode="_" horiz-adv-x="993" d="M52 -111h860v-142h-860v142z" />
<glyph unicode="`" horiz-adv-x="359" d="M-44 1489h170l262 -368h-155z" />
<glyph unicode="a" horiz-adv-x="875" d="M28 281q8 83 43 146t88.5 105.5t121.5 64t141 21.5q60 0 120.5 -15t117.5 -44q0 10 -0.5 20.5t-0.5 20.5v58q-5 55 -20.5 101.5t-41 80.5t-61.5 52.5t-82 18.5q-81 -1 -155.5 -32t-143.5 -94l-93 97q159 166 398 166h3q165 0 253 -100t88 -291v-657h-144v93 q-17 -15 -40.5 -31.5t-43.5 -28.5q-105 -57 -222 -57q-72 0 -132 22.5t-105 64.5q-89 87 -89 218zM177 282q0 -77 48 -122q49 -47 139 -47q63 0 115.5 16.5t92.5 47.5q33 28 56 54.5t30 46.5v140q-57 37 -115 53t-112 16q-53 0 -99.5 -15t-81 -42t-54 -65t-19.5 -83z" />
<glyph unicode="b" horiz-adv-x="979" d="M53 1489h144v-608q69 79 153.5 119t181.5 48q199 0 311 -139q54 -67 82 -157t28 -205q0 -254 -125 -411q-130 -160 -335 -160q-93 0 -167 34t-129 100v-111l-143 7zM197 290q28 -36 58 -68.5t66 -56.5t80 -38t99 -14q66 0 121.5 30t96.5 86q42 59 64.5 138.5t22.5 177.5 q0 171 -79 271q-37 45 -89 69t-113 26q-94 -10 -178 -56.5t-149 -131.5v-433z" />
<glyph unicode="c" horiz-adv-x="882" d="M27 495q0 118 38.5 220t105.5 177q72 75 165.5 115.5t204.5 40.5h6l298 -99l-83 -111q-119 73 -234 73q-155 0 -254 -114t-99 -297q0 -178 90 -283q89 -104 234 -104q136 0 259 89l81 -117q-95 -54 -180.5 -81.5t-163.5 -27.5q-210 0 -341 145q-63 72 -95 165t-32 209z " />
<glyph unicode="d" horiz-adv-x="979" d="M-2 547q0 112 29 204t80 158q56 66 135.5 102.5t175.5 36.5q69 0 122 -14t93.5 -37t70 -51.5t51.5 -56.5v600h144l-1 -1483l-143 -7v112q-56 -68 -129 -101.5t-168 -33.5q-205 0 -334 160q-126 156 -126 411zM147 545q0 -96 23 -177t63 -139q42 -54 97 -85t121 -31 q55 0 99 14t80.5 38t66.5 56.5t58 68.5v433q-65 84 -150 130.5t-178 57.5q-60 -2 -112.5 -26t-88.5 -69q-79 -100 -79 -271z" />
<glyph unicode="e" horiz-adv-x="951" d="M32 518q0 110 32 204.5t94 169.5q65 73 150.5 114.5t185.5 41.5q193 0 299 -139q102 -132 102 -362v-67h-715q5 -81 25.5 -150t58.5 -115q84 -102 232 -102q151 0 297 117l71 -116q-97 -69 -192 -103.5t-195 -34.5q-199 0 -323 145q-61 72 -91.5 169.5t-30.5 227.5z M188 616h557q-11 141 -76.5 218t-178.5 77q-123 0 -206 -83q-35 -38 -58.5 -91.5t-37.5 -120.5z" />
<glyph unicode="f" horiz-adv-x="635" d="M-6 888v136h174v139q0 166 85 252q86 89 213 89q71 0 175 -52l-62 -128q-57 43 -117 43q-150 0 -150 -212v-131h256v-136h-256v-888h-144v888h-174z" />
<glyph unicode="g" horiz-adv-x="996" d="M20 495q0 243 129 396q130 157 343 157q85 0 158.5 -33t125.5 -85v94h145v-924q0 -139 -32.5 -245.5t-94.5 -173.5q-63 -63 -163 -99t-227 -36q-74 0 -156.5 22.5t-178.5 70.5l98 117q110 -74 238 -74q371 0 371 395v36q-61 -72 -140 -104.5t-182 -32.5q-192 0 -314 140 q-120 138 -120 379zM168 502q0 -186 83 -290q81 -99 214 -99q200 2 311 185v444q-126 169 -282 169q-146 0 -233 -110q-93 -113 -93 -299z" />
<glyph unicode="h" horiz-adv-x="880" d="M51 0v1489h145v-578q60 72 135 104.5t172 32.5q171 0 260.5 -108t89.5 -312v-628h-144v608q0 158 -55.5 230.5t-173.5 72.5h-3q-160 0 -281 -211v-700h-145z" />
<glyph unicode="i" horiz-adv-x="204" d="M-3 1312q0 22 8.5 40.5t22.5 31.5t32 20t37 7q20 0 38.5 -7t32.5 -20t22.5 -31.5t8.5 -40.5q0 -43 -29.5 -72.5t-72.5 -29.5q-20 0 -38 7.5t-32 21t-22 32.5t-8 41zM26 0v1024h145v-1024h-145z" />
<glyph unicode="j" horiz-adv-x="580" d="M-21 -251q57 -32 100.5 -49.5t75.5 -17.5q216 0 216 358v984h145v-968q0 -510 -370 -510q-37 0 -78 11.5t-89 32.5v159zM342 1312q0 22 8.5 40.5t23 31.5t32.5 20t37 7q20 0 38.5 -7t32.5 -20t22.5 -31.5t8.5 -40.5q0 -43 -29.5 -72.5t-72.5 -29.5q-20 0 -38 7.5t-32 21 t-22.5 32.5t-8.5 41z" />
<glyph unicode="k" horiz-adv-x="792" d="M50 0v1489h145v-886l55 58l54 58l148 153l146 152h191l-487 -497l128 -128l136 -137l136 -136l125 -126h-206l-426 439v-439h-145z" />
<glyph unicode="l" horiz-adv-x="431" d="M44 267v1222h144v-1211q0 -85 25 -123t85 -38q24 0 59.5 13t85.5 42v-148q-46 -23 -85 -33t-71 -10q-243 0 -243 286z" />
<glyph unicode="m" horiz-adv-x="1515" d="M59 0v1024h144v-104q116 128 269 128h2q57 0 107.5 -17.5t91.5 -49.5q26 -23 49 -51t39 -60q23 35 49.5 63t58.5 51q96 64 200 64q347 0 347 -422v-626h-145v610q0 87 -12.5 146t-39.5 92q-23 32 -62.5 47.5t-93.5 15.5q-99 0 -176 -89t-77 -227v-595h-144v617 q0 146 -54 219t-160 75q-75 -11 -141 -54t-108 -121v-736h-144z" />
<glyph unicode="n" horiz-adv-x="924" d="M51 0v1024h145v-105q120 129 302 129h3q171 0 261.5 -111.5t90.5 -319.5v-617h-144v591q0 157 -57.5 236t-163.5 84q-95 -11 -172 -54t-120 -121v-736h-145z" />
<glyph unicode="o" horiz-adv-x="1072" d="M34 506q0 124 35.5 224t101.5 173q68 68 160 106.5t200 38.5q218 0 348 -145q127 -145 127 -393q0 -118 -33 -214t-96 -170q-64 -72 -154.5 -111t-201.5 -39q-112 0 -201.5 37t-155.5 112q-130 148 -130 381zM183 504q0 -179 92 -286v1q94 -106 249 -106q80 0 141.5 26.5 t105.5 76.5q42 53 64.5 127.5t22.5 168.5q0 195 -85.5 297t-244.5 102q-158 0 -252 -106q-48 -53 -70.5 -128t-22.5 -173z" />
<glyph unicode="p" horiz-adv-x="979" d="M53 -444v1468h144v-129q61 77 141.5 112.5t194.5 40.5q198 0 310 -139q54 -67 82 -157t28 -205q0 -125 -32.5 -228.5t-91.5 -181.5q-63 -77 -148.5 -119t-187.5 -42h-10q-88 0 -157 34q-72 36 -129 102v-556h-144zM197 303q59 -94 134.5 -141.5t168.5 -48.5 q66 0 121.5 30t96.5 86q42 59 64.5 138.5t22.5 177.5q0 171 -79 271q-38 46 -89 69.5t-112 25.5q-48 -6 -96 -18.5t-91.5 -35t-80 -56.5t-60.5 -81v-417z" />
<glyph unicode="q" horiz-adv-x="980" d="M-1 547q0 112 29 204t80 158q56 66 135.5 102.5t175.5 36.5q114 -5 195 -41t142 -113v130h144v-1468h-144v557q-57 -66 -130 -103q-69 -34 -158 -34h-10q-207 2 -335 161q-124 157 -124 410zM148 545q0 -96 23 -177t63 -139q42 -54 97 -85t121 -31q93 1 169 48.5 t135 141.5v416q-25 49 -61 83t-79.5 56.5t-91.5 35t-97 17.5q-60 -2 -111.5 -25.5t-89.5 -69.5q-78 -102 -78 -271z" />
<glyph unicode="r" horiz-adv-x="555" d="M47 0v1024h142v-96q54 57 116 87q58 28 122 28h9q29 0 60.5 -6.5t63.5 -20.5v-167q-79 58 -130 58h-7q-145 0 -234 -170v-737h-142z" />
<glyph unicode="s" horiz-adv-x="738" d="M18 91l66 131q74 -65 138 -87q31 -9 59.5 -15.5t51.5 -6.5q199 0 199 158q0 27 -11 49.5t-34.5 43.5t-60.5 41t-89 42q-75 32 -126 65.5t-80 66.5q-63 72 -63 176q0 132 100 214q98 79 241 79q131 0 283 -91l-55 -129q-64 42 -123.5 62.5t-113.5 20.5q-82 0 -136 -43h1 q-49 -43 -49 -107q0 -28 8.5 -52t22.5 -42q19 -18 58.5 -42.5t93.5 -47.5q154 -70 215 -133q66 -66 66 -173q0 -129 -97 -213q-94 -82 -257 -82q-76 0 -152 29t-156 86z" />
<glyph unicode="t" horiz-adv-x="570" d="M-9 888v136h174v281h144v-281h255v-136h-255v-610q0 -85 24.5 -123t85.5 -38q45 0 106 37l45 -127q-50 -24 -90 -35t-73 -11q-242 0 -242 286v621h-174z" />
<glyph unicode="u" horiz-adv-x="923" d="M44 436v588h145v-566q0 -181 57.5 -263t181.5 -82h3q81 1 147 47q68 48 124 140v724h144v-1024h-144v118q-123 -142 -272 -142h-16h1q-371 0 -371 460z" />
<glyph unicode="v" horiz-adv-x="938" d="M-3 1024h157l296 -789v1q1 -4 4 -10q0 2 1 3l3 5l152 395l151 395h157l-407 -1024h-120z" />
<glyph unicode="w" horiz-adv-x="1402" d="M22 1024h158l222 -765l122 383l121 382h103l217 -757l112 379l112 378h152l-317 -1024h-126l-209 720l-233 -720h-125z" />
<glyph unicode="x" horiz-adv-x="904" d="M11 0l341 500l-116 184l-121 190l-50 76l-47 74h170l223 -360q8 -14 15 -25l13 -21q11 19 25 41l235 365h171l-348 -523l78 -119l82 -121l44 -66l46 -67l44 -67l42 -61h-181l-241 384q-2 -2 -2.5 -2t-2.5 -4q-5 -11 -12 -19l-2 -4q-2 -4 -4.5 -7.5t-6.5 -7.5l1 2 l-109 -168l-57 -88l-55 -86h-175z" />
<glyph unicode="y" horiz-adv-x="950" d="M17 1024h157l298 -804l314 804h158l-487 -1204q-29 -69 -59.5 -120.5t-67.5 -85.5t-81.5 -51t-100.5 -17q-24 0 -52 7t-60 18l47 145q33 -26 69 -26q95 0 157 143l85 202l-92 241l-93 245l-47 125l-50 130l-49 127z" />
<glyph unicode="z" horiz-adv-x="895" d="M11 0v72l613 816h-567v136h801v-62l-619 -826h595v-136h-823z" />
<glyph unicode="{" horiz-adv-x="449" d="M-16 495v113q148 21 148 203v296q0 79 19 135.5t56.5 93.5t93.5 55t130 21v-136q-48 -2 -78.5 -13.5t-44.5 -29.5q-28 -44 -28 -153v-277q0 -184 -102 -254q102 -72 102 -266v-260q0 -110 28 -152q14 -18 44.5 -29.5t78.5 -13.5v-137q-74 3 -130 21.5t-93.5 54.5 t-56.5 92.5t-19 136.5v280q0 99 -36.5 154t-111.5 65z" />
<glyph unicode="|" horiz-adv-x="243" d="M41 -454v1991h147v-1991h-147z" />
<glyph unicode="}" horiz-adv-x="448" d="M5 -173q92 4 119 41q31 38 31 155v260q0 99 26.5 165t77.5 101q-51 35 -77.5 98t-26.5 156v277q0 115 -31 155q-28 36 -119 40v137q74 -3 130 -21t93.5 -54.5t56.5 -93t19 -136.5v-296q0 -182 146 -203v-113q-146 -20 -146 -219v-280q0 -80 -19 -136.5t-56.5 -93 t-93.5 -54.5t-130 -21v136z" />
<glyph unicode="~" horiz-adv-x="956" d="M38 452q3 67 22 120t51 90t76.5 56.5t99.5 19.5q48 0 100 -22t101 -59l55 -41q25 -17 40 -26h-1q14 -5 29.5 -8.5t33.5 -3.5q99 0 118 151h128q-4 -68 -23.5 -121.5t-51.5 -90t-76.5 -56t-98.5 -19.5q-48 0 -101.5 24t-105.5 62q-94 73 -149 73q-106 0 -118 -149h-129z " />
<glyph unicode="&#xa1;" horiz-adv-x="214" d="M-4 936q0 45 30.5 75t75.5 30t74.5 -30t29.5 -75q0 -47 -29.5 -75.5t-74.5 -28.5t-75.5 28.5t-30.5 75.5zM25 -385l9 1030h140l8 -1030h-157z" />
<glyph unicode="&#xa2;" horiz-adv-x="814" d="M6 649q0 106 28.5 196.5t84.5 164.5q54 71 125.5 117t161.5 64v193h144v-182q53 -5 114 -23.5t129 -48.5l-43 -144q-109 66 -200 77v-790q51 7 98 30t98 62l42 -143q-62 -36 -121.5 -57t-116.5 -29v-190h-144v190q-91 11 -160 49.5t-125 106.5q-115 140 -115 357z M153 655q0 -78 20.5 -146.5t55.5 -120.5q32 -39 79 -69.5t98 -43.5v776q-53 -15 -98.5 -47.5t-78.5 -77.5q-36 -54 -56 -122.5t-20 -148.5z" />
<glyph unicode="&#xa3;" horiz-adv-x="905" d="M8 0v129q235 98 235 325v171h-215v142h215v245q0 189 100 304q102 118 270 118q48 0 99 -11t102 -31v-155q-122 60 -205 60q-105 0 -163.5 -75t-58.5 -221v-234h290v-142h-290v-139q0 -62 -6.5 -113.5t-22 -94.5t-41.5 -78t-64 -64h632v-136h-877z" />
<glyph unicode="&#xa4;" horiz-adv-x="997" d="M32 363l132 127q-34 53 -52 109.5t-18 113.5q0 63 17 120t52 105q-16 14 -31 29l-32 32l-36 35l-32 31l97 98l131 -130q107 70 224 70q124 0 225 -69l45 45l44 44l41 40l97 -98l-132 -128q71 -95 71 -224q0 -123 -70 -223q10 -8 20.5 -18t19.5 -20l49 -46l43 -42l-98 -99 l-127 129q-99 -71 -228 -71q-130 0 -225 71l-130 -129zM230 715q0 -53 19 -97t57 -82q77 -77 178 -77q102 0 178 76q75 75 75 180q0 107 -76 180q-77 72 -175 72q-110 0 -183 -74q-73 -76 -73 -178z" />
<glyph unicode="&#xa5;" horiz-adv-x="960" d="M-12 1411h163l297 -555l18 -36q10 25 22 41l-1 -1l73 136l76 137l76 140l76 138h158l-362 -651h305v-135h-352v-175h352v-136h-352v-314h-144v314h-351v136h351v175h-351v135h302l-123 223l-124 228l-55 101z" />
<glyph unicode="&#xa6;" horiz-adv-x="221" d="M41 408h147v-862h-147v862zM41 675v862h147v-862h-147z" />
<glyph unicode="&#xa7;" horiz-adv-x="676" d="M18 725q0 156 130 244q-43 41 -68.5 92.5t-25.5 111.5q0 131 87 212q85 79 234 79q55 0 107 -10.5t106 -34.5v-159q-59 35 -113 51.5t-102 16.5q-171 0 -171 -149q0 -60 43 -103q53 -49 194 -111q208 -95 208 -289q0 -75 -33 -142.5t-97 -125.5q75 -72 75 -187 q0 -121 -94 -204q-45 -39 -104.5 -59.5t-133.5 -20.5q-105 0 -233 58v160q148 -80 235 -80q89 0 135 39t46 105q0 40 -26 80q-12 20 -43 41t-77 44q-84 41 -142 81.5t-84 78.5q-53 80 -53 181zM166 730q0 -80 47 -127t187 -111q27 21 44 39.5t31 38.5q25 41 25 106 q0 62 -39 104q-41 44 -187 111q-56 -27 -82 -67t-26 -94zM233 914h48v-19h1q-2 -2 -3 -2.5t-6 -0.5q-4 0 -13 4.5t-27 17.5z" />
<glyph unicode="&#xa8;" horiz-adv-x="608" d="M41 1218q0 21 8 38.5t21.5 29.5t30.5 19t35 7q19 0 37 -7t31.5 -19.5t22 -29.5t8.5 -38q0 -42 -27.5 -69.5t-69.5 -27.5q-19 0 -36.5 7t-31 19.5t-21.5 30.5t-8 40zM356 1218q0 21 8 38.5t21.5 29.5t30 19t34.5 7q19 0 37 -7t32.5 -19.5t23 -29.5t8.5 -38 q0 -42 -29 -69.5t-70 -27.5q-18 0 -35.5 7t-31 19.5t-21.5 30.5t-8 40z" />
<glyph unicode="&#xa9;" horiz-adv-x="1591" d="M40 703q0 306 215 517q109 107 237 160.5t280 53.5q299 0 518 -214q216 -212 216 -515q0 -301 -215 -515q-214 -214 -517 -214q-304 0 -520 213q-214 214 -214 514zM172 703q0 -118 48 -227t128 -195q88 -84 195.5 -129.5t228.5 -45.5q125 0 231 43.5t194 132.5 q177 177 177 421q0 247 -178 425q-176 177 -424 177q-246 0 -423 -177t-177 -425zM304 680q0 245 146 388q145 145 366 145q64 0 135.5 -18.5t151.5 -58.5l-58 -123q-120 66 -244 66q-149 0 -251 -103q-102 -102 -102 -276q0 -170 106 -272q53 -53 117.5 -78t139.5 -25 q114 0 237 75l61 -117q-178 -95 -308 -95q-210 0 -353 142q-144 141 -144 350z" />
<glyph unicode="&#xaa;" horiz-adv-x="685" d="M26 881q0 50 15.5 104.5t50 100.5t89.5 75.5t132 29.5q35 0 77 -8t88 -25q-9 66 -40.5 102.5t-85.5 36.5q-117 0 -268 -115v164q72 43 140.5 63.5t134.5 20.5q263 0 263 -287v-466h-142v75q-45 -45 -100 -68t-115 -23q-109 0 -175 64q-64 64 -64 156zM170 883 q0 -41 29 -65t83 -24q38 0 88 31.5t110 93.5v127q-35 17 -71 26.5t-67 9.5q-35 0 -65 -12t-52.5 -36.5t-37 -62t-17.5 -88.5z" />
<glyph unicode="&#xab;" horiz-adv-x="794" d="M2 536l283 353h182l-290 -353l64 -76l66 -79l40 -48l42 -51l41 -49l37 -44h-181zM301 536l284 353h183l-290 -353l79 -96l83 -100l32 -38l34 -40l32 -39l28 -34h-180z" />
<glyph unicode="&#xac;" horiz-adv-x="982" d="M-13 524v136h914v-522h-139v386h-775z" />
<glyph unicode="&#xad;" horiz-adv-x="690" d="M48 524v142h573v-142h-573z" />
<glyph unicode="&#xae;" horiz-adv-x="1591" d="M40 703q0 306 215 517q109 107 237 160.5t280 53.5q299 0 518 -214q216 -212 216 -515q0 -301 -215 -515q-214 -214 -517 -214q-304 0 -520 213q-214 214 -214 514zM172 703q0 -118 48 -227t128 -195q88 -84 195.5 -129.5t228.5 -45.5q125 0 231 43.5t194 132.5 q177 177 177 421q0 247 -178 425q-176 177 -424 177q-246 0 -423 -177t-177 -425zM486 229v969h278q81 0 143 -18.5t106 -53.5q45 -37 69 -86.5t24 -110.5q0 -106 -57.5 -174.5t-163.5 -98.5l48 -74l50 -76l45 -69l47 -73l46 -70l42 -65h-168l-247 404h-118v-404h-144z M630 757h155q39 0 71.5 11.5t55.5 31.5q23 23 35 51t12 63q0 159 -197 159h-132v-316z" />
<glyph unicode="&#xaf;" horiz-adv-x="850" d="M52 1656v142h860v-142h-860z" />
<glyph unicode="&#xb0;" horiz-adv-x="602" d="M26 1147q0 108 78 186t186 78q112 0 190 -78q79 -77 79 -186q0 -110 -79 -191q-77 -78 -186 -78q-110 0 -188 79q-80 80 -80 190zM161 1147q0 -58 38 -99q19 -21 42 -31t49 -10q57 0 92 41q41 43 41 99q0 57 -38 97q-38 38 -91 38q-56 0 -95 -40q-38 -39 -38 -95z" />
<glyph unicode="&#xb1;" horiz-adv-x="919" d="M-10 0v136h914v-136h-914zM-10 597v138h389v387h136v-387h389v-138h-389v-388h-136v388h-389z" />
<glyph unicode="&#xb2;" horiz-adv-x="674" d="M30 851v135l234 229q55 52 88 90t50.5 68t23 55t5.5 51q0 116 -121 116q-91 0 -237 -128v176q63 43 122 65t121 22q60 0 108 -17t81.5 -48.5t51.5 -75.5t18 -98q0 -39 -9.5 -77.5t-33.5 -82t-66 -94t-107 -113.5l-135 -131h353v-142h-547z" />
<glyph unicode="&#xb3;" horiz-adv-x="674" d="M27 883v160q133 -83 213 -83q72 0 112.5 36.5t40.5 97.5q0 130 -193 130h-95v133h86q175 0 175 134q0 101 -116 101q-57 0 -191 -70v151q57 28 109 40.5t99 12.5q55 0 99.5 -16.5t76 -45.5t48 -70.5t16.5 -90.5q0 -71 -24.5 -120.5t-73.5 -81.5q60 -30 91 -84.5 t31 -122.5q0 -57 -20 -105.5t-57.5 -84t-92 -56t-123.5 -20.5q-55 0 -107.5 13t-103.5 42z" />
<glyph unicode="&#xb4;" horiz-adv-x="359" d="M-39 1121l262 368h170l-278 -368h-154z" />
<glyph unicode="&#xb5;" horiz-adv-x="887" d="M51 -369v1393h145v-566q0 -183 58.5 -264t181.5 -81q122 0 196 89q77 90 77 246v576h144v-1024h-144v110q-106 -134 -288 -134q-140 0 -225 78v-423h-145z" />
<glyph unicode="&#xb6;" horiz-adv-x="823" d="M13 1130q0 128 79 204q80 77 191 77h496v-139h-124v-1272h-138v1272h-130v-1272h-139v852q-49 5 -87.5 25t-72.5 56q-75 81 -75 197z" />
<glyph unicode="&#xb7;" horiz-adv-x="262" d="M23 696q0 45 30 74t75 29q21 0 40.5 -8t34 -21.5t23 -32.5t8.5 -41t-8.5 -41t-23 -33.5t-34 -23t-40.5 -8.5q-22 0 -41 8.5t-33.5 23t-22.5 33.5t-8 41z" />
<glyph unicode="&#xb8;" horiz-adv-x="415" d="M33 -275q39 -5 66.5 -7t42.5 -2q123 0 123 57q0 53 -109 53q-12 0 -33 -2t-56 -6v239h125v-110q110 -4 161.5 -46t51.5 -122q0 -189 -269 -189q-17 0 -42.5 1.5t-60.5 5.5v128z" />
<glyph unicode="&#xb9;" horiz-adv-x="674" d="M14 1496v144l336 106v-760h179v-135h-502v135h185v576l-42 -14l-45 -15l-57 -19z" />
<glyph unicode="&#xba;" horiz-adv-x="798" d="M30 1042q0 90 25.5 161t75.5 123q104 104 262 104q162 0 257 -105q95 -104 95 -281q0 -84 -23.5 -151.5t-73.5 -123.5h1q-97 -112 -262 -112q-81 0 -146 26.5t-114 83.5h1q-48 55 -73 122.5t-25 152.5zM176 1040q0 -115 59 -182q57 -66 154 -66q100 0 154 67t54 187 q0 118 -53.5 184.5t-152.5 66.5q-97 0 -155 -67q-60 -69 -60 -190z" />
<glyph unicode="&#xbb;" horiz-adv-x="797" d="M3 889h184l285 -346l-282 -354h-186l293 354l-71 84l-77 91l-77 89zM305 889h181l287 -347l-286 -353h-181l290 354l-90 107l-93 110l-56 66z" />
<glyph unicode="&#xbc;" horiz-adv-x="1437" d="M30 1196v144l336 106v-895h-139v711l-41 -14l-45 -15l-57 -19zM213 0l848 1411h157l-845 -1411h-160zM755 207v98l377 555h128v-523h104v-130h-104v-207h-134v207h-371zM933 337h193v291l-48 -72l-49 -74l-25 -38l-23 -34l-23 -35z" />
<glyph unicode="&#xbd;" horiz-adv-x="1510" d="M31 1196v144l336 106v-895h-138v711l-105 -35l-49 -17q-27 -9 -44 -14zM216 0l847 1411h158l-846 -1411h-159zM891 0v134l235 230q54 53 86.5 91t50 68t23 54.5t5.5 50.5q0 115 -121 115q-46 0 -105.5 -31.5t-131.5 -94.5v176q63 42 123.5 64t119.5 22q60 0 108 -17.5 t81.5 -49t51.5 -75.5t18 -97q0 -39 -9.5 -77t-33.5 -81.5t-65.5 -94t-106.5 -113.5l-135 -132h352v-142h-546z" />
<glyph unicode="&#xbe;" horiz-adv-x="1463" d="M27 583v160q133 -83 213 -83q72 0 112 36.5t40 97.5q0 130 -192 130h-95v133h86q175 0 175 134q0 101 -116 101q-57 0 -191 -70v151q57 28 109 40.5t99 12.5q55 0 99.5 -16.5t76 -45.5t48 -70.5t16.5 -90.5q0 -71 -24 -120.5t-74 -81.5q60 -30 91.5 -84.5t31.5 -122.5 q0 -57 -20 -105.5t-57.5 -84t-92.5 -56t-124 -20.5q-55 0 -107.5 13t-103.5 42zM235 0l849 1411h158l-847 -1411h-160zM778 207v98l376 555h130v-523h104v-130h-104v-207h-135v207h-371zM955 337h194v289l-50 -72l-48 -72l-47 -72q-21 -33 -49 -73z" />
<glyph unicode="&#xbf;" horiz-adv-x="720" d="M-3 -83q0 58 15.5 105.5t41 87.5t57.5 75l67 67l77 76q30 30 47.5 54.5t24 47t6.5 51.5q0 39 -11 84.5t-22 82.5h135q14 -32 23 -78t9 -88q0 -48 -13 -88t-35.5 -75t-53.5 -67.5t-68 -64.5v1l-56 -54q-27 -28 -48.5 -60t-34.5 -69t-13 -80q0 -45 15 -81t43 -60.5t66 -38 t85 -13.5q43 0 80 7.5t72 21.5q67 28 129 94l86 -109q-56 -51 -105.5 -83.5t-90.5 -46.5q-38 -12 -81.5 -19t-90.5 -7q-76 0 -141 22t-113 64t-75 102.5t-27 138.5zM276 936q0 22 8 41t22 33.5t33.5 22.5t42.5 8q45 0 74 -30t29 -75q0 -47 -29 -75.5t-74 -28.5 q-46 0 -76 28.5t-30 75.5z" />
<glyph unicode="&#xc0;" d="M-3 0l541 1434h130l535 -1434h-167l-157 428h-558l-79 -214l-79 -214h-166zM376 573h448l-218 598v-1l-4 9q-1 4 -3 7l-6 -14v1l-57 -157l-55 -150l-27 -74l-25 -70l-26 -72zM397 1899h170l262 -368h-155z" />
<glyph unicode="&#xc1;" d="M-3 0l541 1434h130l535 -1434h-167l-157 428h-558l-79 -214l-79 -214h-166zM376 573h448l-218 598v-1l-4 9q-1 4 -3 7l-6 -14v1l-57 -157l-55 -150l-27 -74l-25 -70l-26 -72zM397 1531l262 368h170l-278 -368h-154z" />
<glyph unicode="&#xc2;" d="M-3 0l541 1434h130l535 -1434h-167l-157 428h-558l-79 -214l-79 -214h-166zM332 1531l246 375h74l243 -375h-149l-133 203l-69 -103l-66 -100h-146zM376 573h448l-218 598v-1l-4 9q-1 4 -3 7l-6 -14v1l-57 -157l-55 -150l-27 -74l-25 -70l-26 -72z" />
<glyph unicode="&#xc3;" d="M-3 0l541 1434h130l535 -1434h-167l-157 428h-558l-79 -214l-79 -214h-166zM291 1531q0 132 51 197q26 33 62 51.5t81 18.5q78 0 170 -76q55 -49 92 -49q26 0 44 35t18 103h127q0 -62 -14 -111.5t-39.5 -84.5t-62.5 -53.5t-82 -18.5q-36 0 -77.5 20.5t-84.5 57.5 q-49 45 -93 45q-68 0 -68 -135h-124zM376 573h448l-218 598v-1l-4 9q-1 4 -3 7l-6 -14v1l-57 -157l-55 -150l-27 -74l-25 -70l-26 -72z" />
<glyph unicode="&#xc4;" d="M-3 0l541 1434h130l535 -1434h-167l-157 428h-558l-79 -214l-79 -214h-166zM358 1628q0 21 8 38.5t21.5 29.5t30.5 19t35 7q19 0 37 -7t31.5 -19.5t22 -29.5t8.5 -38q0 -42 -27.5 -69.5t-69.5 -27.5q-19 0 -36.5 7t-31 19.5t-21.5 30.5t-8 40zM376 573h448l-218 598v-1 l-4 9q-1 4 -3 7l-6 -14v1l-57 -157l-55 -150l-27 -74l-25 -70l-26 -72zM673 1628q0 21 8 38.5t21.5 29.5t30 19t34.5 7q19 0 37 -7t32.5 -19.5t23 -29.5t8.5 -38q0 -42 -29 -69.5t-70 -27.5q-18 0 -35.5 7t-31 19.5t-21.5 30.5t-8 40z" />
<glyph unicode="&#xc5;" horiz-adv-x="1229" d="M-2 0l502 1329q-119 53 -119 187q0 89 66 149q66 58 156 58q46 0 85 -15t71 -42q30 -28 48 -66.5t18 -83.5q0 -129 -119 -184l122 -325l123 -329l128 -342l125 -336h-167l-157 428h-558l-80 -214l-78 -214h-166zM377 573h448l-218 598v-1l-4 9q-1 4 -3 7l-6 -14v1 l-57 -156l-55 -151l-27 -73l-25 -71l-26 -72zM510 1516q0 -36 26.5 -59t66.5 -23q42 0 68 23t26 59q0 41 -27.5 62.5t-66.5 21.5q-42 0 -67.5 -23t-25.5 -61zM569 1304l32 -25q2 2 5 4.5t5 4.5l15 -10q-2 -13 -5 -23q-2 -8 -4.5 -16.5t-7.5 -22.5l-18 3v1h1q-1 1 -1 2.5 t-1 3.5v-1v1l-5 13l-4 13h1l-3 8q-2 6 -4 14.5t-6 29.5zM590 1225q0 -5 1 -5q0 1 -0.5 2t-0.5 3zM592 1219h19l-6 -17q-2 -8 -5 -16q-3 7 -4 15h1q-2 5 -2.5 9t-2.5 9z" />
<glyph unicode="&#xc7;" horiz-adv-x="1193" d="M33 689q0 346 202 557q201 211 511 211q115 -2 218 -43t197 -120l-119 -108q-69 64 -143.5 95.5t-154.5 31.5q-59 0 -114.5 -12t-106.5 -34t-96.5 -53t-83.5 -68q-75 -84 -114 -196t-39 -251q0 -269 145 -424q146 -154 373 -154q162 0 298 127l119 -108 q-94 -79 -199 -120.5t-226 -43.5q-295 0 -482 198q-92 100 -138.5 227.5t-46.5 287.5zM410 -275q39 -5 66.5 -7t42.5 -2q123 0 123 57q0 53 -109 53q-12 0 -33 -2t-56 -6v239h125v-110q110 -4 161.5 -46t51.5 -122q0 -189 -269 -189q-17 0 -42.5 1.5t-60.5 5.5v128z" />
<glyph unicode="&#xc8;" horiz-adv-x="785" d="M55 0v1434h701v-145h-548v-494h509v-144h-509v-507h580v-144h-733zM176 1899h170l262 -368h-155z" />
<glyph unicode="&#xc9;" horiz-adv-x="785" d="M55 0v1434h701v-145h-548v-494h509v-144h-509v-507h580v-144h-733zM176 1531l262 368h170l-278 -368h-154z" />
<glyph unicode="&#xca;" horiz-adv-x="785" d="M55 0v1434h701v-145h-548v-494h509v-144h-509v-507h580v-144h-733zM111 1531l246 375h74l243 -375h-149l-133 203l-68 -103l-67 -100h-146z" />
<glyph unicode="&#xcb;" horiz-adv-x="785" d="M55 0v1434h701v-145h-548v-494h509v-144h-509v-507h580v-144h-733zM137 1628q0 21 8 38.5t21.5 29.5t30.5 19t35 7q19 0 37 -7t31.5 -19.5t22 -29.5t8.5 -38q0 -42 -27.5 -69.5t-69.5 -27.5q-19 0 -36.5 7t-31 19.5t-21.5 30.5t-8 40zM452 1628q0 21 8 38.5t21.5 29.5 t30 19t34.5 7q19 0 37 -7t32.5 -19.5t23 -29.5t8.5 -38q0 -42 -29 -69.5t-70 -27.5q-18 0 -35.5 7t-31 19.5t-21.5 30.5t-8 40z" />
<glyph unicode="&#xcc;" horiz-adv-x="463" d="M-154 1837h170l262 -368h-155zM47 0v1434h153v-1434h-153z" />
<glyph unicode="&#xcd;" horiz-adv-x="463" d="M-6 1469l262 368h170l-278 -368h-154zM47 0v1434h153v-1434h-153z" />
<glyph unicode="&#xce;" horiz-adv-x="463" d="M-156 1470l246 375h74l243 -375h-149l-133 203l-69 -103l-66 -100h-146zM47 0v1434h153v-1434h-153z" />
<glyph unicode="&#xcf;" horiz-adv-x="463" d="M-134 1566q0 21 8 38.5t21.5 29.5t30.5 19t35 7q19 0 37 -7t31.5 -19.5t22 -29.5t8.5 -38q0 -42 -27.5 -69.5t-69.5 -27.5q-19 0 -36.5 7t-31 19.5t-21.5 30.5t-8 40zM47 0v1434h153v-1434h-153zM181 1566q0 21 8 38.5t21.5 29.5t30 19t34.5 7q19 0 37 -7t32.5 -19.5 t23 -29.5t8.5 -38q0 -42 -29 -69.5t-70 -27.5q-18 0 -35.5 7t-31 19.5t-21.5 30.5t-8 40z" />
<glyph unicode="&#xd0;" horiz-adv-x="1331" d="M27 641v142h143v651h374q358 0 543.5 -177.5t185.5 -520.5q0 -161 -53 -296.5t-150 -237.5q-101 -100 -238 -151t-308 -51h-354v641h-143zM324 144h186q294 0 449 150q157 150 157 439q0 556 -587 556h-205v-506h387v-142h-387v-497z" />
<glyph unicode="&#xd1;" horiz-adv-x="1452" d="M55 0v1434h117l822 -1114q2 -4 6 -8v1122h153v-1434h-110l-829 1123q-2 2 -3 4t-3 4v-1131h-153zM309 1466q0 132 51 197q26 33 62 51.5t81 18.5q78 0 170 -76q55 -49 92 -49q26 0 44 35t18 103h127q0 -62 -14 -111.5t-39.5 -84.5t-62.5 -53.5t-82 -18.5 q-36 0 -77.5 20.5t-84.5 57.5q-49 45 -93 45q-68 0 -68 -135h-124z" />
<glyph unicode="&#xd2;" horiz-adv-x="1447" d="M36 702q0 168 49 306t137 241q93 100 221.5 154t286.5 54q146 0 263.5 -49.5t206.5 -151.5q181 -197 181 -518q0 -352 -184 -557q-187 -205 -494 -205q-304 0 -486 203q-181 203 -181 523zM192 713q0 -270 140 -433q139 -159 369 -159q121 0 217 41t166 116h-1 q69 79 105.5 192t36.5 253t-34 248.5t-104 186.5q-138 155 -374 155q-227 0 -374 -164q-147 -165 -147 -436zM507 1899h170l262 -368h-155z" />
<glyph unicode="&#xd3;" horiz-adv-x="1447" d="M36 702q0 168 49 306t137 241q93 100 221.5 154t286.5 54q146 0 263.5 -49.5t206.5 -151.5q181 -197 181 -518q0 -352 -184 -557q-187 -205 -494 -205q-304 0 -486 203q-181 203 -181 523zM192 713q0 -270 140 -433q139 -159 369 -159q121 0 217 41t166 116h-1 q69 79 105.5 192t36.5 253t-34 248.5t-104 186.5q-138 155 -374 155q-227 0 -374 -164q-147 -165 -147 -436zM507 1531l262 368h170l-278 -368h-154z" />
<glyph unicode="&#xd4;" horiz-adv-x="1447" d="M36 702q0 168 49 306t137 241q93 100 221.5 154t286.5 54q146 0 263.5 -49.5t206.5 -151.5q181 -197 181 -518q0 -352 -184 -557q-187 -205 -494 -205q-304 0 -486 203q-181 203 -181 523zM192 713q0 -270 140 -433q139 -159 369 -159q121 0 217 41t166 116h-1 q69 79 105.5 192t36.5 253t-34 248.5t-104 186.5q-138 155 -374 155q-227 0 -374 -164q-147 -165 -147 -436zM442 1531l246 375h74l243 -375h-149l-133 203l-68 -103l-67 -100h-146z" />
<glyph unicode="&#xd5;" horiz-adv-x="1447" d="M36 702q0 168 49 306t137 241q93 100 221.5 154t286.5 54q146 0 263.5 -49.5t206.5 -151.5q181 -197 181 -518q0 -352 -184 -557q-187 -205 -494 -205q-304 0 -486 203q-181 203 -181 523zM192 713q0 -270 140 -433q139 -159 369 -159q121 0 217 41t166 116h-1 q69 79 105.5 192t36.5 253t-34 248.5t-104 186.5q-138 155 -374 155q-227 0 -374 -164q-147 -165 -147 -436zM401 1531q0 132 51 197q26 33 62 51.5t81 18.5q78 0 170 -76q55 -49 92 -49q26 0 44 35t18 103h127q0 -62 -14 -111.5t-39.5 -84.5t-62.5 -53.5t-82 -18.5 q-36 0 -77.5 20.5t-84.5 57.5q-49 45 -93 45q-68 0 -68 -135h-124z" />
<glyph unicode="&#xd6;" horiz-adv-x="1447" d="M36 702q0 168 49 306t137 241q93 100 221.5 154t286.5 54q146 0 263.5 -49.5t206.5 -151.5q181 -197 181 -518q0 -352 -184 -557q-187 -205 -494 -205q-304 0 -486 203q-181 203 -181 523zM192 713q0 -270 140 -433q139 -159 369 -159q121 0 217 41t166 116h-1 q69 79 105.5 192t36.5 253t-34 248.5t-104 186.5q-138 155 -374 155q-227 0 -374 -164q-147 -165 -147 -436zM468 1628q0 21 8 38.5t21.5 29.5t30.5 19t35 7q19 0 37 -7t31.5 -19.5t22 -29.5t8.5 -38q0 -42 -27.5 -69.5t-69.5 -27.5q-19 0 -36.5 7t-31 19.5t-21.5 30.5 t-8 40zM783 1628q0 21 8 38.5t21.5 29.5t30 19t34.5 7q19 0 37 -7t32.5 -19.5t23 -29.5t8.5 -38q0 -42 -29 -69.5t-70 -27.5q-18 0 -35.5 7t-31 19.5t-21.5 30.5t-8 40z" />
<glyph unicode="&#xd7;" horiz-adv-x="911" d="M31 276l316 315l-75 75l-76 77l-84 84l-81 81l97 96l315 -316l74 75l77 77l84 84l80 80l97 -96l-316 -317l316 -315l-97 -96l-315 317l-74 -75l-77 -77l-84 -84l-80 -81z" />
<glyph unicode="&#xd8;" horiz-adv-x="1470" d="M22 22l175 208q-139 196 -139 472q0 172 46.5 307.5t139.5 239.5q187 208 508 208q109 0 204 -30t173 -84l37 42l38 45l32 37q17 20 29 35l106 -88l-138 -163q85 -99 127.5 -227t42.5 -286q0 -351 -184 -557q-187 -205 -493 -205q-131 0 -238.5 37t-197.5 115l-163 -192z M215 713q0 -108 22 -198.5t64 -162.5l734 874q-63 44 -136.5 65.5t-162.5 21.5q-228 0 -375 -164q-146 -164 -146 -436zM388 245q66 -64 149.5 -94t186.5 -30q120 0 216.5 41t166.5 116l-1 -1q67 80 104.5 193t37.5 253q0 124 -30 227.5t-86 180.5z" />
<glyph unicode="&#xd9;" horiz-adv-x="1327" d="M44 558v876h153v-863q0 -450 360 -450q348 0 348 437v876h152v-855q0 -603 -518 -603q-495 0 -495 582zM315 1837h170l262 -368h-155z" />
<glyph unicode="&#xda;" horiz-adv-x="1327" d="M44 558v876h153v-863q0 -450 360 -450q348 0 348 437v876h152v-855q0 -603 -518 -603q-495 0 -495 582zM397 1468l262 368h170l-278 -368h-154z" />
<glyph unicode="&#xdb;" horiz-adv-x="1327" d="M44 558v876h153v-863q0 -450 360 -450q348 0 348 437v876h152v-855q0 -603 -518 -603q-495 0 -495 582zM311 1470l246 375h74l243 -375h-149l-133 203l-68 -103l-67 -100h-146z" />
<glyph unicode="&#xdc;" horiz-adv-x="1327" d="M44 558v876h153v-863q0 -450 360 -450q348 0 348 437v876h152v-855q0 -603 -518 -603q-495 0 -495 582zM326 1567q0 21 8 38.5t21.5 29.5t30.5 19t35 7q19 0 37 -7t31.5 -19.5t22 -29.5t8.5 -38q0 -42 -27.5 -69.5t-69.5 -27.5q-19 0 -36.5 7t-31 19.5t-21.5 30.5t-8 40z M641 1567q0 21 8 38.5t21.5 29.5t30 19t34.5 7q19 0 37 -7t32.5 -19.5t23 -29.5t8.5 -38q0 -42 -29 -69.5t-70 -27.5q-18 0 -35.5 7t-31 19.5t-21.5 30.5t-8 40z" />
<glyph unicode="&#xdd;" horiz-adv-x="1106" d="M-15 1434h171l329 -680l9 -18l12 -27l10 21q4 11 10 23l90 179l94 184l82 162l79 156h168l-463 -890v-544h-152v543l-107 216l-109 221l-114 230zM266 1500l262 368h170l-278 -368h-154z" />
<glyph unicode="&#xde;" horiz-adv-x="876" d="M49 0v1434h152v-229h209q465 0 465 -415q0 -209 -136 -338q-69 -63 -161 -95.5t-212 -32.5h-165v-324h-152zM201 468h167q171 0 261 80t90 229q0 284 -326 284h-192v-593z" />
<glyph unicode="&#xdf;" horiz-adv-x="920" d="M48 2v1080q0 97 27 175t76 134q51 54 119.5 83.5t155.5 29.5q151 0 247 -96q95 -95 95 -249q0 -234 -200 -351q63 -23 113.5 -58.5t89.5 -82.5q49 -59 74.5 -126.5t25.5 -146.5q0 -179 -113 -300q-116 -118 -294 -118q-34 0 -75 6.5t-90 18.5v152q50 -19 90.5 -29.5 t71.5 -10.5q122 0 190 74q71 74 71 201q0 67 -26 123.5t-76.5 100.5t-123.5 74.5t-166 46.5v122q289 66 289 292q0 103 -53 161.5t-148 58.5q-108 0 -167 -78t-59 -220v-1067h-144z" />
<glyph unicode="&#xe0;" horiz-adv-x="1012" d="M28 281q8 83 43 146t88.5 105.5t121.5 64t141 21.5q60 0 120.5 -15t117.5 -44q0 10 -0.5 20.5t-0.5 20.5v58q-5 55 -20.5 101.5t-41 80.5t-61.5 52.5t-82 18.5q-81 -1 -155.5 -32t-143.5 -94l-93 97q160 167 401 166q165 0 253 -100t88 -291v-657h-144v93 q-17 -15 -40.5 -31.5t-43.5 -28.5q-105 -57 -222 -57q-72 0 -132 22.5t-105 64.5q-89 87 -89 218zM151 1489h170l262 -368h-155zM177 282q0 -77 48 -122q49 -47 139 -47q63 0 115.5 16.5t92.5 47.5q33 28 56 54.5t30 46.5v140q-57 37 -115 53t-112 16q-53 0 -99.5 -15 t-81 -42t-54 -65t-19.5 -83z" />
<glyph unicode="&#xe1;" horiz-adv-x="1012" d="M28 281q8 83 43 146t88.5 105.5t121.5 64t141 21.5q60 0 120.5 -15t117.5 -44q0 10 -0.5 20.5t-0.5 20.5v58q-5 55 -20.5 101.5t-41 80.5t-61.5 52.5t-82 18.5q-81 -1 -155.5 -32t-143.5 -94l-93 97q160 167 401 166q165 0 253 -100t88 -291v-657h-144v93 q-17 -15 -40.5 -31.5t-43.5 -28.5q-105 -57 -222 -57q-72 0 -132 22.5t-105 64.5q-89 87 -89 218zM177 282q0 -77 48 -122q49 -47 139 -47q63 0 115.5 16.5t92.5 47.5q33 28 56 54.5t30 46.5v140q-57 37 -115 53t-112 16q-53 0 -99.5 -15t-81 -42t-54 -65t-19.5 -83z M186 1121l262 368h170l-278 -368h-154z" />
<glyph unicode="&#xe2;" horiz-adv-x="1012" d="M28 281q8 83 43 146t88.5 105.5t121.5 64t141 21.5q60 0 120.5 -15t117.5 -44q0 10 -0.5 20.5t-0.5 20.5v58q-5 55 -20.5 101.5t-41 80.5t-61.5 52.5t-82 18.5q-81 -1 -155.5 -32t-143.5 -94l-93 97q160 167 401 166q165 0 253 -100t88 -291v-657h-144v93 q-17 -15 -40.5 -31.5t-43.5 -28.5q-105 -57 -222 -57q-72 0 -132 22.5t-105 64.5q-89 87 -89 218zM122 1121l246 375h74l243 -375h-149l-133 203l-69 -103l-66 -100h-146zM177 282q0 -77 48 -122q49 -47 139 -47q63 0 115.5 16.5t92.5 47.5q33 28 56 54.5t30 46.5v140 q-57 37 -115 53t-112 16q-53 0 -99.5 -15t-81 -42t-54 -65t-19.5 -83z" />
<glyph unicode="&#xe3;" horiz-adv-x="1012" d="M28 281q8 83 43 146t88.5 105.5t121.5 64t141 21.5q60 0 120.5 -15t117.5 -44q0 10 -0.5 20.5t-0.5 20.5v58q-5 55 -20.5 101.5t-41 80.5t-61.5 52.5t-82 18.5q-81 -1 -155.5 -32t-143.5 -94l-93 97q160 167 401 166q165 0 253 -100t88 -291v-657h-144v93 q-17 -15 -40.5 -31.5t-43.5 -28.5q-105 -57 -222 -57q-72 0 -132 22.5t-105 64.5q-89 87 -89 218zM177 282q0 -77 48 -122q49 -47 139 -47q63 0 115.5 16.5t92.5 47.5q33 28 56 54.5t30 46.5v140q-57 37 -115 53t-112 16q-53 0 -99.5 -15t-81 -42t-54 -65t-19.5 -83z M193 1121q0 132 51 197q26 33 62 51.5t81 18.5q78 0 170 -76q55 -49 92 -49q26 0 44 35t18 103h127q0 -62 -14 -111.5t-39.5 -84.5t-62.5 -53.5t-82 -18.5q-36 0 -77.5 20.5t-84.5 57.5q-49 45 -93 45q-68 0 -68 -135h-124z" />
<glyph unicode="&#xe4;" horiz-adv-x="1012" d="M28 281q8 83 43 146t88.5 105.5t121.5 64t141 21.5q60 0 120.5 -15t117.5 -44q0 10 -0.5 20.5t-0.5 20.5v58q-5 55 -20.5 101.5t-41 80.5t-61.5 52.5t-82 18.5q-81 -1 -155.5 -32t-143.5 -94l-93 97q160 167 401 166q165 0 253 -100t88 -291v-657h-144v93 q-17 -15 -40.5 -31.5t-43.5 -28.5q-105 -57 -222 -57q-72 0 -132 22.5t-105 64.5q-89 87 -89 218zM131 1218q0 21 8 38.5t21.5 29.5t30.5 19t35 7q19 0 37 -7t31.5 -19.5t22 -29.5t8.5 -38q0 -42 -27.5 -69.5t-69.5 -27.5q-19 0 -36.5 7t-31 19.5t-21.5 30.5t-8 40zM177 282 q0 -77 48 -122q49 -47 139 -47q63 0 115.5 16.5t92.5 47.5q33 28 56 54.5t30 46.5v140q-57 37 -115 53t-112 16q-53 0 -99.5 -15t-81 -42t-54 -65t-19.5 -83zM446 1218q0 21 8 38.5t21.5 29.5t30 19t34.5 7q19 0 37 -7t32.5 -19.5t23 -29.5t8.5 -38q0 -42 -29 -69.5 t-70 -27.5q-18 0 -35.5 7t-31 19.5t-21.5 30.5t-8 40z" />
<glyph unicode="&#xe5;" horiz-adv-x="849" d="M22 309q8 83 43 146t88.5 105.5t121.5 64t141 21.5q60 0 120.5 -15t117.5 -44q0 10 -0.5 20.5t-0.5 20.5v58q-5 55 -20.5 101.5t-41 80.5t-61.5 52.5t-82 18.5q-81 -1 -155.5 -32t-143.5 -94l-93 97q160 167 401 166q165 0 253 -100t88 -291v-657h-144v93 q-17 -15 -40.5 -31.5t-43.5 -28.5q-105 -57 -222 -57q-72 0 -132 22.5t-105 64.5q-89 87 -89 218zM171 310q0 -77 48 -122q49 -47 139 -47q63 0 115.5 16.5t92.5 47.5q33 28 56 54.5t30 46.5v140q-57 37 -115 53t-112 16q-53 0 -99.5 -15t-81 -42t-54 -65t-19.5 -83z M268 1324q0 92 63 146v-1q31 30 69.5 43.5t85.5 13.5q48 0 86.5 -13.5t68.5 -42.5q63 -56 63 -146t-64 -147q-32 -27 -70 -41.5t-84 -14.5t-84.5 14t-70.5 40q-63 54 -63 149zM395 1324q0 -38 26 -60t65 -22q41 0 67.5 23t26.5 59q0 40 -28 61t-66 21q-41 0 -66 -22.5 t-25 -59.5z" />
<glyph unicode="&#xe7;" horiz-adv-x="909" d="M27 495q0 118 38.5 220t105.5 177q72 75 165.5 115.5t204.5 40.5q152 2 304 -99l-83 -111q-119 73 -234 73q-155 0 -254 -114t-99 -297q0 -178 90 -283q89 -104 234 -104q136 0 259 89l81 -117q-95 -54 -180.5 -81.5t-163.5 -27.5q-210 0 -341 145q-63 72 -95 165 t-32 209zM379 -275q39 -5 66.5 -7t42.5 -2q123 0 123 57q0 53 -109 53q-12 0 -33 -2t-56 -6v239h125v-110q110 -4 161.5 -46t51.5 -122q0 -189 -269 -189q-17 0 -42.5 1.5t-60.5 5.5v128z" />
<glyph unicode="&#xe8;" horiz-adv-x="1034" d="M32 518q0 110 32 204.5t94 169.5q65 73 150.5 114.5t185.5 41.5q193 0 299 -139q102 -132 102 -362v-67h-715q5 -81 25.5 -150t58.5 -115q84 -102 232 -102q151 0 297 117l71 -116q-97 -69 -192 -103.5t-195 -34.5q-199 0 -323 145q-61 72 -91.5 169.5t-30.5 227.5z M188 616h557q-11 141 -76.5 218t-178.5 77q-123 0 -206 -83q-35 -38 -58.5 -91.5t-37.5 -120.5zM201 1489h170l262 -368h-155z" />
<glyph unicode="&#xe9;" horiz-adv-x="1034" d="M32 518q0 110 32 204.5t94 169.5q65 73 150.5 114.5t185.5 41.5q193 0 299 -139q102 -132 102 -362v-67h-715q5 -81 25.5 -150t58.5 -115q84 -102 232 -102q151 0 297 117l71 -116q-97 -69 -192 -103.5t-195 -34.5q-199 0 -323 145q-61 72 -91.5 169.5t-30.5 227.5z M188 616h557q-11 141 -76.5 218t-178.5 77q-123 0 -206 -83q-35 -38 -58.5 -91.5t-37.5 -120.5zM223 1121l262 368h170l-278 -368h-154z" />
<glyph unicode="&#xea;" horiz-adv-x="1034" d="M32 518q0 110 32 204.5t94 169.5q65 73 150.5 114.5t185.5 41.5q193 0 299 -139q102 -132 102 -362v-67h-715q5 -81 25.5 -150t58.5 -115q84 -102 232 -102q151 0 297 117l71 -116q-97 -69 -192 -103.5t-195 -34.5q-199 0 -323 145q-61 72 -91.5 169.5t-30.5 227.5z M156 1121l246 375h74l243 -375h-149l-133 203l-68 -103l-67 -100h-146zM188 616h557q-11 141 -76.5 218t-178.5 77q-123 0 -206 -83q-35 -38 -58.5 -91.5t-37.5 -120.5z" />
<glyph unicode="&#xeb;" horiz-adv-x="1034" d="M32 518q0 110 32 204.5t94 169.5q65 73 150.5 114.5t185.5 41.5q193 0 299 -139q102 -132 102 -362v-67h-715q5 -81 25.5 -150t58.5 -115q84 -102 232 -102q151 0 297 117l71 -116q-97 -69 -192 -103.5t-195 -34.5q-199 0 -323 145q-61 72 -91.5 169.5t-30.5 227.5z M168 1218q0 21 8 38.5t21.5 29.5t30.5 19t35 7q19 0 37 -7t31.5 -19.5t22 -29.5t8.5 -38q0 -42 -27.5 -69.5t-69.5 -27.5q-19 0 -36.5 7t-31 19.5t-21.5 30.5t-8 40zM188 616h557q-11 141 -76.5 218t-178.5 77q-123 0 -206 -83q-35 -38 -58.5 -91.5t-37.5 -120.5zM483 1218 q0 21 8 38.5t21.5 29.5t30 19t34.5 7q19 0 37 -7t32.5 -19.5t23 -29.5t8.5 -38q0 -42 -29 -69.5t-70 -27.5q-18 0 -35.5 7t-31 19.5t-21.5 30.5t-8 40z" />
<glyph unicode="&#xec;" horiz-adv-x="380" d="M-46 1517h170l262 -368h-155zM190 0v1024h144v-1024h-144z" />
<glyph unicode="&#xed;" horiz-adv-x="364" d="M-148 1149l262 368h170l-278 -368h-154zM67 0v1024h145v-1024h-145z" />
<glyph unicode="&#xee;" horiz-adv-x="509" d="M-126 1149l246 375h74l243 -375h-149l-133 203l-69 -103l-66 -100h-146zM170 0v1024h144v-1024h-144z" />
<glyph unicode="&#xef;" horiz-adv-x="497" d="M-107 1246q0 21 8 38.5t21.5 29.5t30.5 19t35 7q19 0 37 -7t31.5 -19.5t22 -29.5t8.5 -38q0 -42 -27.5 -69.5t-69.5 -27.5q-19 0 -36.5 7t-31 19.5t-21.5 30.5t-8 40zM165 0v1024h144v-1024h-144zM208 1246q0 21 8 38.5t21.5 29.5t30 19t34.5 7q19 0 37 -7t32.5 -19.5 t23 -29.5t8.5 -38q0 -42 -29 -69.5t-70 -27.5q-18 0 -35.5 7t-31 19.5t-21.5 30.5t-8 40z" />
<glyph unicode="&#xf0;" horiz-adv-x="995" d="M21 506q0 121 32 217t96 172q129 153 341 153q45 0 80.5 -6t70.5 -23q-60 90 -129 162l-43 -21l-45 -22h1l-103 -52l-99 -49l-58 117l248 121q-55 49 -124 100l-155 111h241q44 -30 86 -64.5t88 -76.5l75 38l78 39q32 17 69 34l68 34l59 -119l-254 -123 q70 -78 122 -161.5t89 -176.5q42 -100 61.5 -200t19.5 -200q0 -233 -119 -382q-125 -152 -336 -152q-222 0 -342 147q-118 145 -118 383zM168 504q0 -184 85 -289q84 -102 230 -102q140 0 220 104q85 104 85 295q0 399 -298 399q-146 0 -230 -109q-92 -115 -92 -298z" />
<glyph unicode="&#xf1;" horiz-adv-x="1096" d="M51 0v1024h145v-105q121 130 305 129q171 0 261.5 -111.5t90.5 -319.5v-617h-144v591q0 157 -57.5 236t-163.5 84q-95 -11 -172 -54t-120 -121v-736h-145zM265 1121q0 132 51 197q26 33 62 51.5t81 18.5q78 0 170 -76q55 -49 92 -49q26 0 44 35t18 103h127 q0 -62 -14 -111.5t-39.5 -84.5t-62.5 -53.5t-82 -18.5q-36 0 -77.5 20.5t-84.5 57.5q-49 45 -93 45q-68 0 -68 -135h-124z" />
<glyph unicode="&#xf2;" horiz-adv-x="1149" d="M34 506q0 124 35.5 224t101.5 173q68 68 160 106.5t200 38.5q218 0 348 -145q127 -145 127 -393q0 -118 -33 -214t-96 -170q-64 -72 -154.5 -111t-201.5 -39q-112 0 -201.5 37t-155.5 112q-130 148 -130 381zM183 504q0 -179 92 -286v1q94 -106 249 -106q80 0 141.5 26.5 t105.5 76.5q42 53 64.5 127.5t22.5 168.5q0 195 -85.5 297t-244.5 102q-158 0 -252 -106q-48 -53 -70.5 -128t-22.5 -173zM224 1489h170l262 -368h-155z" />
<glyph unicode="&#xf3;" horiz-adv-x="1149" d="M34 506q0 124 35.5 224t101.5 173q68 68 160 106.5t200 38.5q218 0 348 -145q127 -145 127 -393q0 -118 -33 -214t-96 -170q-64 -72 -154.5 -111t-201.5 -39q-112 0 -201.5 37t-155.5 112q-130 148 -130 381zM183 504q0 -179 92 -286v1q94 -106 249 -106q80 0 141.5 26.5 t105.5 76.5q42 53 64.5 127.5t22.5 168.5q0 195 -85.5 297t-244.5 102q-158 0 -252 -106q-48 -53 -70.5 -128t-22.5 -173zM275 1121l262 368h170l-278 -368h-154z" />
<glyph unicode="&#xf4;" horiz-adv-x="1149" d="M34 506q0 124 35.5 224t101.5 173q68 68 160 106.5t200 38.5q218 0 348 -145q127 -145 127 -393q0 -118 -33 -214t-96 -170q-64 -72 -154.5 -111t-201.5 -39q-112 0 -201.5 37t-155.5 112q-130 148 -130 381zM183 504q0 -179 92 -286v1q94 -106 249 -106q80 0 141.5 26.5 t105.5 76.5q42 53 64.5 127.5t22.5 168.5q0 195 -85.5 297t-244.5 102q-158 0 -252 -106q-48 -53 -70.5 -128t-22.5 -173zM200 1121l246 375h74l243 -375h-149l-133 203l-68 -103l-67 -100h-146z" />
<glyph unicode="&#xf5;" horiz-adv-x="1149" d="M34 506q0 124 35.5 224t101.5 173q68 68 160 106.5t200 38.5q218 0 348 -145q127 -145 127 -393q0 -118 -33 -214t-96 -170q-64 -72 -154.5 -111t-201.5 -39q-112 0 -201.5 37t-155.5 112q-130 148 -130 381zM183 504q0 -179 92 -286v1q94 -106 249 -106q80 0 141.5 26.5 t105.5 76.5q42 53 64.5 127.5t22.5 168.5q0 195 -85.5 297t-244.5 102q-158 0 -252 -106q-48 -53 -70.5 -128t-22.5 -173zM280 1121q0 132 51 197q26 33 62 51.5t81 18.5q78 0 170 -76q55 -49 92 -49q26 0 44 35t18 103h127q0 -62 -14 -111.5t-39.5 -84.5t-62.5 -53.5 t-82 -18.5q-36 0 -77.5 20.5t-84.5 57.5q-49 45 -93 45q-68 0 -68 -135h-124z" />
<glyph unicode="&#xf6;" horiz-adv-x="1149" d="M34 506q0 124 35.5 224t101.5 173q68 68 160 106.5t200 38.5q218 0 348 -145q127 -145 127 -393q0 -118 -33 -214t-96 -170q-64 -72 -154.5 -111t-201.5 -39q-112 0 -201.5 37t-155.5 112q-130 148 -130 381zM183 504q0 -179 92 -286v1q94 -106 249 -106q80 0 141.5 26.5 t105.5 76.5q42 53 64.5 127.5t22.5 168.5q0 195 -85.5 297t-244.5 102q-158 0 -252 -106q-48 -53 -70.5 -128t-22.5 -173zM215 1218q0 21 8 38.5t21.5 29.5t30.5 19t35 7q19 0 37 -7t31.5 -19.5t22 -29.5t8.5 -38q0 -42 -27.5 -69.5t-69.5 -27.5q-19 0 -36.5 7t-31 19.5 t-21.5 30.5t-8 40zM530 1218q0 21 8 38.5t21.5 29.5t30 19t34.5 7q19 0 37 -7t32.5 -19.5t23 -29.5t8.5 -38q0 -42 -29 -69.5t-70 -27.5q-18 0 -35.5 7t-31 19.5t-21.5 30.5t-8 40z" />
<glyph unicode="&#xf7;" horiz-adv-x="919" d="M-10 524v136h914v-136h-914zM346 267q0 43 29.5 71.5t72.5 28.5t71.5 -28.5t28.5 -71.5q0 -21 -7.5 -39.5t-21 -33t-32 -22.5t-39.5 -8t-40 8t-32.5 22.5t-21.5 33t-8 39.5zM346 920q0 43 29.5 71.5t72.5 28.5t71.5 -28.5t28.5 -71.5q0 -21 -7.5 -39.5t-21 -33t-32 -22.5 t-39.5 -8t-40 8t-32.5 22.5t-21.5 33t-8 39.5z" />
<glyph unicode="&#xf8;" horiz-adv-x="1192" d="M16 -10l163 183q-49 70 -72 152t-23 181q0 124 35 224t101 173q69 68 161 106.5t200 38.5q91 0 166.5 -25t135.5 -73l40 44l42 47l41 47l38 42l101 -90l-174 -193q44 -69 64.5 -152t20.5 -185q0 -118 -33 -214t-96 -170q-65 -72 -155.5 -111t-200.5 -39 q-86 0 -161.5 25.5t-137.5 70.5q-11 -14 -24 -28l-28 -29l-27 -30l-28 -32l-27 -29q-14 -14 -24 -26zM232 504q0 -62 11.5 -117.5t36.5 -103.5l505 562q-42 35 -92 50.5t-116 15.5q-155 0 -252 -106h1q-94 -106 -94 -301zM368 179q43 -35 93.5 -50.5t112.5 -15.5 q80 0 141.5 26.5t105.5 76.5q42 53 64.5 127.5t22.5 168.5q0 127 -40 221z" />
<glyph unicode="&#xf9;" horiz-adv-x="1096" d="M44 436v588h145v-566q0 -181 57.5 -263t181.5 -82q83 -1 150.5 46.5t123.5 140.5v724h144v-1024h-144v118q-130 -150 -288 -142h1q-371 0 -371 460zM190 1489h170l262 -368h-155z" />
<glyph unicode="&#xfa;" horiz-adv-x="1096" d="M44 436v588h145v-566q0 -181 57.5 -263t181.5 -82q83 -1 150.5 46.5t123.5 140.5v724h144v-1024h-144v118q-130 -150 -288 -142h1q-371 0 -371 460zM277 1121l262 368h170l-278 -368h-154z" />
<glyph unicode="&#xfb;" horiz-adv-x="1096" d="M44 436v588h145v-566q0 -181 57.5 -263t181.5 -82q83 -1 150.5 46.5t123.5 140.5v724h144v-1024h-144v118q-130 -150 -288 -142h1q-371 0 -371 460zM178 1121l246 375h74l243 -375h-149l-133 203l-69 -103l-66 -100h-146z" />
<glyph unicode="&#xfc;" horiz-adv-x="1096" d="M44 436v588h145v-566q0 -181 57.5 -263t181.5 -82q83 -1 150.5 46.5t123.5 140.5v724h144v-1024h-144v118q-130 -150 -288 -142h1q-371 0 -371 460zM201 1218q0 21 8 38.5t21.5 29.5t30.5 19t35 7q19 0 37 -7t31.5 -19.5t22 -29.5t8.5 -38q0 -42 -27.5 -69.5t-69.5 -27.5 q-19 0 -36.5 7t-31 19.5t-21.5 30.5t-8 40zM516 1218q0 21 8 38.5t21.5 29.5t30 19t34.5 7q19 0 37 -7t32.5 -19.5t23 -29.5t8.5 -38q0 -42 -29 -69.5t-70 -27.5q-18 0 -35.5 7t-31 19.5t-21.5 30.5t-8 40z" />
<glyph unicode="&#xfd;" horiz-adv-x="928" d="M17 1024h157l298 -804l314 804h158l-487 -1204q-29 -69 -59.5 -120.5t-67.5 -85.5t-81.5 -51t-100.5 -17q-24 0 -52 7t-60 18l47 145q33 -26 69 -26q95 0 157 143l85 202l-92 241l-93 245l-47 125l-50 130l-49 127zM182 1121l262 368h170l-278 -368h-154z" />
<glyph unicode="&#xfe;" horiz-adv-x="966" d="M53 -444v1933h144v-597q23 28 50.5 51t58.5 43q104 62 228 62q197 0 309 -139q54 -67 82 -157t28 -205q0 -125 -32.5 -228.5t-91.5 -181.5q-63 -77 -148.5 -119t-187.5 -42q-182 0 -296 131v-551h-144zM197 277q85 -164 303 -164q66 0 121.5 30t96.5 86q42 59 64.5 138.5 t22.5 177.5q0 171 -79 271q-77 95 -204 95q-216 -1 -325 -216v-418z" />
<glyph unicode="&#xff;" horiz-adv-x="922" d="M-8 1024h158l297 -802l157 401l158 401h157l-488 -1204q-28 -69 -58.5 -120.5t-67.5 -85.5t-81.5 -51t-101.5 -17q-23 0 -52 6.5t-59 17.5l49 145q31 -25 66 -25q48 0 88.5 38.5t69.5 104.5q20 51 42 101l42 101l-92 241l-93 245l-47 125l-50 130l-48 127zM204 1218 q0 21 8 38.5t21.5 29.5t30 19t34.5 7q19 0 37.5 -7t32 -19.5t22 -29.5t8.5 -38q0 -42 -28 -69.5t-70 -27.5q-18 0 -35.5 7t-31 19.5t-21.5 30.5t-8 40zM518 1218q0 21 8 38.5t21.5 29.5t30.5 19t35 7q19 0 37 -7t32 -19.5t22.5 -29.5t8.5 -38q0 -42 -28.5 -69.5t-70.5 -27.5 q-18 0 -35.5 7t-31 19.5t-21.5 30.5t-8 40z" />
<glyph unicode="&#x178;" horiz-adv-x="1106" d="M-15 1434h171l329 -680l9 -18l12 -27l10 21q4 11 10 23l90 179l94 184l82 162l79 156h168l-463 -890v-544h-152v543l-107 216l-109 221l-114 230zM182 1565q0 21 8 38.5t21.5 29.5t30.5 19t35 7q19 0 37 -7t31.5 -19.5t22 -29.5t8.5 -38q0 -42 -27.5 -69.5t-69.5 -27.5 q-19 0 -36.5 7t-31 19.5t-21.5 30.5t-8 40zM497 1565q0 21 8 38.5t21.5 29.5t30 19t34.5 7q19 0 37 -7t32.5 -19.5t23 -29.5t8.5 -38q0 -42 -29 -69.5t-70 -27.5q-18 0 -35.5 7t-31 19.5t-21.5 30.5t-8 40z" />
<glyph unicode="&#x2c6;" horiz-adv-x="539" d="M-20 1121l246 375h74l243 -375h-149l-133 203l-69 -103l-66 -100h-146z" />
<glyph unicode="&#x2dc;" horiz-adv-x="730" d="M33 1121q0 132 51 197q26 33 62 51.5t81 18.5q78 0 170 -76q55 -49 92 -49q26 0 44 35t18 103h127q0 -62 -14 -111.5t-39.5 -84.5t-62.5 -53.5t-82 -18.5q-36 0 -77.5 20.5t-84.5 57.5q-49 45 -93 45q-68 0 -68 -135h-124z" />
<glyph unicode="&#x2000;" horiz-adv-x="953" />
<glyph unicode="&#x2001;" horiz-adv-x="1906" />
<glyph unicode="&#x2002;" horiz-adv-x="953" />
<glyph unicode="&#x2003;" horiz-adv-x="1906" />
<glyph unicode="&#x2004;" horiz-adv-x="635" />
<glyph unicode="&#x2005;" horiz-adv-x="476" />
<glyph unicode="&#x2006;" horiz-adv-x="317" />
<glyph unicode="&#x2007;" horiz-adv-x="317" />
<glyph unicode="&#x2008;" horiz-adv-x="238" />
<glyph unicode="&#x2009;" horiz-adv-x="381" />
<glyph unicode="&#x200a;" horiz-adv-x="105" />
<glyph unicode="&#x2010;" horiz-adv-x="708" d="M56 524v142h574v-142h-574z" />
<glyph unicode="&#x2011;" horiz-adv-x="708" d="M56 524v142h574v-142h-574z" />
<glyph unicode="&#x2012;" horiz-adv-x="708" d="M56 524v142h574v-142h-574z" />
<glyph unicode="&#x2013;" horiz-adv-x="1167" d="M55 524v142h1024v-142h-1024z" />
<glyph unicode="&#x2014;" horiz-adv-x="2190" d="M69 524v142h1990v-142h-1990z" />
<glyph unicode="&#x2018;" horiz-adv-x="262" d="M-23 930l163 481h130l-132 -481h-161z" />
<glyph unicode="&#x2019;" horiz-adv-x="261" d="M-15 930l134 481h159l-166 -481h-127z" />
<glyph unicode="&#x201a;" horiz-adv-x="261" d="M-15 -213l134 477h160l-166 -477h-128z" />
<glyph unicode="&#x201c;" horiz-adv-x="556" d="M4 930l163 481h130l-133 -481h-160zM237 930l166 481h128l-134 -481h-160z" />
<glyph unicode="&#x201d;" horiz-adv-x="557" d="M10 930l135 481h160l-168 -481h-127zM243 930l132 481h163l-165 -481h-130z" />
<glyph unicode="&#x201e;" horiz-adv-x="556" d="M10 -216l135 480h160l-167 -480h-128zM244 -216l132 480h162l-165 -480h-129z" />
<glyph unicode="&#x2022;" horiz-adv-x="581" d="M25 701q0 103 76 181q77 76 183 76q104 0 181 -75q74 -77 74 -182q0 -104 -74 -177q-77 -74 -181 -74q-105 0 -183 75q-76 76 -76 176z" />
<glyph unicode="&#x2026;" horiz-adv-x="1216" d="M53 91q0 45 29.5 74t74.5 29t75.5 -29t30.5 -74q0 -23 -8.5 -42.5t-22.5 -33.5t-33.5 -22t-41.5 -8q-45 0 -74.5 30t-29.5 76zM483 91q0 45 30 74t75 29t75.5 -29t30.5 -74q0 -23 -8.5 -42.5t-22.5 -33.5t-33.5 -22t-41.5 -8t-41 8t-33.5 22t-22.5 33.5t-8 42.5zM919 91 q0 45 29.5 74t74.5 29q22 0 41.5 -8t34 -21.5t23 -32.5t8.5 -41q0 -23 -8.5 -42.5t-23 -33.5t-34 -22t-41.5 -8q-45 0 -74.5 30t-29.5 76z" />
<glyph unicode="&#x202f;" horiz-adv-x="381" />
<glyph unicode="&#x2039;" horiz-adv-x="447" d="M-22 536l286 353h180l-289 -352l53 -65l57 -69l45 -55l47 -56l45 -54l40 -49h-177z" />
<glyph unicode="&#x203a;" horiz-adv-x="447" d="M-12 189l294 354l-90 107l-94 110q-12 15 -27 32l-28 34l-28 33q-14 16 -25 30h182l284 -346l-283 -354h-185z" />
<glyph unicode="&#x205f;" horiz-adv-x="476" />
<glyph unicode="&#x20ac;" horiz-adv-x="947" d="M8 472v137h127q-1 17 -1 34v33v51q0 22 2 48h-128v136h145q22 119 65 214t106 163q67 70 149.5 108t177.5 38q64 0 126.5 -16t123.5 -45v-165q-75 44 -139 66.5t-118 22.5q-61 0 -117 -27.5t-102 -75.5q-42 -49 -74 -120t-49 -163h506v-136h-526q-1 -17 -1 -40v-47v-23 v-18v-16q0 -9 1 -22h526v-137h-507q15 -85 45 -152t68 -112q42 -42 97 -68.5t112 -26.5q110 0 278 114v-164q-146 -87 -288 -87q-90 0 -167 35t-140 102q-58 63 -99 153.5t-58 205.5h-141z" />
<glyph unicode="&#x2122;" horiz-adv-x="1424" d="M35 1280v131h554v-131h-211v-551h-134v551h-209zM623 729v682h156l194 -474l35 83l36 83l67 155l66 153h149v-682h-136v394l-86 -199l-84 -195h-102l-161 388v-388h-134z" />
<glyph unicode="&#xe000;" horiz-adv-x="1025" d="M0 0v1025h1025v-1025h-1025z" />
<glyph unicode="&#xfb03;" horiz-adv-x="1448" d="M30 888v136h174v139q0 165 84 252q86 89 213 89q69 0 176 -53l-63 -127q-57 43 -117 43q-149 0 -149 -212v-131h389v139q0 166 85 252q86 89 213 89q33 0 77 -13t98 -40l-63 -127q-57 43 -116 43q-149 0 -149 -212v-131h480v-1024h-144v888h-336v-888h-145v888h-389v-888 h-144v888h-174z" />
<glyph unicode="&#xfb04;" horiz-adv-x="1708" d="M37 888v136h174v139q0 164 85 252q86 89 213 89q71 0 175 -52l-64 -128q-55 43 -115 43q-150 0 -150 -212v-131h391v139q0 166 85 252q86 89 212 89q295 0 328 -217v-1009q0 -85 25 -123t85 -38q25 0 60.5 13t84.5 42v-148q-45 -23 -84 -33t-72 -10q-243 0 -243 286v1014 q-16 39 -63.5 62.5t-123.5 23.5q-150 0 -150 -212v-131h256v-136h-256v-888h-144v888h-391v-888h-144v888h-174z" />
</font>
</defs>
</svg>
